<svg width="16" height="16" viewBox="0 0 16 16" fill="none" xmlns="http://www.w3.org/2000/svg">
<g clip-path="url(#clip0_113_3)">
<rect width="16" height="16" rx="2" fill="#3F4A61"/>
<path d="M10.16 5.502C9.94401 6.072 9.71301 6.672 9.46701 7.302C9.22701 7.926 8.98701 8.541 8.74701 9.147C8.51301 9.753 8.29101 10.329 8.08101 10.875C7.87101 11.421 7.69401 11.892 7.55001 12.288L6.09201 8.643C6.07401 8.595 6.05901 8.559 6.04701 8.535C6.03501 8.511 6.02301 8.475 6.01101 8.427C6.01101 8.451 6.00801 8.475 6.00201 8.499C5.99601 8.517 5.99001 8.538 5.98401 8.562C5.97801 8.586 5.97201 8.61 5.96601 8.634C5.76201 9.102 5.56101 9.561 5.36301 10.011C5.27901 10.203 5.19201 10.401 5.10201 10.605C5.01201 10.809 4.92501 11.013 4.84101 11.217C4.75701 11.415 4.67301 11.607 4.58901 11.793C4.51101 11.979 4.43901 12.147 4.37301 12.297C3.94101 11.163 3.50601 10.032 3.06801 8.904C2.63001 7.776 2.19501 6.642 1.76301 5.502H2.87001C3.01401 5.898 3.16101 6.297 3.31101 6.699C3.46701 7.101 3.61101 7.488 3.74301 7.86C3.88101 8.232 4.00401 8.577 4.11201 8.895C4.22001 9.213 4.30401 9.483 4.36401 9.705L4.43601 10.02C4.44201 9.99 4.45701 9.942 4.48101 9.876C4.50501 9.804 4.52301 9.753 4.53501 9.723C4.54101 9.699 4.56201 9.645 4.59801 9.561C4.63401 9.477 4.67601 9.378 4.72401 9.264C4.77201 9.144 4.82601 9.015 4.88601 8.877C4.94601 8.739 5.00601 8.598 5.06601 8.454C5.21001 8.124 5.36901 7.758 5.54301 7.356C5.44101 7.074 5.35101 6.81 5.27301 6.564C5.20101 6.354 5.13201 6.147 5.06601 5.943C5.00601 5.739 4.96101 5.592 4.93101 5.502H5.87601C6.13401 6.18 6.37401 6.807 6.59601 7.383C6.68601 7.629 6.77601 7.875 6.86601 8.121C6.96201 8.367 7.04901 8.595 7.12701 8.805C7.21101 9.015 7.28301 9.201 7.34301 9.363C7.40301 9.519 7.44501 9.633 7.46901 9.705C7.48701 9.759 7.49901 9.813 7.50501 9.867C7.51701 9.915 7.52901 9.966 7.54101 10.02C7.55301 9.966 7.56201 9.912 7.56801 9.858C7.58001 9.804 7.59201 9.753 7.60401 9.705C7.65801 9.471 7.74201 9.192 7.85601 8.868C7.97001 8.544 8.09601 8.196 8.23401 7.824C8.37801 7.452 8.52801 7.068 8.68401 6.672C8.84001 6.27 8.99001 5.88 9.13401 5.502H10.16Z" fill="white"/>
<path d="M10.16 5.502L10.4405 5.60831L10.5945 5.202H10.16V5.502ZM9.46701 7.302L9.18756 7.19288L9.18701 7.19431L9.46701 7.302ZM8.74701 9.147L8.46808 9.03653L8.46715 9.03893L8.74701 9.147ZM8.08101 10.875L8.36102 10.9827L8.36102 10.9827L8.08101 10.875ZM7.55001 12.288L7.27147 12.3994L7.56336 13.1291L7.83195 12.3905L7.55001 12.288ZM6.09201 8.643L5.81105 8.74836L5.81347 8.75442L6.09201 8.643ZM6.04701 8.535L5.77868 8.66916L5.77868 8.66916L6.04701 8.535ZM6.01101 8.427L6.30206 8.35424L5.71101 8.427H6.01101ZM6.00201 8.499L6.28662 8.59387L6.29026 8.58294L6.29305 8.57176L6.00201 8.499ZM5.98401 8.562L5.69297 8.48924L5.69297 8.48924L5.98401 8.562ZM5.96601 8.634L6.24102 8.75388L6.251 8.73098L6.25706 8.70676L5.96601 8.634ZM5.36301 10.011L5.08842 9.89018L5.08817 9.89075L5.36301 10.011ZM5.10201 10.605L5.37649 10.7261L5.37649 10.7261L5.10201 10.605ZM4.84101 11.217L5.1172 11.3342L5.11842 11.3312L4.84101 11.217ZM4.58901 11.793L4.3155 11.6695L4.31235 11.677L4.58901 11.793ZM4.37301 12.297L4.09267 12.4038L4.35304 13.0873L4.64761 12.4178L4.37301 12.297ZM3.06801 8.904L3.34767 8.79541L3.34767 8.79541L3.06801 8.904ZM1.76301 5.502V5.202H1.32851L1.48248 5.60831L1.76301 5.502ZM2.87001 5.502L3.15195 5.39948L3.08014 5.202H2.87001V5.502ZM3.31101 6.699L3.02992 6.80389L3.03133 6.80753L3.31101 6.699ZM3.74301 7.86L3.46026 7.96033L3.46174 7.96434L3.74301 7.86ZM4.36401 9.705L4.6567 9.6381L4.65362 9.62673L4.36401 9.705ZM4.43601 10.02L4.14355 10.0868L4.73019 10.0788L4.43601 10.02ZM4.48101 9.876L4.76305 9.97856L4.76562 9.97087L4.48101 9.876ZM4.53501 9.723L4.81356 9.83442L4.82112 9.81551L4.82606 9.79576L4.53501 9.723ZM4.59801 9.561L4.87376 9.67918L4.87376 9.67918L4.59801 9.561ZM4.72401 9.264L5.00055 9.38044L5.00256 9.37542L4.72401 9.264ZM4.88601 8.877L4.61089 8.75738L4.61089 8.75738L4.88601 8.877ZM5.06601 8.454L4.79101 8.334L4.78909 8.33862L5.06601 8.454ZM5.54301 7.356L5.81833 7.47517L5.86562 7.36591L5.82513 7.25396L5.54301 7.356ZM5.27301 6.564L5.55906 6.4733L5.5568 6.4667L5.27301 6.564ZM5.06601 5.943L4.7781 6.02768L4.78058 6.03535L5.06601 5.943ZM4.93101 5.502V5.202H4.51479L4.64641 5.59687L4.93101 5.502ZM5.87601 5.502L6.1564 5.3953L6.08284 5.202H5.87601V5.502ZM6.59601 7.383L6.87779 7.27991L6.87594 7.27511L6.59601 7.383ZM6.86601 8.121L6.58421 8.2241L6.58654 8.23006L6.86601 8.121ZM7.12701 8.805L6.8457 8.90949L6.84847 8.91642L7.12701 8.805ZM7.34301 9.363L7.06167 9.4672L7.06301 9.47069L7.34301 9.363ZM7.46901 9.705L7.18441 9.79987L7.18441 9.79987L7.46901 9.705ZM7.50501 9.867L7.20685 9.90013L7.20908 9.92018L7.21397 9.93976L7.50501 9.867ZM7.54101 10.02L7.24816 10.0851L7.83387 10.0851L7.54101 10.02ZM7.56801 9.858L7.27516 9.79292L7.27164 9.80875L7.26985 9.82487L7.56801 9.858ZM7.60401 9.705L7.8951 9.77777L7.89633 9.77246L7.60401 9.705ZM7.85601 8.868L7.57302 8.76843L7.57302 8.76843L7.85601 8.868ZM8.23401 7.824L7.95421 7.71569L7.95274 7.71966L8.23401 7.824ZM8.68401 6.672L8.96314 6.78196L8.96369 6.78053L8.68401 6.672ZM9.13401 5.502V5.202H8.92727L8.85367 5.3952L9.13401 5.502ZM9.87948 5.39569C9.66387 5.96466 9.43323 6.56372 9.18756 7.19288L9.74646 7.41112C9.99279 6.78028 10.2242 6.17934 10.4405 5.60831L9.87948 5.39569ZM9.18701 7.19431C8.94736 7.8174 8.70772 8.43148 8.46809 9.03654L9.02594 9.25746C9.26631 8.65052 9.50667 8.0346 9.74702 7.40969L9.18701 7.19431ZM8.46715 9.03893C8.23311 9.64505 8.01106 10.2212 7.80101 10.7673L8.36102 10.9827C8.57096 10.4368 8.79292 9.86095 9.02687 9.25507L8.46715 9.03893ZM7.80101 10.7673C7.59058 11.3144 7.41289 11.7872 7.26807 12.1855L7.83195 12.3905C7.97513 11.9968 8.15144 11.5276 8.36102 10.9827L7.80101 10.7673ZM7.82856 12.1766L6.37056 8.53158L5.81347 8.75442L7.27147 12.3994L7.82856 12.1766ZM6.37291 8.53766C6.3539 8.48696 6.33451 8.43918 6.31534 8.40084L5.77868 8.66916C5.78351 8.67882 5.79413 8.70304 5.81111 8.74834L6.37291 8.53766ZM6.31534 8.40084C6.31769 8.40553 6.31681 8.4047 6.31362 8.39513C6.31064 8.38621 6.30672 8.37289 6.30206 8.35424L5.71997 8.49976C5.73363 8.5544 5.75191 8.61561 5.77868 8.66916L6.31534 8.40084ZM5.71101 8.427L5.71097 8.42624L6.29305 8.57176C6.30482 8.5247 6.31101 8.47628 6.31101 8.427H5.71101ZM5.71741 8.40413C5.70838 8.43121 5.70031 8.45989 5.69297 8.48924L6.27505 8.63476C6.27972 8.61611 6.28364 8.60279 6.28662 8.59387L5.71741 8.40413ZM5.69297 8.48924C5.69296 8.48929 5.69295 8.48933 5.69293 8.48938C5.69292 8.48943 5.69291 8.48947 5.6929 8.48952C5.69289 8.48957 5.69288 8.48962 5.69286 8.48966C5.69285 8.48971 5.69284 8.48976 5.69283 8.4898C5.69282 8.48985 5.69281 8.4899 5.69279 8.48994C5.69278 8.48999 5.69277 8.49004 5.69276 8.49008C5.69275 8.49013 5.69273 8.49018 5.69272 8.49022C5.69271 8.49027 5.6927 8.49032 5.69269 8.49037C5.69268 8.49041 5.69266 8.49046 5.69265 8.49051C5.69264 8.49055 5.69263 8.4906 5.69262 8.49065C5.69261 8.49069 5.69259 8.49074 5.69258 8.49079C5.69257 8.49083 5.69256 8.49088 5.69255 8.49093C5.69254 8.49097 5.69252 8.49102 5.69251 8.49107C5.6925 8.49112 5.69249 8.49116 5.69248 8.49121C5.69247 8.49126 5.69245 8.4913 5.69244 8.49135C5.69243 8.4914 5.69242 8.49144 5.69241 8.49149C5.6924 8.49154 5.69238 8.49158 5.69237 8.49163C5.69236 8.49168 5.69235 8.49172 5.69234 8.49177C5.69232 8.49182 5.69231 8.49187 5.6923 8.49191C5.69229 8.49196 5.69228 8.49201 5.69227 8.49205C5.69225 8.4921 5.69224 8.49215 5.69223 8.49219C5.69222 8.49224 5.69221 8.49229 5.6922 8.49233C5.69218 8.49238 5.69217 8.49243 5.69216 8.49247C5.69215 8.49252 5.69214 8.49257 5.69213 8.49262C5.69211 8.49266 5.6921 8.49271 5.69209 8.49276C5.69208 8.4928 5.69207 8.49285 5.69206 8.4929C5.69204 8.49294 5.69203 8.49299 5.69202 8.49304C5.69201 8.49308 5.692 8.49313 5.69198 8.49318C5.69197 8.49322 5.69196 8.49327 5.69195 8.49332C5.69194 8.49337 5.69193 8.49341 5.69191 8.49346C5.6919 8.49351 5.69189 8.49355 5.69188 8.4936C5.69187 8.49365 5.69186 8.49369 5.69184 8.49374C5.69183 8.49379 5.69182 8.49383 5.69181 8.49388C5.6918 8.49393 5.69179 8.49397 5.69177 8.49402C5.69176 8.49407 5.69175 8.49412 5.69174 8.49416C5.69173 8.49421 5.69172 8.49426 5.6917 8.4943C5.69169 8.49435 5.69168 8.4944 5.69167 8.49444C5.69166 8.49449 5.69165 8.49454 5.69163 8.49458C5.69162 8.49463 5.69161 8.49468 5.6916 8.49472C5.69159 8.49477 5.69157 8.49482 5.69156 8.49487C5.69155 8.49491 5.69154 8.49496 5.69153 8.49501C5.69152 8.49505 5.6915 8.4951 5.69149 8.49515C5.69148 8.49519 5.69147 8.49524 5.69146 8.49529C5.69145 8.49533 5.69143 8.49538 5.69142 8.49543C5.69141 8.49547 5.6914 8.49552 5.69139 8.49557C5.69138 8.49562 5.69136 8.49566 5.69135 8.49571C5.69134 8.49576 5.69133 8.4958 5.69132 8.49585C5.69131 8.4959 5.69129 8.49594 5.69128 8.49599C5.69127 8.49604 5.69126 8.49608 5.69125 8.49613C5.69123 8.49618 5.69122 8.49622 5.69121 8.49627C5.6912 8.49632 5.69119 8.49637 5.69118 8.49641C5.69116 8.49646 5.69115 8.49651 5.69114 8.49655C5.69113 8.4966 5.69112 8.49665 5.69111 8.49669C5.69109 8.49674 5.69108 8.49679 5.69107 8.49683C5.69106 8.49688 5.69105 8.49693 5.69104 8.49697C5.69102 8.49702 5.69101 8.49707 5.691 8.49712C5.69099 8.49716 5.69098 8.49721 5.69097 8.49726C5.69095 8.4973 5.69094 8.49735 5.69093 8.4974C5.69092 8.49744 5.69091 8.49749 5.6909 8.49754C5.69088 8.49758 5.69087 8.49763 5.69086 8.49768C5.69085 8.49772 5.69084 8.49777 5.69082 8.49782C5.69081 8.49787 5.6908 8.49791 5.69079 8.49796C5.69078 8.49801 5.69077 8.49805 5.69075 8.4981C5.69074 8.49815 5.69073 8.49819 5.69072 8.49824C5.69071 8.49829 5.6907 8.49833 5.69068 8.49838C5.69067 8.49843 5.69066 8.49847 5.69065 8.49852C5.69064 8.49857 5.69063 8.49862 5.69061 8.49866C5.6906 8.49871 5.69059 8.49876 5.69058 8.4988C5.69057 8.49885 5.69056 8.4989 5.69054 8.49894C5.69053 8.49899 5.69052 8.49904 5.69051 8.49908C5.6905 8.49913 5.69048 8.49918 5.69047 8.49922C5.69046 8.49927 5.69045 8.49932 5.69044 8.49937C5.69043 8.49941 5.69041 8.49946 5.6904 8.49951C5.69039 8.49955 5.69038 8.4996 5.69037 8.49965C5.69036 8.49969 5.69034 8.49974 5.69033 8.49979C5.69032 8.49983 5.69031 8.49988 5.6903 8.49993C5.69029 8.49997 5.69027 8.50002 5.69026 8.50007C5.69025 8.50012 5.69024 8.50016 5.69023 8.50021C5.69022 8.50026 5.6902 8.5003 5.69019 8.50035C5.69018 8.5004 5.69017 8.50044 5.69016 8.50049C5.69015 8.50054 5.69013 8.50058 5.69012 8.50063C5.69011 8.50068 5.6901 8.50072 5.69009 8.50077C5.69007 8.50082 5.69006 8.50087 5.69005 8.50091C5.69004 8.50096 5.69003 8.50101 5.69002 8.50105C5.69 8.5011 5.68999 8.50115 5.68998 8.50119C5.68997 8.50124 5.68996 8.50129 5.68995 8.50133C5.68993 8.50138 5.68992 8.50143 5.68991 8.50147C5.6899 8.50152 5.68989 8.50157 5.68988 8.50162C5.68986 8.50166 5.68985 8.50171 5.68984 8.50176C5.68983 8.5018 5.68982 8.50185 5.68981 8.5019C5.68979 8.50194 5.68978 8.50199 5.68977 8.50204C5.68976 8.50208 5.68975 8.50213 5.68973 8.50218C5.68972 8.50222 5.68971 8.50227 5.6897 8.50232C5.68969 8.50237 5.68968 8.50241 5.68966 8.50246C5.68965 8.50251 5.68964 8.50255 5.68963 8.5026C5.68962 8.50265 5.68961 8.50269 5.68959 8.50274C5.68958 8.50279 5.68957 8.50283 5.68956 8.50288C5.68955 8.50293 5.68954 8.50297 5.68952 8.50302C5.68951 8.50307 5.6895 8.50312 5.68949 8.50316C5.68948 8.50321 5.68947 8.50326 5.68945 8.5033C5.68944 8.50335 5.68943 8.5034 5.68942 8.50344C5.68941 8.50349 5.6894 8.50354 5.68938 8.50358C5.68937 8.50363 5.68936 8.50368 5.68935 8.50372C5.68934 8.50377 5.68932 8.50382 5.68931 8.50387C5.6893 8.50391 5.68929 8.50396 5.68928 8.50401C5.68927 8.50405 5.68925 8.5041 5.68924 8.50415C5.68923 8.50419 5.68922 8.50424 5.68921 8.50429C5.6892 8.50433 5.68918 8.50438 5.68917 8.50443C5.68916 8.50447 5.68915 8.50452 5.68914 8.50457C5.68913 8.50462 5.68911 8.50466 5.6891 8.50471C5.68909 8.50476 5.68908 8.5048 5.68907 8.50485C5.68906 8.5049 5.68904 8.50494 5.68903 8.50499C5.68902 8.50504 5.68901 8.50508 5.689 8.50513C5.68898 8.50518 5.68897 8.50522 5.68896 8.50527C5.68895 8.50532 5.68894 8.50537 5.68893 8.50541C5.68891 8.50546 5.6889 8.50551 5.68889 8.50555C5.68888 8.5056 5.68887 8.50565 5.68886 8.50569C5.68884 8.50574 5.68883 8.50579 5.68882 8.50583C5.68881 8.50588 5.6888 8.50593 5.68879 8.50597C5.68877 8.50602 5.68876 8.50607 5.68875 8.50612C5.68874 8.50616 5.68873 8.50621 5.68872 8.50626C5.6887 8.5063 5.68869 8.50635 5.68868 8.5064C5.68867 8.50644 5.68866 8.50649 5.68865 8.50654C5.68863 8.50658 5.68862 8.50663 5.68861 8.50668C5.6886 8.50672 5.68859 8.50677 5.68857 8.50682C5.68856 8.50687 5.68855 8.50691 5.68854 8.50696C5.68853 8.50701 5.68852 8.50705 5.6885 8.5071C5.68849 8.50715 5.68848 8.50719 5.68847 8.50724C5.68846 8.50729 5.68845 8.50733 5.68843 8.50738C5.68842 8.50743 5.68841 8.50747 5.6884 8.50752C5.68839 8.50757 5.68838 8.50762 5.68836 8.50766C5.68835 8.50771 5.68834 8.50776 5.68833 8.5078C5.68832 8.50785 5.68831 8.5079 5.68829 8.50794C5.68828 8.50799 5.68827 8.50804 5.68826 8.50808C5.68825 8.50813 5.68823 8.50818 5.68822 8.50822C5.68821 8.50827 5.6882 8.50832 5.68819 8.50837C5.68818 8.50841 5.68816 8.50846 5.68815 8.50851C5.68814 8.50855 5.68813 8.5086 5.68812 8.50865C5.68811 8.50869 5.68809 8.50874 5.68808 8.50879C5.68807 8.50883 5.68806 8.50888 5.68805 8.50893C5.68804 8.50897 5.68802 8.50902 5.68801 8.50907C5.688 8.50912 5.68799 8.50916 5.68798 8.50921C5.68797 8.50926 5.68795 8.5093 5.68794 8.50935C5.68793 8.5094 5.68792 8.50944 5.68791 8.50949C5.6879 8.50954 5.68788 8.50958 5.68787 8.50963C5.68786 8.50968 5.68785 8.50972 5.68784 8.50977C5.68782 8.50982 5.68781 8.50987 5.6878 8.50991C5.68779 8.50996 5.68778 8.51001 5.68777 8.51005C5.68775 8.5101 5.68774 8.51015 5.68773 8.51019C5.68772 8.51024 5.68771 8.51029 5.6877 8.51033C5.68768 8.51038 5.68767 8.51043 5.68766 8.51047C5.68765 8.51052 5.68764 8.51057 5.68763 8.51062C5.68761 8.51066 5.6876 8.51071 5.68759 8.51076C5.68758 8.5108 5.68757 8.51085 5.68756 8.5109C5.68754 8.51094 5.68753 8.51099 5.68752 8.51104C5.68751 8.51108 5.6875 8.51113 5.68748 8.51118C5.68747 8.51122 5.68746 8.51127 5.68745 8.51132C5.68744 8.51137 5.68743 8.51141 5.68741 8.51146C5.6874 8.51151 5.68739 8.51155 5.68738 8.5116C5.68737 8.51165 5.68736 8.51169 5.68734 8.51174C5.68733 8.51179 5.68732 8.51183 5.68731 8.51188C5.6873 8.51193 5.68729 8.51197 5.68727 8.51202C5.68726 8.51207 5.68725 8.51212 5.68724 8.51216C5.68723 8.51221 5.68722 8.51226 5.6872 8.5123C5.68719 8.51235 5.68718 8.5124 5.68717 8.51244C5.68716 8.51249 5.68715 8.51254 5.68713 8.51258C5.68712 8.51263 5.68711 8.51268 5.6871 8.51272C5.68709 8.51277 5.68707 8.51282 5.68706 8.51287C5.68705 8.51291 5.68704 8.51296 5.68703 8.51301C5.68702 8.51305 5.687 8.5131 5.68699 8.51315C5.68698 8.51319 5.68697 8.51324 5.68696 8.51329C5.68695 8.51333 5.68693 8.51338 5.68692 8.51343C5.68691 8.51347 5.6869 8.51352 5.68689 8.51357C5.68688 8.51362 5.68686 8.51366 5.68685 8.51371C5.68684 8.51376 5.68683 8.5138 5.68682 8.51385C5.68681 8.5139 5.68679 8.51394 5.68678 8.51399C5.68677 8.51404 5.68676 8.51408 5.68675 8.51413C5.68673 8.51418 5.68672 8.51422 5.68671 8.51427C5.6867 8.51432 5.68669 8.51437 5.68668 8.51441C5.68666 8.51446 5.68665 8.51451 5.68664 8.51455C5.68663 8.5146 5.68662 8.51465 5.68661 8.51469C5.68659 8.51474 5.68658 8.51479 5.68657 8.51483C5.68656 8.51488 5.68655 8.51493 5.68654 8.51497C5.68652 8.51502 5.68651 8.51507 5.6865 8.51512C5.68649 8.51516 5.68648 8.51521 5.68647 8.51526C5.68645 8.5153 5.68644 8.51535 5.68643 8.5154C5.68642 8.51544 5.68641 8.51549 5.6864 8.51554C5.68638 8.51558 5.68637 8.51563 5.68636 8.51568C5.68635 8.51572 5.68634 8.51577 5.68632 8.51582C5.68631 8.51587 5.6863 8.51591 5.68629 8.51596C5.68628 8.51601 5.68627 8.51605 5.68625 8.5161C5.68624 8.51615 5.68623 8.51619 5.68622 8.51624C5.68621 8.51629 5.6862 8.51633 5.68618 8.51638C5.68617 8.51643 5.68616 8.51647 5.68615 8.51652C5.68614 8.51657 5.68613 8.51662 5.68611 8.51666C5.6861 8.51671 5.68609 8.51676 5.68608 8.5168C5.68607 8.51685 5.68606 8.5169 5.68604 8.51694C5.68603 8.51699 5.68602 8.51704 5.68601 8.51708C5.686 8.51713 5.68599 8.51718 5.68597 8.51722C5.68596 8.51727 5.68595 8.51732 5.68594 8.51737C5.68593 8.51741 5.68591 8.51746 5.6859 8.51751C5.68589 8.51755 5.68588 8.5176 5.68587 8.51765C5.68586 8.51769 5.68584 8.51774 5.68583 8.51779C5.68582 8.51783 5.68581 8.51788 5.6858 8.51793C5.68579 8.51797 5.68577 8.51802 5.68576 8.51807C5.68575 8.51812 5.68574 8.51816 5.68573 8.51821C5.68572 8.51826 5.6857 8.5183 5.68569 8.51835C5.68568 8.5184 5.68567 8.51844 5.68566 8.51849C5.68565 8.51854 5.68563 8.51858 5.68562 8.51863C5.68561 8.51868 5.6856 8.51872 5.68559 8.51877C5.68557 8.51882 5.68556 8.51887 5.68555 8.51891C5.68554 8.51896 5.68553 8.51901 5.68552 8.51905C5.6855 8.5191 5.68549 8.51915 5.68548 8.51919C5.68547 8.51924 5.68546 8.51929 5.68545 8.51933C5.68543 8.51938 5.68542 8.51943 5.68541 8.51947C5.6854 8.51952 5.68539 8.51957 5.68538 8.51962C5.68536 8.51966 5.68535 8.51971 5.68534 8.51976C5.68533 8.5198 5.68532 8.51985 5.68531 8.5199C5.68529 8.51994 5.68528 8.51999 5.68527 8.52004C5.68526 8.52008 5.68525 8.52013 5.68524 8.52018C5.68522 8.52022 5.68521 8.52027 5.6852 8.52032C5.68519 8.52037 5.68518 8.52041 5.68516 8.52046C5.68515 8.52051 5.68514 8.52055 5.68513 8.5206C5.68512 8.52065 5.68511 8.52069 5.68509 8.52074C5.68508 8.52079 5.68507 8.52083 5.68506 8.52088C5.68505 8.52093 5.68504 8.52097 5.68502 8.52102C5.68501 8.52107 5.685 8.52112 5.68499 8.52116C5.68498 8.52121 5.68497 8.52126 5.68495 8.5213C5.68494 8.52135 5.68493 8.5214 5.68492 8.52144C5.68491 8.52149 5.6849 8.52154 5.68488 8.52158C5.68487 8.52163 5.68486 8.52168 5.68485 8.52172C5.68484 8.52177 5.68482 8.52182 5.68481 8.52187C5.6848 8.52191 5.68479 8.52196 5.68478 8.52201C5.68477 8.52205 5.68475 8.5221 5.68474 8.52215C5.68473 8.52219 5.68472 8.52224 5.68471 8.52229C5.6847 8.52233 5.68468 8.52238 5.68467 8.52243C5.68466 8.52247 5.68465 8.52252 5.68464 8.52257C5.68463 8.52262 5.68461 8.52266 5.6846 8.52271C5.68459 8.52276 5.68458 8.5228 5.68457 8.52285C5.68456 8.5229 5.68454 8.52294 5.68453 8.52299C5.68452 8.52304 5.68451 8.52308 5.6845 8.52313C5.68449 8.52318 5.68447 8.52322 5.68446 8.52327C5.68445 8.52332 5.68444 8.52337 5.68443 8.52341C5.68441 8.52346 5.6844 8.52351 5.68439 8.52355C5.68438 8.5236 5.68437 8.52365 5.68436 8.52369C5.68434 8.52374 5.68433 8.52379 5.68432 8.52383C5.68431 8.52388 5.6843 8.52393 5.68429 8.52397C5.68427 8.52402 5.68426 8.52407 5.68425 8.52412C5.68424 8.52416 5.68423 8.52421 5.68422 8.52426C5.6842 8.5243 5.68419 8.52435 5.68418 8.5244C5.68417 8.52444 5.68416 8.52449 5.68415 8.52454C5.68413 8.52458 5.68412 8.52463 5.68411 8.52468C5.6841 8.52472 5.68409 8.52477 5.68407 8.52482C5.68406 8.52487 5.68405 8.52491 5.68404 8.52496C5.68403 8.52501 5.68402 8.52505 5.684 8.5251C5.68399 8.52515 5.68398 8.52519 5.68397 8.52524C5.68396 8.52529 5.68395 8.52533 5.68393 8.52538C5.68392 8.52543 5.68391 8.52547 5.6839 8.52552C5.68389 8.52557 5.68388 8.52562 5.68386 8.52566C5.68385 8.52571 5.68384 8.52576 5.68383 8.5258C5.68382 8.52585 5.68381 8.5259 5.68379 8.52594C5.68378 8.52599 5.68377 8.52604 5.68376 8.52608C5.68375 8.52613 5.68374 8.52618 5.68372 8.52622C5.68371 8.52627 5.6837 8.52632 5.68369 8.52637C5.68368 8.52641 5.68366 8.52646 5.68365 8.52651C5.68364 8.52655 5.68363 8.5266 5.68362 8.52665C5.68361 8.52669 5.68359 8.52674 5.68358 8.52679C5.68357 8.52683 5.68356 8.52688 5.68355 8.52693C5.68354 8.52697 5.68352 8.52702 5.68351 8.52707C5.6835 8.52712 5.68349 8.52716 5.68348 8.52721C5.68347 8.52726 5.68345 8.5273 5.68344 8.52735C5.68343 8.5274 5.68342 8.52744 5.68341 8.52749C5.6834 8.52754 5.68338 8.52758 5.68337 8.52763C5.68336 8.52768 5.68335 8.52772 5.68334 8.52777C5.68332 8.52782 5.68331 8.52787 5.6833 8.52791C5.68329 8.52796 5.68328 8.52801 5.68327 8.52805C5.68325 8.5281 5.68324 8.52815 5.68323 8.52819C5.68322 8.52824 5.68321 8.52829 5.6832 8.52833C5.68318 8.52838 5.68317 8.52843 5.68316 8.52847C5.68315 8.52852 5.68314 8.52857 5.68313 8.52862C5.68311 8.52866 5.6831 8.52871 5.68309 8.52876C5.68308 8.5288 5.68307 8.52885 5.68306 8.5289C5.68304 8.52894 5.68303 8.52899 5.68302 8.52904C5.68301 8.52908 5.683 8.52913 5.68299 8.52918C5.68297 8.52922 5.68296 8.52927 5.68295 8.52932C5.68294 8.52937 5.68293 8.52941 5.68291 8.52946C5.6829 8.52951 5.68289 8.52955 5.68288 8.5296C5.68287 8.52965 5.68286 8.52969 5.68284 8.52974C5.68283 8.52979 5.68282 8.52983 5.68281 8.52988C5.6828 8.52993 5.68279 8.52997 5.68277 8.53002C5.68276 8.53007 5.68275 8.53012 5.68274 8.53016C5.68273 8.53021 5.68272 8.53026 5.6827 8.5303C5.68269 8.53035 5.68268 8.5304 5.68267 8.53044C5.68266 8.53049 5.68265 8.53054 5.68263 8.53058C5.68262 8.53063 5.68261 8.53068 5.6826 8.53072C5.68259 8.53077 5.68257 8.53082 5.68256 8.53087C5.68255 8.53091 5.68254 8.53096 5.68253 8.53101C5.68252 8.53105 5.6825 8.5311 5.68249 8.53115C5.68248 8.53119 5.68247 8.53124 5.68246 8.53129C5.68245 8.53133 5.68243 8.53138 5.68242 8.53143C5.68241 8.53147 5.6824 8.53152 5.68239 8.53157C5.68238 8.53162 5.68236 8.53166 5.68235 8.53171C5.68234 8.53176 5.68233 8.5318 5.68232 8.53185C5.68231 8.5319 5.68229 8.53194 5.68228 8.53199C5.68227 8.53204 5.68226 8.53208 5.68225 8.53213C5.68224 8.53218 5.68222 8.53222 5.68221 8.53227C5.6822 8.53232 5.68219 8.53237 5.68218 8.53241C5.68216 8.53246 5.68215 8.53251 5.68214 8.53255C5.68213 8.5326 5.68212 8.53265 5.68211 8.53269C5.68209 8.53274 5.68208 8.53279 5.68207 8.53283C5.68206 8.53288 5.68205 8.53293 5.68204 8.53297C5.68202 8.53302 5.68201 8.53307 5.682 8.53312C5.68199 8.53316 5.68198 8.53321 5.68197 8.53326C5.68195 8.5333 5.68194 8.53335 5.68193 8.5334C5.68192 8.53344 5.68191 8.53349 5.6819 8.53354C5.68188 8.53358 5.68187 8.53363 5.68186 8.53368C5.68185 8.53372 5.68184 8.53377 5.68182 8.53382C5.68181 8.53387 5.6818 8.53391 5.68179 8.53396C5.68178 8.53401 5.68177 8.53405 5.68175 8.5341C5.68174 8.53415 5.68173 8.53419 5.68172 8.53424C5.68171 8.53429 5.6817 8.53433 5.68168 8.53438C5.68167 8.53443 5.68166 8.53447 5.68165 8.53452C5.68164 8.53457 5.68163 8.53462 5.68161 8.53466C5.6816 8.53471 5.68159 8.53476 5.68158 8.5348C5.68157 8.53485 5.68156 8.5349 5.68154 8.53494C5.68153 8.53499 5.68152 8.53504 5.68151 8.53508C5.6815 8.53513 5.68149 8.53518 5.68147 8.53522C5.68146 8.53527 5.68145 8.53532 5.68144 8.53537C5.68143 8.53541 5.68141 8.53546 5.6814 8.53551C5.68139 8.53555 5.68138 8.5356 5.68137 8.53565C5.68136 8.53569 5.68134 8.53574 5.68133 8.53579C5.68132 8.53583 5.68131 8.53588 5.6813 8.53593C5.68129 8.53597 5.68127 8.53602 5.68126 8.53607C5.68125 8.53612 5.68124 8.53616 5.68123 8.53621C5.68122 8.53626 5.6812 8.5363 5.68119 8.53635C5.68118 8.5364 5.68117 8.53644 5.68116 8.53649C5.68115 8.53654 5.68113 8.53658 5.68112 8.53663C5.68111 8.53668 5.6811 8.53672 5.68109 8.53677C5.68107 8.53682 5.68106 8.53687 5.68105 8.53691C5.68104 8.53696 5.68103 8.53701 5.68102 8.53705C5.681 8.5371 5.68099 8.53715 5.68098 8.53719C5.68097 8.53724 5.68096 8.53729 5.68095 8.53733C5.68093 8.53738 5.68092 8.53743 5.68091 8.53747C5.6809 8.53752 5.68089 8.53757 5.68088 8.53762C5.68086 8.53766 5.68085 8.53771 5.68084 8.53776C5.68083 8.5378 5.68082 8.53785 5.68081 8.5379C5.68079 8.53794 5.68078 8.53799 5.68077 8.53804C5.68076 8.53808 5.68075 8.53813 5.68074 8.53818C5.68072 8.53822 5.68071 8.53827 5.6807 8.53832C5.68069 8.53837 5.68068 8.53841 5.68066 8.53846C5.68065 8.53851 5.68064 8.53855 5.68063 8.5386C5.68062 8.53865 5.68061 8.53869 5.68059 8.53874C5.68058 8.53879 5.68057 8.53883 5.68056 8.53888C5.68055 8.53893 5.68054 8.53897 5.68052 8.53902C5.68051 8.53907 5.6805 8.53912 5.68049 8.53916C5.68048 8.53921 5.68047 8.53926 5.68045 8.5393C5.68044 8.53935 5.68043 8.5394 5.68042 8.53944C5.68041 8.53949 5.6804 8.53954 5.68038 8.53958C5.68037 8.53963 5.68036 8.53968 5.68035 8.53972C5.68034 8.53977 5.68032 8.53982 5.68031 8.53987C5.6803 8.53991 5.68029 8.53996 5.68028 8.54001C5.68027 8.54005 5.68025 8.5401 5.68024 8.54015C5.68023 8.54019 5.68022 8.54024 5.68021 8.54029C5.6802 8.54033 5.68018 8.54038 5.68017 8.54043C5.68016 8.54047 5.68015 8.54052 5.68014 8.54057C5.68013 8.54062 5.68011 8.54066 5.6801 8.54071C5.68009 8.54076 5.68008 8.5408 5.68007 8.54085C5.68006 8.5409 5.68004 8.54094 5.68003 8.54099C5.68002 8.54104 5.68001 8.54108 5.68 8.54113C5.67999 8.54118 5.67997 8.54122 5.67996 8.54127C5.67995 8.54132 5.67994 8.54137 5.67993 8.54141C5.67991 8.54146 5.6799 8.54151 5.67989 8.54155C5.67988 8.5416 5.67987 8.54165 5.67986 8.54169C5.67984 8.54174 5.67983 8.54179 5.67982 8.54183C5.67981 8.54188 5.6798 8.54193 5.67979 8.54197C5.67977 8.54202 5.67976 8.54207 5.67975 8.54212C5.67974 8.54216 5.67973 8.54221 5.67972 8.54226C5.6797 8.5423 5.67969 8.54235 5.67968 8.5424C5.67967 8.54244 5.67966 8.54249 5.67965 8.54254C5.67963 8.54258 5.67962 8.54263 5.67961 8.54268C5.6796 8.54272 5.67959 8.54277 5.67957 8.54282C5.67956 8.54287 5.67955 8.54291 5.67954 8.54296C5.67953 8.54301 5.67952 8.54305 5.6795 8.5431C5.67949 8.54315 5.67948 8.54319 5.67947 8.54324C5.67946 8.54329 5.67945 8.54333 5.67943 8.54338C5.67942 8.54343 5.67941 8.54347 5.6794 8.54352C5.67939 8.54357 5.67938 8.54362 5.67936 8.54366C5.67935 8.54371 5.67934 8.54376 5.67933 8.5438C5.67932 8.54385 5.67931 8.5439 5.67929 8.54394C5.67928 8.54399 5.67927 8.54404 5.67926 8.54408C5.67925 8.54413 5.67924 8.54418 5.67922 8.54422C5.67921 8.54427 5.6792 8.54432 5.67919 8.54437C5.67918 8.54441 5.67916 8.54446 5.67915 8.54451C5.67914 8.54455 5.67913 8.5446 5.67912 8.54465C5.67911 8.54469 5.67909 8.54474 5.67908 8.54479C5.67907 8.54483 5.67906 8.54488 5.67905 8.54493C5.67904 8.54497 5.67902 8.54502 5.67901 8.54507C5.679 8.54512 5.67899 8.54516 5.67898 8.54521C5.67897 8.54526 5.67895 8.5453 5.67894 8.54535C5.67893 8.5454 5.67892 8.54544 5.67891 8.54549C5.6789 8.54554 5.67888 8.54558 5.67887 8.54563C5.67886 8.54568 5.67885 8.54572 5.67884 8.54577C5.67882 8.54582 5.67881 8.54587 5.6788 8.54591C5.67879 8.54596 5.67878 8.54601 5.67877 8.54605C5.67875 8.5461 5.67874 8.54615 5.67873 8.54619C5.67872 8.54624 5.67871 8.54629 5.6787 8.54633C5.67868 8.54638 5.67867 8.54643 5.67866 8.54647C5.67865 8.54652 5.67864 8.54657 5.67863 8.54662C5.67861 8.54666 5.6786 8.54671 5.67859 8.54676C5.67858 8.5468 5.67857 8.54685 5.67856 8.5469C5.67854 8.54694 5.67853 8.54699 5.67852 8.54704C5.67851 8.54708 5.6785 8.54713 5.67849 8.54718C5.67847 8.54722 5.67846 8.54727 5.67845 8.54732C5.67844 8.54737 5.67843 8.54741 5.67841 8.54746C5.6784 8.54751 5.67839 8.54755 5.67838 8.5476C5.67837 8.54765 5.67836 8.54769 5.67834 8.54774C5.67833 8.54779 5.67832 8.54783 5.67831 8.54788C5.6783 8.54793 5.67829 8.54797 5.67827 8.54802C5.67826 8.54807 5.67825 8.54812 5.67824 8.54816C5.67823 8.54821 5.67822 8.54826 5.6782 8.5483C5.67819 8.54835 5.67818 8.5484 5.67817 8.54844C5.67816 8.54849 5.67815 8.54854 5.67813 8.54858C5.67812 8.54863 5.67811 8.54868 5.6781 8.54872C5.67809 8.54877 5.67807 8.54882 5.67806 8.54887C5.67805 8.54891 5.67804 8.54896 5.67803 8.54901C5.67802 8.54905 5.678 8.5491 5.67799 8.54915C5.67798 8.54919 5.67797 8.54924 5.67796 8.54929C5.67795 8.54933 5.67793 8.54938 5.67792 8.54943C5.67791 8.54947 5.6779 8.54952 5.67789 8.54957C5.67788 8.54962 5.67786 8.54966 5.67785 8.54971C5.67784 8.54976 5.67783 8.5498 5.67782 8.54985C5.67781 8.5499 5.67779 8.54994 5.67778 8.54999C5.67777 8.55004 5.67776 8.55008 5.67775 8.55013C5.67774 8.55018 5.67772 8.55022 5.67771 8.55027C5.6777 8.55032 5.67769 8.55037 5.67768 8.55041C5.67766 8.55046 5.67765 8.55051 5.67764 8.55055C5.67763 8.5506 5.67762 8.55065 5.67761 8.55069C5.67759 8.55074 5.67758 8.55079 5.67757 8.55083C5.67756 8.55088 5.67755 8.55093 5.67754 8.55097C5.67752 8.55102 5.67751 8.55107 5.6775 8.55112C5.67749 8.55116 5.67748 8.55121 5.67747 8.55126C5.67745 8.5513 5.67744 8.55135 5.67743 8.5514C5.67742 8.55144 5.67741 8.55149 5.6774 8.55154C5.67738 8.55158 5.67737 8.55163 5.67736 8.55168C5.67735 8.55172 5.67734 8.55177 5.67732 8.55182C5.67731 8.55187 5.6773 8.55191 5.67729 8.55196C5.67728 8.55201 5.67727 8.55205 5.67725 8.5521C5.67724 8.55215 5.67723 8.55219 5.67722 8.55224C5.67721 8.55229 5.6772 8.55233 5.67718 8.55238C5.67717 8.55243 5.67716 8.55247 5.67715 8.55252C5.67714 8.55257 5.67713 8.55262 5.67711 8.55266C5.6771 8.55271 5.67709 8.55276 5.67708 8.5528C5.67707 8.55285 5.67706 8.5529 5.67704 8.55294C5.67703 8.55299 5.67702 8.55304 5.67701 8.55308C5.677 8.55313 5.67699 8.55318 5.67697 8.55322C5.67696 8.55327 5.67695 8.55332 5.67694 8.55337C5.67693 8.55341 5.67691 8.55346 5.6769 8.55351C5.67689 8.55355 5.67688 8.5536 5.67687 8.55365C5.67686 8.55369 5.67684 8.55374 5.67683 8.55379C5.67682 8.55383 5.67681 8.55388 5.6768 8.55393C5.67679 8.55397 5.67677 8.55402 5.67676 8.55407C5.67675 8.55412 5.67674 8.55416 5.67673 8.55421C5.67672 8.55426 5.6767 8.5543 5.67669 8.55435C5.67668 8.5544 5.67667 8.55444 5.67666 8.55449C5.67665 8.55454 5.67663 8.55458 5.67662 8.55463C5.67661 8.55468 5.6766 8.55472 5.67659 8.55477C5.67657 8.55482 5.67656 8.55487 5.67655 8.55491C5.67654 8.55496 5.67653 8.55501 5.67652 8.55505C5.6765 8.5551 5.67649 8.55515 5.67648 8.55519C5.67647 8.55524 5.67646 8.55529 5.67645 8.55533C5.67643 8.55538 5.67642 8.55543 5.67641 8.55547C5.6764 8.55552 5.67639 8.55557 5.67638 8.55562C5.67636 8.55566 5.67635 8.55571 5.67634 8.55576C5.67633 8.5558 5.67632 8.55585 5.67631 8.5559C5.67629 8.55594 5.67628 8.55599 5.67627 8.55604C5.67626 8.55608 5.67625 8.55613 5.67624 8.55618C5.67622 8.55622 5.67621 8.55627 5.6762 8.55632C5.67619 8.55637 5.67618 8.55641 5.67616 8.55646C5.67615 8.55651 5.67614 8.55655 5.67613 8.5566C5.67612 8.55665 5.67611 8.55669 5.67609 8.55674C5.67608 8.55679 5.67607 8.55683 5.67606 8.55688C5.67605 8.55693 5.67604 8.55697 5.67602 8.55702C5.67601 8.55707 5.676 8.55712 5.67599 8.55716C5.67598 8.55721 5.67597 8.55726 5.67595 8.5573C5.67594 8.55735 5.67593 8.5574 5.67592 8.55744C5.67591 8.55749 5.6759 8.55754 5.67588 8.55758C5.67587 8.55763 5.67586 8.55768 5.67585 8.55772C5.67584 8.55777 5.67582 8.55782 5.67581 8.55787C5.6758 8.55791 5.67579 8.55796 5.67578 8.55801C5.67577 8.55805 5.67575 8.5581 5.67574 8.55815C5.67573 8.55819 5.67572 8.55824 5.67571 8.55829C5.6757 8.55833 5.67568 8.55838 5.67567 8.55843C5.67566 8.55847 5.67565 8.55852 5.67564 8.55857C5.67563 8.55862 5.67561 8.55866 5.6756 8.55871C5.67559 8.55876 5.67558 8.5588 5.67557 8.55885C5.67556 8.5589 5.67554 8.55894 5.67553 8.55899C5.67552 8.55904 5.67551 8.55908 5.6755 8.55913C5.67549 8.55918 5.67547 8.55922 5.67546 8.55927C5.67545 8.55932 5.67544 8.55937 5.67543 8.55941C5.67541 8.55946 5.6754 8.55951 5.67539 8.55955C5.67538 8.5596 5.67537 8.55965 5.67536 8.55969C5.67534 8.55974 5.67533 8.55979 5.67532 8.55983C5.67531 8.55988 5.6753 8.55993 5.67529 8.55997C5.67527 8.56002 5.67526 8.56007 5.67525 8.56012C5.67524 8.56016 5.67523 8.56021 5.67522 8.56026C5.6752 8.5603 5.67519 8.56035 5.67518 8.5604C5.67517 8.56044 5.67516 8.56049 5.67515 8.56054C5.67513 8.56058 5.67512 8.56063 5.67511 8.56068C5.6751 8.56072 5.67509 8.56077 5.67507 8.56082C5.67506 8.56087 5.67505 8.56091 5.67504 8.56096C5.67503 8.56101 5.67502 8.56105 5.675 8.5611C5.67499 8.56115 5.67498 8.56119 5.67497 8.56124L6.25706 8.70676C6.25707 8.70671 6.25708 8.70667 6.25709 8.70662C6.2571 8.70657 6.25711 8.70653 6.25713 8.70648C6.25714 8.70643 6.25715 8.70638 6.25716 8.70634C6.25717 8.70629 6.25718 8.70624 6.2572 8.7062C6.25721 8.70615 6.25722 8.7061 6.25723 8.70606C6.25724 8.70601 6.25725 8.70596 6.25727 8.70592C6.25728 8.70587 6.25729 8.70582 6.2573 8.70578C6.25731 8.70573 6.25733 8.70568 6.25734 8.70563C6.25735 8.70559 6.25736 8.70554 6.25737 8.70549C6.25738 8.70545 6.2574 8.7054 6.25741 8.70535C6.25742 8.70531 6.25743 8.70526 6.25744 8.70521C6.25745 8.70517 6.25747 8.70512 6.25748 8.70507C6.25749 8.70503 6.2575 8.70498 6.25751 8.70493C6.25752 8.70488 6.25754 8.70484 6.25755 8.70479C6.25756 8.70474 6.25757 8.7047 6.25758 8.70465C6.25759 8.7046 6.25761 8.70456 6.25762 8.70451C6.25763 8.70446 6.25764 8.70442 6.25765 8.70437C6.25766 8.70432 6.25768 8.70428 6.25769 8.70423C6.2577 8.70418 6.25771 8.70413 6.25772 8.70409C6.25774 8.70404 6.25775 8.70399 6.25776 8.70395C6.25777 8.7039 6.25778 8.70385 6.25779 8.70381C6.25781 8.70376 6.25782 8.70371 6.25783 8.70367C6.25784 8.70362 6.25785 8.70357 6.25786 8.70353C6.25788 8.70348 6.25789 8.70343 6.2579 8.70338C6.25791 8.70334 6.25792 8.70329 6.25793 8.70324C6.25795 8.7032 6.25796 8.70315 6.25797 8.7031C6.25798 8.70306 6.25799 8.70301 6.258 8.70296C6.25802 8.70292 6.25803 8.70287 6.25804 8.70282C6.25805 8.70278 6.25806 8.70273 6.25808 8.70268C6.25809 8.70263 6.2581 8.70259 6.25811 8.70254C6.25812 8.70249 6.25813 8.70245 6.25815 8.7024C6.25816 8.70235 6.25817 8.70231 6.25818 8.70226C6.25819 8.70221 6.2582 8.70217 6.25822 8.70212C6.25823 8.70207 6.25824 8.70203 6.25825 8.70198C6.25826 8.70193 6.25827 8.70188 6.25829 8.70184C6.2583 8.70179 6.25831 8.70174 6.25832 8.7017C6.25833 8.70165 6.25834 8.7016 6.25836 8.70156C6.25837 8.70151 6.25838 8.70146 6.25839 8.70142C6.2584 8.70137 6.25841 8.70132 6.25843 8.70128C6.25844 8.70123 6.25845 8.70118 6.25846 8.70113C6.25847 8.70109 6.25849 8.70104 6.2585 8.70099C6.25851 8.70095 6.25852 8.7009 6.25853 8.70085C6.25854 8.70081 6.25856 8.70076 6.25857 8.70071C6.25858 8.70067 6.25859 8.70062 6.2586 8.70057C6.25861 8.70053 6.25863 8.70048 6.25864 8.70043C6.25865 8.70038 6.25866 8.70034 6.25867 8.70029C6.25868 8.70024 6.2587 8.7002 6.25871 8.70015C6.25872 8.7001 6.25873 8.70006 6.25874 8.70001C6.25875 8.69996 6.25877 8.69992 6.25878 8.69987C6.25879 8.69982 6.2588 8.69978 6.25881 8.69973C6.25883 8.69968 6.25884 8.69963 6.25885 8.69959C6.25886 8.69954 6.25887 8.69949 6.25888 8.69945C6.2589 8.6994 6.25891 8.69935 6.25892 8.69931C6.25893 8.69926 6.25894 8.69921 6.25895 8.69917C6.25897 8.69912 6.25898 8.69907 6.25899 8.69903C6.259 8.69898 6.25901 8.69893 6.25902 8.69888C6.25904 8.69884 6.25905 8.69879 6.25906 8.69874C6.25907 8.6987 6.25908 8.69865 6.25909 8.6986C6.25911 8.69856 6.25912 8.69851 6.25913 8.69846C6.25914 8.69842 6.25915 8.69837 6.25916 8.69832C6.25918 8.69828 6.25919 8.69823 6.2592 8.69818C6.25921 8.69813 6.25922 8.69809 6.25924 8.69804C6.25925 8.69799 6.25926 8.69795 6.25927 8.6979C6.25928 8.69785 6.25929 8.69781 6.25931 8.69776C6.25932 8.69771 6.25933 8.69767 6.25934 8.69762C6.25935 8.69757 6.25936 8.69753 6.25938 8.69748C6.25939 8.69743 6.2594 8.69738 6.25941 8.69734C6.25942 8.69729 6.25943 8.69724 6.25945 8.6972C6.25946 8.69715 6.25947 8.6971 6.25948 8.69706C6.25949 8.69701 6.2595 8.69696 6.25952 8.69692C6.25953 8.69687 6.25954 8.69682 6.25955 8.69678C6.25956 8.69673 6.25958 8.69668 6.25959 8.69663C6.2596 8.69659 6.25961 8.69654 6.25962 8.69649C6.25963 8.69645 6.25965 8.6964 6.25966 8.69635C6.25967 8.69631 6.25968 8.69626 6.25969 8.69621C6.2597 8.69617 6.25972 8.69612 6.25973 8.69607C6.25974 8.69603 6.25975 8.69598 6.25976 8.69593C6.25977 8.69588 6.25979 8.69584 6.2598 8.69579C6.25981 8.69574 6.25982 8.6957 6.25983 8.69565C6.25984 8.6956 6.25986 8.69556 6.25987 8.69551C6.25988 8.69546 6.25989 8.69542 6.2599 8.69537C6.25991 8.69532 6.25993 8.69528 6.25994 8.69523C6.25995 8.69518 6.25996 8.69513 6.25997 8.69509C6.25999 8.69504 6.26 8.69499 6.26001 8.69495C6.26002 8.6949 6.26003 8.69485 6.26004 8.69481C6.26006 8.69476 6.26007 8.69471 6.26008 8.69467C6.26009 8.69462 6.2601 8.69457 6.26011 8.69453C6.26013 8.69448 6.26014 8.69443 6.26015 8.69438C6.26016 8.69434 6.26017 8.69429 6.26018 8.69424C6.2602 8.6942 6.26021 8.69415 6.26022 8.6941C6.26023 8.69406 6.26024 8.69401 6.26025 8.69396C6.26027 8.69392 6.26028 8.69387 6.26029 8.69382C6.2603 8.69378 6.26031 8.69373 6.26033 8.69368C6.26034 8.69363 6.26035 8.69359 6.26036 8.69354C6.26037 8.69349 6.26038 8.69345 6.2604 8.6934C6.26041 8.69335 6.26042 8.69331 6.26043 8.69326C6.26044 8.69321 6.26045 8.69317 6.26047 8.69312C6.26048 8.69307 6.26049 8.69303 6.2605 8.69298C6.26051 8.69293 6.26052 8.69288 6.26054 8.69284C6.26055 8.69279 6.26056 8.69274 6.26057 8.6927C6.26058 8.69265 6.26059 8.6926 6.26061 8.69256C6.26062 8.69251 6.26063 8.69246 6.26064 8.69242C6.26065 8.69237 6.26066 8.69232 6.26068 8.69228C6.26069 8.69223 6.2607 8.69218 6.26071 8.69213C6.26072 8.69209 6.26074 8.69204 6.26075 8.69199C6.26076 8.69195 6.26077 8.6919 6.26078 8.69185C6.26079 8.69181 6.26081 8.69176 6.26082 8.69171C6.26083 8.69167 6.26084 8.69162 6.26085 8.69157C6.26086 8.69153 6.26088 8.69148 6.26089 8.69143C6.2609 8.69138 6.26091 8.69134 6.26092 8.69129C6.26093 8.69124 6.26095 8.6912 6.26096 8.69115C6.26097 8.6911 6.26098 8.69106 6.26099 8.69101C6.261 8.69096 6.26102 8.69092 6.26103 8.69087C6.26104 8.69082 6.26105 8.69078 6.26106 8.69073C6.26108 8.69068 6.26109 8.69063 6.2611 8.69059C6.26111 8.69054 6.26112 8.69049 6.26113 8.69045C6.26115 8.6904 6.26116 8.69035 6.26117 8.69031C6.26118 8.69026 6.26119 8.69021 6.2612 8.69017C6.26122 8.69012 6.26123 8.69007 6.26124 8.69003C6.26125 8.68998 6.26126 8.68993 6.26127 8.68988C6.26129 8.68984 6.2613 8.68979 6.26131 8.68974C6.26132 8.6897 6.26133 8.68965 6.26134 8.6896C6.26136 8.68956 6.26137 8.68951 6.26138 8.68946C6.26139 8.68942 6.2614 8.68937 6.26141 8.68932C6.26143 8.68928 6.26144 8.68923 6.26145 8.68918C6.26146 8.68913 6.26147 8.68909 6.26149 8.68904C6.2615 8.68899 6.26151 8.68895 6.26152 8.6889C6.26153 8.68885 6.26154 8.68881 6.26156 8.68876C6.26157 8.68871 6.26158 8.68867 6.26159 8.68862C6.2616 8.68857 6.26161 8.68853 6.26163 8.68848C6.26164 8.68843 6.26165 8.68838 6.26166 8.68834C6.26167 8.68829 6.26168 8.68824 6.2617 8.6882C6.26171 8.68815 6.26172 8.6881 6.26173 8.68806C6.26174 8.68801 6.26175 8.68796 6.26177 8.68792C6.26178 8.68787 6.26179 8.68782 6.2618 8.68778C6.26181 8.68773 6.26183 8.68768 6.26184 8.68763C6.26185 8.68759 6.26186 8.68754 6.26187 8.68749C6.26188 8.68745 6.2619 8.6874 6.26191 8.68735C6.26192 8.68731 6.26193 8.68726 6.26194 8.68721C6.26195 8.68717 6.26197 8.68712 6.26198 8.68707C6.26199 8.68703 6.262 8.68698 6.26201 8.68693C6.26202 8.68688 6.26204 8.68684 6.26205 8.68679C6.26206 8.68674 6.26207 8.6867 6.26208 8.68665C6.26209 8.6866 6.26211 8.68656 6.26212 8.68651C6.26213 8.68646 6.26214 8.68642 6.26215 8.68637C6.26216 8.68632 6.26218 8.68628 6.26219 8.68623C6.2622 8.68618 6.26221 8.68613 6.26222 8.68609C6.26224 8.68604 6.26225 8.68599 6.26226 8.68595C6.26227 8.6859 6.26228 8.68585 6.26229 8.68581C6.26231 8.68576 6.26232 8.68571 6.26233 8.68567C6.26234 8.68562 6.26235 8.68557 6.26236 8.68553C6.26238 8.68548 6.26239 8.68543 6.2624 8.68538C6.26241 8.68534 6.26242 8.68529 6.26243 8.68524C6.26245 8.6852 6.26246 8.68515 6.26247 8.6851C6.26248 8.68506 6.26249 8.68501 6.2625 8.68496C6.26252 8.68492 6.26253 8.68487 6.26254 8.68482C6.26255 8.68478 6.26256 8.68473 6.26258 8.68468C6.26259 8.68463 6.2626 8.68459 6.26261 8.68454C6.26262 8.68449 6.26263 8.68445 6.26265 8.6844C6.26266 8.68435 6.26267 8.68431 6.26268 8.68426C6.26269 8.68421 6.2627 8.68417 6.26272 8.68412C6.26273 8.68407 6.26274 8.68403 6.26275 8.68398C6.26276 8.68393 6.26277 8.68388 6.26279 8.68384C6.2628 8.68379 6.26281 8.68374 6.26282 8.6837C6.26283 8.68365 6.26284 8.6836 6.26286 8.68356C6.26287 8.68351 6.26288 8.68346 6.26289 8.68342C6.2629 8.68337 6.26291 8.68332 6.26293 8.68328C6.26294 8.68323 6.26295 8.68318 6.26296 8.68313C6.26297 8.68309 6.26299 8.68304 6.263 8.68299C6.26301 8.68295 6.26302 8.6829 6.26303 8.68285C6.26304 8.68281 6.26306 8.68276 6.26307 8.68271C6.26308 8.68267 6.26309 8.68262 6.2631 8.68257C6.26311 8.68253 6.26313 8.68248 6.26314 8.68243C6.26315 8.68238 6.26316 8.68234 6.26317 8.68229C6.26318 8.68224 6.2632 8.6822 6.26321 8.68215C6.26322 8.6821 6.26323 8.68206 6.26324 8.68201C6.26325 8.68196 6.26327 8.68192 6.26328 8.68187C6.26329 8.68182 6.2633 8.68178 6.26331 8.68173C6.26333 8.68168 6.26334 8.68163 6.26335 8.68159C6.26336 8.68154 6.26337 8.68149 6.26338 8.68145C6.2634 8.6814 6.26341 8.68135 6.26342 8.68131C6.26343 8.68126 6.26344 8.68121 6.26345 8.68117C6.26347 8.68112 6.26348 8.68107 6.26349 8.68103C6.2635 8.68098 6.26351 8.68093 6.26352 8.68088C6.26354 8.68084 6.26355 8.68079 6.26356 8.68074C6.26357 8.6807 6.26358 8.68065 6.26359 8.6806C6.26361 8.68056 6.26362 8.68051 6.26363 8.68046C6.26364 8.68042 6.26365 8.68037 6.26366 8.68032C6.26368 8.68028 6.26369 8.68023 6.2637 8.68018C6.26371 8.68013 6.26372 8.68009 6.26374 8.68004C6.26375 8.67999 6.26376 8.67995 6.26377 8.6799C6.26378 8.67985 6.26379 8.67981 6.26381 8.67976C6.26382 8.67971 6.26383 8.67967 6.26384 8.67962C6.26385 8.67957 6.26386 8.67953 6.26388 8.67948C6.26389 8.67943 6.2639 8.67938 6.26391 8.67934C6.26392 8.67929 6.26393 8.67924 6.26395 8.6792C6.26396 8.67915 6.26397 8.6791 6.26398 8.67906C6.26399 8.67901 6.264 8.67896 6.26402 8.67892C6.26403 8.67887 6.26404 8.67882 6.26405 8.67878C6.26406 8.67873 6.26407 8.67868 6.26409 8.67863C6.2641 8.67859 6.26411 8.67854 6.26412 8.67849C6.26413 8.67845 6.26415 8.6784 6.26416 8.67835C6.26417 8.67831 6.26418 8.67826 6.26419 8.67821C6.2642 8.67817 6.26422 8.67812 6.26423 8.67807C6.26424 8.67803 6.26425 8.67798 6.26426 8.67793C6.26427 8.67788 6.26429 8.67784 6.2643 8.67779C6.26431 8.67774 6.26432 8.6777 6.26433 8.67765C6.26434 8.6776 6.26436 8.67756 6.26437 8.67751C6.26438 8.67746 6.26439 8.67742 6.2644 8.67737C6.26441 8.67732 6.26443 8.67728 6.26444 8.67723C6.26445 8.67718 6.26446 8.67713 6.26447 8.67709C6.26449 8.67704 6.2645 8.67699 6.26451 8.67695C6.26452 8.6769 6.26453 8.67685 6.26454 8.67681C6.26456 8.67676 6.26457 8.67671 6.26458 8.67667C6.26459 8.67662 6.2646 8.67657 6.26461 8.67653C6.26463 8.67648 6.26464 8.67643 6.26465 8.67638C6.26466 8.67634 6.26467 8.67629 6.26468 8.67624C6.2647 8.6762 6.26471 8.67615 6.26472 8.6761C6.26473 8.67606 6.26474 8.67601 6.26475 8.67596C6.26477 8.67592 6.26478 8.67587 6.26479 8.67582C6.2648 8.67578 6.26481 8.67573 6.26482 8.67568C6.26484 8.67563 6.26485 8.67559 6.26486 8.67554C6.26487 8.67549 6.26488 8.67545 6.2649 8.6754C6.26491 8.67535 6.26492 8.67531 6.26493 8.67526C6.26494 8.67521 6.26495 8.67517 6.26497 8.67512C6.26498 8.67507 6.26499 8.67503 6.265 8.67498C6.26501 8.67493 6.26502 8.67488 6.26504 8.67484C6.26505 8.67479 6.26506 8.67474 6.26507 8.6747C6.26508 8.67465 6.26509 8.6746 6.26511 8.67456C6.26512 8.67451 6.26513 8.67446 6.26514 8.67442C6.26515 8.67437 6.26516 8.67432 6.26518 8.67428C6.26519 8.67423 6.2652 8.67418 6.26521 8.67413C6.26522 8.67409 6.26524 8.67404 6.26525 8.67399C6.26526 8.67395 6.26527 8.6739 6.26528 8.67385C6.26529 8.67381 6.26531 8.67376 6.26532 8.67371C6.26533 8.67367 6.26534 8.67362 6.26535 8.67357C6.26536 8.67353 6.26538 8.67348 6.26539 8.67343C6.2654 8.67338 6.26541 8.67334 6.26542 8.67329C6.26543 8.67324 6.26545 8.6732 6.26546 8.67315C6.26547 8.6731 6.26548 8.67306 6.26549 8.67301C6.2655 8.67296 6.26552 8.67292 6.26553 8.67287C6.26554 8.67282 6.26555 8.67278 6.26556 8.67273C6.26557 8.67268 6.26559 8.67263 6.2656 8.67259C6.26561 8.67254 6.26562 8.67249 6.26563 8.67245C6.26565 8.6724 6.26566 8.67235 6.26567 8.67231C6.26568 8.67226 6.26569 8.67221 6.2657 8.67217C6.26572 8.67212 6.26573 8.67207 6.26574 8.67203C6.26575 8.67198 6.26576 8.67193 6.26577 8.67188C6.26579 8.67184 6.2658 8.67179 6.26581 8.67174C6.26582 8.6717 6.26583 8.67165 6.26584 8.6716C6.26586 8.67156 6.26587 8.67151 6.26588 8.67146C6.26589 8.67142 6.2659 8.67137 6.26591 8.67132C6.26593 8.67128 6.26594 8.67123 6.26595 8.67118C6.26596 8.67113 6.26597 8.67109 6.26599 8.67104C6.266 8.67099 6.26601 8.67095 6.26602 8.6709C6.26603 8.67085 6.26604 8.67081 6.26606 8.67076C6.26607 8.67071 6.26608 8.67067 6.26609 8.67062C6.2661 8.67057 6.26611 8.67053 6.26613 8.67048C6.26614 8.67043 6.26615 8.67038 6.26616 8.67034C6.26617 8.67029 6.26618 8.67024 6.2662 8.6702C6.26621 8.67015 6.26622 8.6701 6.26623 8.67006C6.26624 8.67001 6.26625 8.66996 6.26627 8.66992C6.26628 8.66987 6.26629 8.66982 6.2663 8.66978C6.26631 8.66973 6.26632 8.66968 6.26634 8.66963C6.26635 8.66959 6.26636 8.66954 6.26637 8.66949C6.26638 8.66945 6.2664 8.6694 6.26641 8.66935C6.26642 8.66931 6.26643 8.66926 6.26644 8.66921C6.26645 8.66917 6.26647 8.66912 6.26648 8.66907C6.26649 8.66903 6.2665 8.66898 6.26651 8.66893C6.26652 8.66888 6.26654 8.66884 6.26655 8.66879C6.26656 8.66874 6.26657 8.6687 6.26658 8.66865C6.26659 8.6686 6.26661 8.66856 6.26662 8.66851C6.26663 8.66846 6.26664 8.66842 6.26665 8.66837C6.26666 8.66832 6.26668 8.66828 6.26669 8.66823C6.2667 8.66818 6.26671 8.66813 6.26672 8.66809C6.26674 8.66804 6.26675 8.66799 6.26676 8.66795C6.26677 8.6679 6.26678 8.66785 6.26679 8.66781C6.26681 8.66776 6.26682 8.66771 6.26683 8.66767C6.26684 8.66762 6.26685 8.66757 6.26686 8.66753C6.26688 8.66748 6.26689 8.66743 6.2669 8.66738C6.26691 8.66734 6.26692 8.66729 6.26693 8.66724C6.26695 8.6672 6.26696 8.66715 6.26697 8.6671C6.26698 8.66706 6.26699 8.66701 6.267 8.66696C6.26702 8.66692 6.26703 8.66687 6.26704 8.66682C6.26705 8.66678 6.26706 8.66673 6.26707 8.66668C6.26709 8.66663 6.2671 8.66659 6.26711 8.66654C6.26712 8.66649 6.26713 8.66645 6.26715 8.6664C6.26716 8.66635 6.26717 8.66631 6.26718 8.66626C6.26719 8.66621 6.2672 8.66617 6.26722 8.66612C6.26723 8.66607 6.26724 8.66603 6.26725 8.66598C6.26726 8.66593 6.26727 8.66588 6.26729 8.66584C6.2673 8.66579 6.26731 8.66574 6.26732 8.6657C6.26733 8.66565 6.26734 8.6656 6.26736 8.66556C6.26737 8.66551 6.26738 8.66546 6.26739 8.66542C6.2674 8.66537 6.26741 8.66532 6.26743 8.66528C6.26744 8.66523 6.26745 8.66518 6.26746 8.66513C6.26747 8.66509 6.26749 8.66504 6.2675 8.66499C6.26751 8.66495 6.26752 8.6649 6.26753 8.66485C6.26754 8.66481 6.26756 8.66476 6.26757 8.66471C6.26758 8.66467 6.26759 8.66462 6.2676 8.66457C6.26761 8.66453 6.26763 8.66448 6.26764 8.66443C6.26765 8.66438 6.26766 8.66434 6.26767 8.66429C6.26768 8.66424 6.2677 8.6642 6.26771 8.66415C6.26772 8.6641 6.26773 8.66406 6.26774 8.66401C6.26775 8.66396 6.26777 8.66392 6.26778 8.66387C6.26779 8.66382 6.2678 8.66378 6.26781 8.66373C6.26782 8.66368 6.26784 8.66363 6.26785 8.66359C6.26786 8.66354 6.26787 8.66349 6.26788 8.66345C6.2679 8.6634 6.26791 8.66335 6.26792 8.66331C6.26793 8.66326 6.26794 8.66321 6.26795 8.66317C6.26797 8.66312 6.26798 8.66307 6.26799 8.66303C6.268 8.66298 6.26801 8.66293 6.26802 8.66288C6.26804 8.66284 6.26805 8.66279 6.26806 8.66274C6.26807 8.6627 6.26808 8.66265 6.26809 8.6626C6.26811 8.66256 6.26812 8.66251 6.26813 8.66246C6.26814 8.66242 6.26815 8.66237 6.26816 8.66232C6.26818 8.66228 6.26819 8.66223 6.2682 8.66218C6.26821 8.66213 6.26822 8.66209 6.26824 8.66204C6.26825 8.66199 6.26826 8.66195 6.26827 8.6619C6.26828 8.66185 6.26829 8.66181 6.26831 8.66176C6.26832 8.66171 6.26833 8.66167 6.26834 8.66162C6.26835 8.66157 6.26836 8.66153 6.26838 8.66148C6.26839 8.66143 6.2684 8.66138 6.26841 8.66134C6.26842 8.66129 6.26843 8.66124 6.26845 8.6612C6.26846 8.66115 6.26847 8.6611 6.26848 8.66106C6.26849 8.66101 6.2685 8.66096 6.26852 8.66092C6.26853 8.66087 6.26854 8.66082 6.26855 8.66078C6.26856 8.66073 6.26857 8.66068 6.26859 8.66063C6.2686 8.66059 6.26861 8.66054 6.26862 8.66049C6.26863 8.66045 6.26865 8.6604 6.26866 8.66035C6.26867 8.66031 6.26868 8.66026 6.26869 8.66021C6.2687 8.66017 6.26872 8.66012 6.26873 8.66007C6.26874 8.66003 6.26875 8.65998 6.26876 8.65993C6.26877 8.65988 6.26879 8.65984 6.2688 8.65979C6.26881 8.65974 6.26882 8.6597 6.26883 8.65965C6.26884 8.6596 6.26886 8.65956 6.26887 8.65951C6.26888 8.65946 6.26889 8.65942 6.2689 8.65937C6.26891 8.65932 6.26893 8.65928 6.26894 8.65923C6.26895 8.65918 6.26896 8.65913 6.26897 8.65909C6.26899 8.65904 6.269 8.65899 6.26901 8.65895C6.26902 8.6589 6.26903 8.65885 6.26904 8.65881C6.26906 8.65876 6.26907 8.65871 6.26908 8.65867C6.26909 8.65862 6.2691 8.65857 6.26911 8.65853C6.26913 8.65848 6.26914 8.65843 6.26915 8.65838C6.26916 8.65834 6.26917 8.65829 6.26918 8.65824C6.2692 8.6582 6.26921 8.65815 6.26922 8.6581C6.26923 8.65806 6.26924 8.65801 6.26925 8.65796C6.26927 8.65792 6.26928 8.65787 6.26929 8.65782C6.2693 8.65778 6.26931 8.65773 6.26932 8.65768C6.26934 8.65763 6.26935 8.65759 6.26936 8.65754C6.26937 8.65749 6.26938 8.65745 6.2694 8.6574C6.26941 8.65735 6.26942 8.65731 6.26943 8.65726C6.26944 8.65721 6.26945 8.65717 6.26947 8.65712C6.26948 8.65707 6.26949 8.65703 6.2695 8.65698C6.26951 8.65693 6.26952 8.65688 6.26954 8.65684C6.26955 8.65679 6.26956 8.65674 6.26957 8.6567C6.26958 8.65665 6.26959 8.6566 6.26961 8.65656C6.26962 8.65651 6.26963 8.65646 6.26964 8.65642C6.26965 8.65637 6.26966 8.65632 6.26968 8.65628C6.26969 8.65623 6.2697 8.65618 6.26971 8.65613C6.26972 8.65609 6.26974 8.65604 6.26975 8.65599C6.26976 8.65595 6.26977 8.6559 6.26978 8.65585C6.26979 8.65581 6.26981 8.65576 6.26982 8.65571C6.26983 8.65567 6.26984 8.65562 6.26985 8.65557C6.26986 8.65553 6.26988 8.65548 6.26989 8.65543C6.2699 8.65538 6.26991 8.65534 6.26992 8.65529C6.26993 8.65524 6.26995 8.6552 6.26996 8.65515C6.26997 8.6551 6.26998 8.65506 6.26999 8.65501C6.27 8.65496 6.27002 8.65492 6.27003 8.65487C6.27004 8.65482 6.27005 8.65478 6.27006 8.65473C6.27007 8.65468 6.27009 8.65463 6.2701 8.65459C6.27011 8.65454 6.27012 8.65449 6.27013 8.65445C6.27015 8.6544 6.27016 8.65435 6.27017 8.65431C6.27018 8.65426 6.27019 8.65421 6.2702 8.65417C6.27022 8.65412 6.27023 8.65407 6.27024 8.65403C6.27025 8.65398 6.27026 8.65393 6.27027 8.65388C6.27029 8.65384 6.2703 8.65379 6.27031 8.65374C6.27032 8.6537 6.27033 8.65365 6.27034 8.6536C6.27036 8.65356 6.27037 8.65351 6.27038 8.65346C6.27039 8.65342 6.2704 8.65337 6.27041 8.65332C6.27043 8.65328 6.27044 8.65323 6.27045 8.65318C6.27046 8.65313 6.27047 8.65309 6.27049 8.65304C6.2705 8.65299 6.27051 8.65295 6.27052 8.6529C6.27053 8.65285 6.27054 8.65281 6.27056 8.65276C6.27057 8.65271 6.27058 8.65267 6.27059 8.65262C6.2706 8.65257 6.27061 8.65253 6.27063 8.65248C6.27064 8.65243 6.27065 8.65238 6.27066 8.65234C6.27067 8.65229 6.27068 8.65224 6.2707 8.6522C6.27071 8.65215 6.27072 8.6521 6.27073 8.65206C6.27074 8.65201 6.27075 8.65196 6.27077 8.65192C6.27078 8.65187 6.27079 8.65182 6.2708 8.65178C6.27081 8.65173 6.27082 8.65168 6.27084 8.65163C6.27085 8.65159 6.27086 8.65154 6.27087 8.65149C6.27088 8.65145 6.2709 8.6514 6.27091 8.65135C6.27092 8.65131 6.27093 8.65126 6.27094 8.65121C6.27095 8.65117 6.27097 8.65112 6.27098 8.65107C6.27099 8.65103 6.271 8.65098 6.27101 8.65093C6.27102 8.65088 6.27104 8.65084 6.27105 8.65079C6.27106 8.65074 6.27107 8.6507 6.27108 8.65065C6.27109 8.6506 6.27111 8.65056 6.27112 8.65051C6.27113 8.65046 6.27114 8.65042 6.27115 8.65037C6.27116 8.65032 6.27118 8.65028 6.27119 8.65023C6.2712 8.65018 6.27121 8.65013 6.27122 8.65009C6.27124 8.65004 6.27125 8.64999 6.27126 8.64995C6.27127 8.6499 6.27128 8.64985 6.27129 8.64981C6.27131 8.64976 6.27132 8.64971 6.27133 8.64967C6.27134 8.64962 6.27135 8.64957 6.27136 8.64953C6.27138 8.64948 6.27139 8.64943 6.2714 8.64938C6.27141 8.64934 6.27142 8.64929 6.27143 8.64924C6.27145 8.6492 6.27146 8.64915 6.27147 8.6491C6.27148 8.64906 6.27149 8.64901 6.2715 8.64896C6.27152 8.64892 6.27153 8.64887 6.27154 8.64882C6.27155 8.64878 6.27156 8.64873 6.27157 8.64868C6.27159 8.64863 6.2716 8.64859 6.27161 8.64854C6.27162 8.64849 6.27163 8.64845 6.27165 8.6484C6.27166 8.64835 6.27167 8.64831 6.27168 8.64826C6.27169 8.64821 6.2717 8.64817 6.27172 8.64812C6.27173 8.64807 6.27174 8.64803 6.27175 8.64798C6.27176 8.64793 6.27177 8.64788 6.27179 8.64784C6.2718 8.64779 6.27181 8.64774 6.27182 8.6477C6.27183 8.64765 6.27184 8.6476 6.27186 8.64756C6.27187 8.64751 6.27188 8.64746 6.27189 8.64742C6.2719 8.64737 6.27191 8.64732 6.27193 8.64728C6.27194 8.64723 6.27195 8.64718 6.27196 8.64713C6.27197 8.64709 6.27199 8.64704 6.272 8.64699C6.27201 8.64695 6.27202 8.6469 6.27203 8.64685C6.27204 8.64681 6.27206 8.64676 6.27207 8.64671C6.27208 8.64667 6.27209 8.64662 6.2721 8.64657C6.27211 8.64653 6.27213 8.64648 6.27214 8.64643C6.27215 8.64638 6.27216 8.64634 6.27217 8.64629C6.27218 8.64624 6.2722 8.6462 6.27221 8.64615C6.27222 8.6461 6.27223 8.64606 6.27224 8.64601C6.27225 8.64596 6.27227 8.64592 6.27228 8.64587C6.27229 8.64582 6.2723 8.64578 6.27231 8.64573C6.27232 8.64568 6.27234 8.64563 6.27235 8.64559C6.27236 8.64554 6.27237 8.64549 6.27238 8.64545C6.2724 8.6454 6.27241 8.64535 6.27242 8.64531C6.27243 8.64526 6.27244 8.64521 6.27245 8.64517C6.27247 8.64512 6.27248 8.64507 6.27249 8.64503C6.2725 8.64498 6.27251 8.64493 6.27252 8.64488C6.27254 8.64484 6.27255 8.64479 6.27256 8.64474C6.27257 8.6447 6.27258 8.64465 6.27259 8.6446C6.27261 8.64456 6.27262 8.64451 6.27263 8.64446C6.27264 8.64442 6.27265 8.64437 6.27266 8.64432C6.27268 8.64428 6.27269 8.64423 6.2727 8.64418C6.27271 8.64413 6.27272 8.64409 6.27274 8.64404C6.27275 8.64399 6.27276 8.64395 6.27277 8.6439C6.27278 8.64385 6.27279 8.64381 6.27281 8.64376C6.27282 8.64371 6.27283 8.64367 6.27284 8.64362C6.27285 8.64357 6.27286 8.64353 6.27288 8.64348C6.27289 8.64343 6.2729 8.64338 6.27291 8.64334C6.27292 8.64329 6.27293 8.64324 6.27295 8.6432C6.27296 8.64315 6.27297 8.6431 6.27298 8.64306C6.27299 8.64301 6.273 8.64296 6.27302 8.64292C6.27303 8.64287 6.27304 8.64282 6.27305 8.64278C6.27306 8.64273 6.27307 8.64268 6.27309 8.64263C6.2731 8.64259 6.27311 8.64254 6.27312 8.64249C6.27313 8.64245 6.27315 8.6424 6.27316 8.64235C6.27317 8.64231 6.27318 8.64226 6.27319 8.64221C6.2732 8.64217 6.27322 8.64212 6.27323 8.64207C6.27324 8.64203 6.27325 8.64198 6.27326 8.64193C6.27327 8.64188 6.27329 8.64184 6.2733 8.64179C6.27331 8.64174 6.27332 8.6417 6.27333 8.64165C6.27334 8.6416 6.27336 8.64156 6.27337 8.64151C6.27338 8.64146 6.27339 8.64142 6.2734 8.64137C6.27341 8.64132 6.27343 8.64128 6.27344 8.64123C6.27345 8.64118 6.27346 8.64113 6.27347 8.64109C6.27349 8.64104 6.2735 8.64099 6.27351 8.64095C6.27352 8.6409 6.27353 8.64085 6.27354 8.64081C6.27356 8.64076 6.27357 8.64071 6.27358 8.64067C6.27359 8.64062 6.2736 8.64057 6.27361 8.64053C6.27363 8.64048 6.27364 8.64043 6.27365 8.64038C6.27366 8.64034 6.27367 8.64029 6.27368 8.64024C6.2737 8.6402 6.27371 8.64015 6.27372 8.6401C6.27373 8.64006 6.27374 8.64001 6.27375 8.63996C6.27377 8.63992 6.27378 8.63987 6.27379 8.63982C6.2738 8.63978 6.27381 8.63973 6.27382 8.63968C6.27384 8.63963 6.27385 8.63959 6.27386 8.63954C6.27387 8.63949 6.27388 8.63945 6.2739 8.6394C6.27391 8.63935 6.27392 8.63931 6.27393 8.63926C6.27394 8.63921 6.27395 8.63917 6.27397 8.63912C6.27398 8.63907 6.27399 8.63903 6.274 8.63898C6.27401 8.63893 6.27402 8.63888 6.27404 8.63884C6.27405 8.63879 6.27406 8.63874 6.27407 8.6387C6.27408 8.63865 6.27409 8.6386 6.27411 8.63856C6.27412 8.63851 6.27413 8.63846 6.27414 8.63842C6.27415 8.63837 6.27416 8.63832 6.27418 8.63828C6.27419 8.63823 6.2742 8.63818 6.27421 8.63813C6.27422 8.63809 6.27424 8.63804 6.27425 8.63799C6.27426 8.63795 6.27427 8.6379 6.27428 8.63785C6.27429 8.63781 6.27431 8.63776 6.27432 8.63771C6.27433 8.63767 6.27434 8.63762 6.27435 8.63757C6.27436 8.63753 6.27438 8.63748 6.27439 8.63743C6.2744 8.63738 6.27441 8.63734 6.27442 8.63729C6.27443 8.63724 6.27445 8.6372 6.27446 8.63715C6.27447 8.6371 6.27448 8.63706 6.27449 8.63701C6.2745 8.63696 6.27452 8.63692 6.27453 8.63687C6.27454 8.63682 6.27455 8.63678 6.27456 8.63673C6.27457 8.63668 6.27459 8.63663 6.2746 8.63659C6.27461 8.63654 6.27462 8.63649 6.27463 8.63645C6.27465 8.6364 6.27466 8.63635 6.27467 8.63631C6.27468 8.63626 6.27469 8.63621 6.2747 8.63617C6.27472 8.63612 6.27473 8.63607 6.27474 8.63603C6.27475 8.63598 6.27476 8.63593 6.27477 8.63588C6.27479 8.63584 6.2748 8.63579 6.27481 8.63574C6.27482 8.6357 6.27483 8.63565 6.27484 8.6356C6.27486 8.63556 6.27487 8.63551 6.27488 8.63546C6.27489 8.63542 6.2749 8.63537 6.27491 8.63532C6.27493 8.63528 6.27494 8.63523 6.27495 8.63518C6.27496 8.63513 6.27497 8.63509 6.27499 8.63504C6.275 8.63499 6.27501 8.63495 6.27502 8.6349C6.27503 8.63485 6.27504 8.63481 6.27506 8.63476L5.69297 8.48924ZM5.691 8.51412C5.48714 8.98182 5.28627 9.44051 5.08842 9.89018L5.63761 10.1318C5.83575 9.68149 6.03689 9.22218 6.24102 8.75388L5.691 8.51412ZM5.08817 9.89075C5.0043 10.0825 4.91742 10.2802 4.82754 10.4839L5.37649 10.7261C5.4666 10.5218 5.55373 10.3235 5.63786 10.1312L5.08817 9.89075ZM4.82754 10.4839C4.73654 10.6902 4.64857 10.8964 4.56361 11.1028L5.11842 11.3312C5.20146 11.1296 5.28748 10.9278 5.37649 10.7261L4.82754 10.4839ZM4.56484 11.0998C4.48169 11.2958 4.39861 11.4857 4.3156 11.6695L4.86242 11.9165C4.94742 11.7283 5.03234 11.5342 5.11719 11.3342L4.56484 11.0998ZM4.31235 11.677C4.23488 11.8617 4.16358 12.0281 4.09842 12.1762L4.64761 12.4178C4.71445 12.2659 4.78714 12.0963 4.86567 11.909L4.31235 11.677ZM4.65336 12.1902C4.22113 11.0556 3.7859 9.92401 3.34767 8.79541L2.78836 9.01259C3.22612 10.14 3.66089 11.2704 4.09267 12.4038L4.65336 12.1902ZM3.34767 8.79541C2.90997 7.66818 2.47526 6.53494 2.04355 5.39569L1.48248 5.60831C1.91477 6.74906 2.35006 7.88382 2.78836 9.01259L3.34767 8.79541ZM1.76301 5.802H2.87001V5.202H1.76301V5.802ZM2.58807 5.60452C2.73237 6.00132 2.87965 6.40111 3.02994 6.80388L3.59208 6.59412C3.44237 6.19289 3.29566 5.79468 3.15195 5.39948L2.58807 5.60452ZM3.03133 6.80753C3.18637 7.20706 3.32934 7.59131 3.46028 7.96032L4.02574 7.75968C3.89268 7.38469 3.74765 6.99494 3.59069 6.59047L3.03133 6.80753ZM3.46174 7.96434C3.59894 8.33418 3.72099 8.67653 3.82795 8.99147L4.39608 8.79852C4.28704 8.47747 4.16308 8.12981 4.02428 7.75566L3.46174 7.96434ZM3.82795 8.99147C3.93474 9.30593 4.01662 9.56948 4.0744 9.78327L4.65362 9.62673C4.5914 9.39652 4.50528 9.12007 4.39608 8.79852L3.82795 8.99147ZM4.07155 9.77185L4.14355 10.0868L4.72847 9.95315L4.65647 9.63815L4.07155 9.77185ZM4.73019 10.0788C4.73007 10.0794 4.73046 10.0774 4.73188 10.0721C4.73326 10.067 4.73527 10.0601 4.73811 10.051C4.74382 10.0327 4.75196 10.0088 4.76295 9.97852L4.19907 9.77348C4.17479 9.84027 4.15269 9.9069 4.14184 9.96117L4.73019 10.0788ZM4.76562 9.97087C4.78956 9.89904 4.80514 9.85545 4.81356 9.83442L4.25647 9.61158C4.24088 9.65055 4.22047 9.70895 4.19641 9.78113L4.76562 9.97087ZM4.82606 9.79576C4.82447 9.80208 4.8237 9.80362 4.82582 9.79751C4.82759 9.79241 4.83048 9.7845 4.83486 9.77323C4.84364 9.75066 4.85643 9.71961 4.87376 9.67918L4.32227 9.44282C4.28931 9.51973 4.25704 9.59796 4.24397 9.65024L4.82606 9.79576ZM4.87376 9.67918C4.91008 9.59443 4.95234 9.49481 5.0005 9.38042L4.44752 9.14758C4.39969 9.26119 4.35795 9.35957 4.32227 9.44282L4.87376 9.67918ZM5.00256 9.37542C5.04929 9.25857 5.10213 9.13233 5.16113 8.99662L4.61089 8.75738C4.5499 8.89767 4.49473 9.02943 4.44547 9.15258L5.00256 9.37542ZM5.16113 8.99662C5.22177 8.85716 5.28237 8.71475 5.34294 8.56938L4.78909 8.33862C4.72966 8.48125 4.67026 8.62084 4.61089 8.75738L5.16113 8.99662ZM5.34097 8.57398C5.48511 8.24366 5.64424 7.87738 5.81833 7.47517L5.2677 7.23683C5.09379 7.63862 4.93491 8.00434 4.79105 8.33402L5.34097 8.57398ZM5.82513 7.25396C5.72427 6.97514 5.6356 6.71496 5.55898 6.47333L4.98704 6.65467C5.06643 6.90504 5.15775 7.17286 5.2609 7.45804L5.82513 7.25396ZM5.5568 6.4667C5.48534 6.25829 5.41689 6.05294 5.35145 5.85065L4.78058 6.03535C4.84713 6.24106 4.91668 6.44971 4.98923 6.6613L5.5568 6.4667ZM5.35382 5.85835C5.29373 5.65405 5.24745 5.50262 5.21562 5.40713L4.64641 5.59687C4.67458 5.68138 4.71829 5.82395 4.7782 6.02765L5.35382 5.85835ZM4.93101 5.802H5.87601V5.202H4.93101V5.802ZM5.59563 5.60869C5.85375 6.28703 6.09391 6.91443 6.31608 7.49089L6.87594 7.27511C6.65412 6.69957 6.41427 6.07297 6.1564 5.3953L5.59563 5.60869ZM6.31428 7.48607C6.40428 7.73207 6.49428 7.97807 6.58428 8.22407L7.14775 8.01793C7.05775 7.77193 6.96775 7.52593 6.87775 7.27993L6.31428 7.48607ZM6.58654 8.23006C6.68204 8.47479 6.76845 8.70124 6.84579 8.90946L7.40824 8.70054C7.32958 8.48876 7.24198 8.25921 7.14549 8.01194L6.58654 8.23006ZM6.84847 8.91642C6.93179 9.12471 7.00281 9.30822 7.06169 9.46719L7.62434 9.25881C7.56322 9.09378 7.49024 8.90529 7.40556 8.69358L6.84847 8.91642ZM7.06301 9.47069C7.12283 9.62624 7.16272 9.73481 7.18441 9.79987L7.75362 9.61013C7.7273 9.53119 7.68319 9.41176 7.62302 9.25531L7.06301 9.47069ZM7.18441 9.79987C7.19604 9.83478 7.20329 9.8681 7.20685 9.90013L7.80318 9.83387C7.79474 9.7579 7.77798 9.68322 7.75362 9.61013L7.18441 9.79987ZM7.21397 9.93976C7.22526 9.98493 7.23666 10.0334 7.24816 10.0851L7.83387 9.95492C7.82136 9.89865 7.80876 9.84507 7.79606 9.79424L7.21397 9.93976ZM7.83387 10.0851C7.84817 10.0207 7.85896 9.95606 7.86618 9.89113L7.26985 9.82487C7.26506 9.86794 7.25785 9.91128 7.24816 9.95492L7.83387 10.0851ZM7.86087 9.92308C7.87236 9.87135 7.88376 9.82293 7.89506 9.77776L7.31297 9.63224C7.30026 9.68307 7.28766 9.73665 7.27516 9.79292L7.86087 9.92308ZM7.89633 9.77246C7.94701 9.55284 8.02728 9.28511 8.13901 8.96757L7.57302 8.76843C7.45675 9.09889 7.36901 9.38916 7.3117 9.63754L7.89633 9.77246ZM8.13901 8.96757C8.25237 8.64539 8.37778 8.29899 8.51528 7.92834L7.95274 7.71966C7.81424 8.09301 7.68766 8.44261 7.57302 8.76843L8.13901 8.96757ZM8.51378 7.9323C8.65756 7.56089 8.80734 7.17744 8.96313 6.78196L8.40489 6.56204C8.24869 6.95856 8.09847 7.34311 7.95424 7.7157L8.51378 7.9323ZM8.96369 6.78053C9.1199 6.37799 9.27012 5.98741 9.41436 5.6088L8.85367 5.3952C8.7099 5.77259 8.56012 6.16201 8.40433 6.56347L8.96369 6.78053ZM9.13401 5.802H10.16V5.202H9.13401V5.802Z" fill="white"/>
<path d="M11.075 7.103C11.317 6.663 11.5883 6.223 11.889 5.783C12.1897 5.33566 12.4573 4.88833 12.692 4.441H10.459V3.451H14.298C14.0413 3.891 13.7737 4.331 13.495 4.771C13.2163 5.211 12.9487 5.651 12.692 6.091C13.1613 6.28166 13.539 6.575 13.825 6.971C14.1183 7.367 14.265 7.829 14.265 8.357C14.265 8.687 14.199 9.00233 14.067 9.303C13.935 9.59633 13.7553 9.853 13.528 10.073C13.308 10.293 13.0477 10.469 12.747 10.601C12.4537 10.7257 12.142 10.788 11.812 10.788C11.4527 10.788 11.119 10.7147 10.811 10.568C10.503 10.4213 10.2353 10.2307 10.008 9.996L10.745 9.303C10.877 9.46433 11.031 9.589 11.207 9.677C11.3903 9.765 11.5883 9.809 11.801 9.809C11.999 9.809 12.186 9.77233 12.362 9.699C12.538 9.61833 12.692 9.512 12.824 9.38C12.956 9.248 13.0587 9.094 13.132 8.918C13.2127 8.742 13.253 8.555 13.253 8.357C13.253 8.159 13.2127 7.97566 13.132 7.807C13.0587 7.631 12.956 7.477 12.824 7.345C12.692 7.213 12.538 7.11033 12.362 7.037C12.186 6.96366 11.999 6.927 11.801 6.927C11.5297 6.927 11.2877 6.98566 11.075 7.103Z" fill="white"/>
<path d="M11.075 7.103L10.8121 6.95842L10.3129 7.86609L11.2199 7.36567L11.075 7.103ZM11.889 5.783L12.1367 5.95226L12.138 5.95035L11.889 5.783ZM12.692 4.441L12.9577 4.58036L13.1882 4.141H12.692V4.441ZM10.459 4.441H10.159V4.741H10.459V4.441ZM10.459 3.451V3.151H10.159V3.451H10.459ZM14.298 3.451L14.5571 3.60216L14.8203 3.151H14.298V3.451ZM13.495 4.771L13.7485 4.93151L13.7485 4.93151L13.495 4.771ZM12.692 6.091L12.4329 5.93984L12.2585 6.23871L12.5791 6.36894L12.692 6.091ZM13.825 6.971L13.5818 7.14666L13.5839 7.14957L13.825 6.971ZM14.067 9.303L14.3406 9.42611L14.3417 9.42359L14.067 9.303ZM13.528 10.073L13.3194 9.85739L13.3159 9.86086L13.528 10.073ZM12.747 10.601L12.8644 10.8771L12.8676 10.8757L12.747 10.601ZM10.811 10.568L10.682 10.8389L10.682 10.8389L10.811 10.568ZM10.008 9.996L9.8025 9.77744L9.58067 9.98603L9.79254 10.2047L10.008 9.996ZM10.745 9.303L10.9772 9.11303L10.7737 8.86426L10.5395 9.08444L10.745 9.303ZM11.207 9.677L11.0728 9.94536L11.0772 9.94745L11.207 9.677ZM12.362 9.699L12.4775 9.97609L12.487 9.97172L12.362 9.699ZM12.824 9.38L13.0361 9.59213L13.0361 9.59213L12.824 9.38ZM13.132 8.918L12.8591 8.79292L12.8551 8.80261L13.132 8.918ZM13.132 7.807L12.8551 7.92238L12.8581 7.92949L12.8614 7.93643L13.132 7.807ZM12.362 7.037L12.2466 7.31392L12.2466 7.31392L12.362 7.037ZM11.3379 7.24757C11.5749 6.81654 11.8412 6.38476 12.1367 5.95225L11.6413 5.61374C11.3355 6.06124 11.0591 6.50946 10.8121 6.95842L11.3379 7.24757ZM12.138 5.95035C12.4443 5.49459 12.7176 5.03793 12.9577 4.58036L12.4263 4.30163C12.1971 4.73873 11.935 5.17674 11.64 5.61565L12.138 5.95035ZM12.692 4.141H10.459V4.741H12.692V4.141ZM10.759 4.441V3.451H10.159V4.441H10.759ZM10.459 3.751H14.298V3.151H10.459V3.751ZM14.0389 3.29984C13.7841 3.73661 13.5183 4.1735 13.2416 4.61048L13.7485 4.93151C14.029 4.4885 14.2986 4.04538 14.5571 3.60216L14.0389 3.29984ZM13.2416 4.61048C12.961 5.0535 12.6914 5.49661 12.4329 5.93984L12.9511 6.24216C13.2059 5.80538 13.4717 5.3685 13.7485 4.93151L13.2416 4.61048ZM12.5791 6.36894C12.9983 6.53924 13.33 6.79804 13.5818 7.14664L14.0682 6.79535C13.748 6.35195 13.3244 6.02409 12.8049 5.81306L12.5791 6.36894ZM13.5839 7.14957C13.8362 7.49011 13.965 7.88842 13.965 8.357H14.565C14.565 7.76957 14.4005 7.24388 14.0661 6.79243L13.5839 7.14957ZM13.965 8.357C13.965 8.64569 13.9075 8.91994 13.7923 9.1824L14.3417 9.42359C14.4905 9.08472 14.565 8.7283 14.565 8.357H13.965ZM13.7934 9.17989C13.6768 9.43916 13.5189 9.6643 13.3194 9.85742L13.7366 10.2886C13.9917 10.0417 14.1933 9.7535 14.3406 9.42611L13.7934 9.17989ZM13.3159 9.86086C13.1237 10.0531 12.8949 10.2084 12.6264 10.3263L12.8676 10.8757C13.2005 10.7295 13.4923 10.5329 13.7401 10.2851L13.3159 9.86086ZM12.6297 10.3249C12.3748 10.4332 12.1031 10.488 11.812 10.488V11.088C12.1809 11.088 12.5326 11.0181 12.8644 10.8771L12.6297 10.3249ZM11.812 10.488C11.4949 10.488 11.2056 10.4236 10.94 10.2971L10.682 10.8389C11.0325 11.0057 11.4105 11.088 11.812 11.088V10.488ZM10.94 10.2971C10.6629 10.1652 10.4248 9.9951 10.2235 9.78726L9.79254 10.2047C10.0459 10.4662 10.3432 10.6775 10.682 10.8389L10.94 10.2971ZM10.2135 10.2146L10.9505 9.52155L10.5395 9.08444L9.8025 9.77744L10.2135 10.2146ZM10.5128 9.49297C10.67 9.68506 10.8568 9.8373 11.0728 9.94533L11.3412 9.40867C11.2052 9.3407 11.084 9.2436 10.9772 9.11303L10.5128 9.49297ZM11.0772 9.94745C11.3029 10.0558 11.5455 10.109 11.801 10.109V9.509C11.6312 9.509 11.4778 9.4742 11.3368 9.40654L11.0772 9.94745ZM11.801 10.109C12.0371 10.109 12.2634 10.0651 12.4774 9.97592L12.2466 9.42207C12.1086 9.47959 11.961 9.509 11.801 9.509V10.109ZM12.487 9.97172C12.6942 9.87675 12.878 9.75028 13.0361 9.59213L12.6119 9.16786C12.506 9.27372 12.3818 9.35991 12.237 9.42628L12.487 9.97172ZM13.0361 9.59213C13.1965 9.43182 13.3209 9.24476 13.4089 9.03338L12.8551 8.80261C12.7965 8.94323 12.7156 9.06417 12.6119 9.16786L13.0361 9.59213ZM13.4047 9.04299C13.5038 8.82687 13.553 8.59713 13.553 8.357H12.953C12.953 8.51286 12.9216 8.65713 12.8593 8.793L13.4047 9.04299ZM13.553 8.357C13.553 8.11691 13.5038 7.88901 13.4027 7.67756L12.8614 7.93643C12.9216 8.06232 12.953 8.20109 12.953 8.357H13.553ZM13.4089 7.69161C13.3209 7.48023 13.1965 7.29317 13.0361 7.13286L12.6119 7.55713C12.7156 7.66082 12.7965 7.78176 12.8551 7.92238L13.4089 7.69161ZM13.0361 7.13286C12.8758 6.97256 12.6888 6.84815 12.4774 6.76007L12.2466 7.31392C12.3872 7.37251 12.5082 7.45344 12.6119 7.55713L13.0361 7.13286ZM12.4774 6.76007C12.2634 6.67092 12.0371 6.627 11.801 6.627V7.227C11.961 7.227 12.1086 7.25641 12.2466 7.31392L12.4774 6.76007ZM11.801 6.627C11.485 6.627 11.1921 6.69574 10.9301 6.84032L11.2199 7.36567C11.3832 7.27559 11.5743 7.227 11.801 7.227V6.627Z" fill="white"/>
<path d="M8.5 3.14999H10.5V4.73999H8.5V3.14999Z" fill="white"/>
<rect x="8.78296" y="1.91112" width="1.31128" height="3.52918" transform="rotate(21 8.78296 1.91112)" fill="#3F4A61"/>
</g>
<defs>
<clipPath id="clip0_113_3">
<rect width="16" height="16" rx="2" fill="white"/>
</clipPath>
</defs>
</svg>
