<svg width="251" height="310" viewBox="0 0 251 310" fill="none" xmlns="http://www.w3.org/2000/svg">
<path d="M95.3604 132.962L110.402 158.4C111.016 159.412 111.322 160.271 111.322 160.976C111.322 161.651 111.046 162.157 110.494 162.494C109.942 162.831 109.298 163 108.562 163H93.7504C92.2477 163 91.2817 162.724 90.8524 162.172C90.7297 161.988 90.561 161.666 90.3464 161.206L89.0124 158.354C88.6137 157.465 87.6784 156.959 86.2064 156.836H77.5124C76.8684 156.836 76.3777 156.897 76.0404 157.02C75.703 157.143 75.427 157.419 75.2124 157.848L73.4184 161.574C73.1117 162.126 72.7744 162.509 72.4064 162.724C72.0384 162.908 71.5017 163 70.7964 163H66.6564C65.4604 163 64.8164 162.571 64.7244 161.712C64.6937 161.589 64.6784 161.467 64.6784 161.344C64.6784 160.639 64.9084 159.964 65.3684 159.32L79.7664 133.928C81.1464 131.536 83.385 130.34 86.4824 130.34H90.1624C92.6157 130.34 94.3484 131.214 95.3604 132.962ZM80.4564 144.738L78.3404 148.924C78.2177 149.2 78.1564 149.445 78.1564 149.66C78.1564 150.457 78.5397 150.856 79.3064 150.856H83.4924C84.1364 150.856 84.581 150.703 84.8264 150.396C85.0717 150.059 85.1944 149.767 85.1944 149.522C85.1944 149.277 85.1484 149.031 85.0564 148.786L83.3084 144.83C82.9404 144.033 82.465 143.634 81.8824 143.634C81.2997 143.634 80.8244 144.002 80.4564 144.738ZM86.9504 184.66L86.9044 190.64C86.9044 190.916 86.9964 191.161 87.1804 191.376C87.3644 191.56 87.6098 191.652 87.9164 191.652C89.7871 191.652 91.3204 191.284 92.5164 190.548C93.7431 189.812 94.3564 188.662 94.3564 187.098C94.3564 185.503 93.7278 184.399 92.4704 183.786C91.4584 183.295 90.3544 183.05 89.1584 183.05C88.8518 183.05 88.5451 183.065 88.2384 183.096C87.3798 183.157 86.9504 183.679 86.9504 184.66ZM86.9044 172.01L86.9504 175.782C86.9504 176.365 87.3031 176.656 88.0084 176.656C91.1058 176.656 92.6544 175.782 92.6544 174.034C92.6544 172.01 91.2744 170.998 88.5144 170.998C88.3304 170.998 88.1618 170.998 88.0084 170.998C87.2724 170.998 86.9044 171.335 86.9044 172.01ZM71.8624 165.846C75.6651 165.723 80.4184 165.662 86.1224 165.662C91.8264 165.662 95.7671 165.723 97.9444 165.846C100.152 165.938 102.1 166.781 103.786 168.376C105.473 169.971 106.316 171.811 106.316 173.896C106.316 176.441 105.212 178.312 103.004 179.508C102.79 179.631 102.682 179.784 102.682 179.968C102.682 180.121 102.79 180.229 103.004 180.29C104.599 180.719 105.933 181.639 107.006 183.05C108.11 184.461 108.662 186.132 108.662 188.064C108.662 190.487 107.727 192.679 105.856 194.642C103.986 196.605 101.118 197.678 97.2544 197.862C93.3904 198.015 90.5998 198.092 88.8824 198.092C87.1651 198.092 81.4304 198.046 71.6784 197.954C70.7891 197.954 70.0684 197.678 69.5164 197.126C68.9644 196.543 68.6424 195.884 68.5504 195.148C68.3051 192.449 68.1824 188.524 68.1824 183.372C68.1824 178.189 68.2898 173.773 68.5044 170.124C68.5964 168.621 68.8571 167.548 69.2864 166.904C69.7158 166.229 70.5744 165.877 71.8624 165.846ZM88.9897 233.92C85.2791 233.92 81.9211 233.445 78.9157 232.494C75.9104 231.513 73.4724 230.209 71.6017 228.584C69.7311 226.959 68.3051 225.149 67.3237 223.156C66.3424 221.132 65.8517 219.031 65.8517 216.854C65.8517 214.677 66.3424 212.591 67.3237 210.598C68.3357 208.574 69.7617 206.749 71.6017 205.124C73.4724 203.499 75.9104 202.195 78.9157 201.214C81.9211 200.233 85.2177 199.742 88.8057 199.742C92.3937 199.742 95.5677 200.187 98.3277 201.076C101.088 201.965 103.311 203.177 104.998 204.71C108.432 207.838 110.15 211.549 110.15 215.842C110.15 218.019 109.674 220.151 108.724 222.236C107.804 224.321 106.47 226.223 104.722 227.94C103.004 229.627 100.781 231.022 98.0517 232.126C95.3224 233.199 92.3017 233.797 88.9897 233.92ZM98.0977 216.072C98.0977 214.6 97.5764 213.327 96.5337 212.254C95.4911 211.15 93.8964 210.598 91.7497 210.598C89.6337 210.598 87.9471 211.165 86.6897 212.3C85.4324 213.435 84.8037 214.815 84.8037 216.44C84.8037 218.065 85.4631 219.369 86.7817 220.35C88.1004 221.331 89.6797 221.822 91.5197 221.822C93.3904 221.822 94.9544 221.224 96.2117 220.028C97.4691 218.832 98.0977 217.513 98.0977 216.072ZM88.2584 240.63L88.1664 244.816V253.694C88.1664 254.982 88.5651 255.979 89.3624 256.684C90.1597 257.389 91.0951 257.742 92.1684 257.742C93.2417 257.742 94.1617 257.389 94.9284 256.684C95.7257 255.979 96.1244 254.982 96.1244 253.694V239.986C96.1244 238.545 96.3084 237.487 96.6764 236.812C97.0751 236.137 97.9184 235.8 99.2064 235.8H103.438C104.42 235.8 105.094 236.091 105.462 236.674C106.168 237.717 106.52 241.749 106.52 248.772C106.52 251.072 106.49 252.835 106.428 254.062C106.336 256.546 105.754 258.769 104.68 260.732C103.638 262.664 102.288 264.213 100.632 265.378C97.2897 267.739 93.5024 268.92 89.2704 268.92C83.6891 268.92 79.0737 267.617 75.4244 265.01C73.5844 263.691 72.1277 261.943 71.0544 259.766C70.0117 257.558 69.4751 254.997 69.4444 252.084C69.4137 250.643 69.3984 248.527 69.3984 245.736C69.3984 242.915 69.4291 240.891 69.4904 239.664C69.5824 238.407 69.8277 237.456 70.2264 236.812C70.6557 236.137 71.4991 235.8 72.7564 235.8H85.0384C86.2651 235.8 87.0777 236.122 87.4764 236.766C87.9977 237.594 88.2584 238.882 88.2584 240.63ZM97.6625 300.194C97.6318 300.869 97.3405 301.497 96.7885 302.08C96.2365 302.632 95.5005 302.939 94.5805 303C92.8325 303.123 90.7318 303.184 88.2785 303.184C85.8252 303.184 83.5712 303.123 81.5165 303C80.5965 302.939 79.8605 302.632 79.3085 302.08C78.7565 301.497 78.4652 300.869 78.4345 300.194C78.3425 295.533 78.2965 291.561 78.2965 288.28C78.2965 284.968 78.3118 282.545 78.3425 281.012C78.3425 279.847 77.8212 279.264 76.7785 279.264H72.6385C71.9945 279.264 71.4732 279.111 71.0745 278.804C70.6758 278.497 70.4458 277.961 70.3845 277.194C70.3538 276.427 70.3385 275.63 70.3385 274.802C70.3385 273.974 70.3538 273.269 70.3845 272.686C70.4458 272.073 70.6912 271.613 71.1205 271.306C71.5805 270.969 72.0712 270.8 72.5925 270.8C76.5792 270.739 81.9765 270.708 88.7845 270.708C95.5925 270.708 100.469 270.739 103.413 270.8C103.934 270.831 104.409 270.999 104.839 271.306C105.299 271.613 105.544 272.073 105.575 272.686C105.636 273.269 105.667 273.959 105.667 274.756C105.667 275.553 105.651 276.32 105.621 277.056C105.529 278.436 104.777 279.126 103.367 279.126H99.2265C98.1838 279.126 97.6625 279.663 97.6625 280.736C97.7545 284.6 97.8005 288.096 97.8005 291.224C97.8005 294.352 97.7545 297.342 97.6625 300.194Z" fill="#2E353A"/>
<path d="M250.576 304.999C250.576 306.769 194.576 308.199 125.576 308.199C56.576 308.199 0.576019 306.769 0.576019 304.999C0.576019 303.229 56.576 301.809 125.576 301.809C194.576 301.809 250.576 303.239 250.576 304.999Z" fill="#2E353A"/>
<path d="M179.706 136.049C179.706 136.049 176.706 141.629 176.266 142.409C175.826 143.189 174.216 147.409 174.696 148.409C175.176 149.409 175.636 149.979 176.586 150.139C177.536 150.299 178.316 152.029 179.886 152.339C180.874 152.535 181.878 152.642 182.886 152.659C183.133 152.841 183.418 152.963 183.72 153.017C184.022 153.071 184.332 153.054 184.626 152.969C185.566 152.659 186.356 152.189 186.986 149.509C187.371 148.182 187.476 146.789 187.296 145.419L187.016 140.009L179.706 136.049Z" fill="white"/>
<path d="M184.066 153.549C183.591 153.543 183.127 153.404 182.726 153.149C181.738 153.123 180.755 153.012 179.786 152.819C178.887 152.574 178.083 152.066 177.476 151.359C177.206 151.037 176.863 150.783 176.476 150.619C175.962 150.505 175.486 150.261 175.092 149.911C174.698 149.561 174.4 149.116 174.226 148.619C173.576 147.329 175.466 142.739 175.816 142.159C176.276 141.389 179.216 135.869 179.246 135.809C179.312 135.694 179.419 135.608 179.546 135.569C179.668 135.52 179.804 135.52 179.926 135.569L187.226 139.519C187.301 139.562 187.364 139.623 187.409 139.696C187.454 139.77 187.481 139.853 187.486 139.939L187.766 145.339C187.949 146.757 187.837 148.197 187.436 149.569C186.816 152.239 186.006 152.979 184.746 153.399C184.529 153.485 184.299 153.535 184.066 153.549ZM179.916 136.729C179.196 138.069 177.096 141.999 176.696 142.669C176.146 143.579 174.826 147.549 175.136 148.169C175.636 149.169 176.016 149.529 176.666 149.639C177.258 149.814 177.784 150.163 178.176 150.639C178.648 151.209 179.278 151.626 179.986 151.839C180.939 152.024 181.906 152.127 182.876 152.149C182.992 152.149 183.105 152.188 183.196 152.259C183.375 152.39 183.582 152.478 183.8 152.518C184.018 152.557 184.242 152.548 184.456 152.489C185.146 152.259 185.866 152.019 186.456 149.389C186.819 148.13 186.925 146.81 186.766 145.509L186.496 140.309L179.916 136.729Z" fill="#2E353A"/>
<path d="M197.046 286.299C197.046 286.299 192.776 293.249 192.776 294.929C192.776 296.609 198.656 299.699 201.176 300.819C203.696 301.939 208.176 302.819 211.816 303.339C215.456 303.859 223.016 305.339 220.816 302.499C218.616 299.659 205.096 292.179 204.536 291.289C203.842 290.458 203.065 289.701 202.216 289.029L197.046 286.299Z" fill="white"/>
<path d="M218.996 304.679C216.862 304.593 214.737 304.355 212.636 303.969L211.736 303.829C206.656 303.049 203.036 302.189 200.976 301.269C200.616 301.109 192.276 297.379 192.276 294.929C192.276 293.159 196.176 286.759 196.616 286.029C196.684 285.923 196.789 285.845 196.911 285.812C197.033 285.779 197.163 285.792 197.276 285.849L202.446 288.589C203.374 289.299 204.216 290.115 204.956 291.019C205.196 291.299 207.396 292.679 209.526 294.019C214.066 296.849 219.706 300.379 221.166 302.199C221.696 302.859 221.826 303.429 221.546 303.899C221.266 304.369 220.386 304.679 218.996 304.679ZM197.196 286.959C195.576 289.639 193.246 293.869 193.246 294.959C193.246 296.049 197.526 298.689 201.346 300.389C203.346 301.269 206.866 302.099 211.866 302.869L212.756 303.009C214.596 303.299 220.196 304.189 220.656 303.409C220.656 303.409 220.656 303.209 220.356 302.839C219.006 301.149 213.206 297.519 208.966 294.839C205.556 292.709 204.336 291.929 204.086 291.559C203.423 290.768 202.679 290.047 201.866 289.409L197.196 286.959Z" fill="#2E353A"/>
<path d="M203.736 297.249L205.236 299.489C206.849 301.937 209.04 303.949 211.616 305.349C215.616 307.509 221.776 309.979 227.156 308.499C235.976 306.069 213.776 292.679 213.776 292.679C213.776 292.679 205.866 298.179 203.736 297.249Z" fill="white"/>
<path d="M223.656 309.449C219.216 309.449 214.656 307.589 211.376 305.789C208.733 304.355 206.48 302.295 204.816 299.789L203.316 297.539C203.253 297.454 203.22 297.35 203.22 297.244C203.22 297.138 203.253 297.035 203.316 296.949C203.386 296.866 203.482 296.807 203.588 296.782C203.694 296.757 203.806 296.766 203.906 296.809C205.196 297.369 210.266 294.499 213.456 292.289C213.536 292.235 213.63 292.206 213.726 292.206C213.822 292.206 213.916 292.235 213.996 292.289C215.666 293.289 230.306 302.289 229.676 306.849C229.536 307.849 228.676 308.609 227.256 309.009C226.081 309.317 224.87 309.465 223.656 309.449ZM204.716 297.809L205.646 299.219C207.218 301.593 209.347 303.546 211.846 304.909C215.926 307.109 221.846 309.439 227.026 308.019C228.586 307.579 228.686 306.899 228.716 306.679C229.166 303.409 218.346 296.059 213.786 293.279C212.196 294.339 207.416 297.489 204.716 297.809Z" fill="#2E353A"/>
<path d="M206.276 298.309C208.706 301.985 212.387 304.653 216.636 305.819C223.886 307.889 225.966 307.369 227.516 305.299" fill="white"/>
<path d="M223.556 307.639C221.157 307.504 218.787 307.053 216.506 306.299C212.123 305.116 208.329 302.361 205.846 298.559C205.812 298.503 205.79 298.441 205.781 298.376C205.771 298.311 205.775 298.245 205.792 298.181C205.809 298.118 205.838 298.058 205.878 298.007C205.919 297.955 205.969 297.911 206.026 297.879C206.142 297.813 206.279 297.795 206.408 297.829C206.537 297.862 206.647 297.945 206.716 298.059C209.093 301.609 212.661 304.191 216.776 305.339C223.846 307.339 225.776 306.839 227.116 304.999C227.197 304.895 227.315 304.827 227.446 304.808C227.576 304.79 227.709 304.822 227.816 304.899C227.922 304.979 227.992 305.097 228.011 305.229C228.03 305.36 227.996 305.493 227.916 305.599C227.426 306.286 226.768 306.834 226.004 307.192C225.24 307.549 224.397 307.703 223.556 307.639Z" fill="#2E353A"/>
<path d="M193.326 293.649C193.326 293.649 201.326 299.379 205.236 299.489L193.326 293.649Z" fill="white"/>
<path d="M205.196 299.989C201.196 299.879 193.346 294.289 193.016 294.059C192.911 293.98 192.84 293.862 192.82 293.732C192.799 293.601 192.83 293.467 192.906 293.359C192.943 293.306 192.99 293.26 193.045 293.225C193.1 293.189 193.161 293.165 193.226 293.154C193.29 293.143 193.356 293.145 193.419 293.159C193.483 293.174 193.543 293.201 193.596 293.239C193.676 293.299 201.526 298.889 205.226 298.989C205.36 298.995 205.486 299.052 205.577 299.149C205.669 299.246 205.719 299.376 205.716 299.509C205.713 299.575 205.698 299.64 205.67 299.699C205.643 299.759 205.604 299.813 205.556 299.857C205.507 299.902 205.451 299.936 205.389 299.959C205.327 299.982 205.262 299.992 205.196 299.989Z" fill="#2E353A"/>
<path d="M175.956 137.969C175.956 137.969 183.056 149.739 184.576 152.469C186.096 155.199 205.256 177.109 212.856 195.969C220.456 214.829 227.766 231.849 227.456 237.329C227.146 242.809 202.196 289.029 202.196 289.029L197.026 286.299C197.026 286.299 204.926 242.799 204.026 238.239C203.126 233.679 175.196 188.359 175.196 188.359C175.196 188.359 162.116 179.239 156.646 168.589" fill="#2E353A"/>
<path d="M176.966 167.379C176.966 167.379 173.016 175.889 173.016 177.109C173.016 178.329 195.216 243.719 201.606 258.619C205.651 268.164 209.202 277.91 212.246 287.819C212.246 287.819 214.686 290.819 212.856 293.899C211.026 296.979 203.736 299.069 202.216 296.329C200.696 293.589 185.786 279.329 179.406 265.009C173.026 250.689 163.896 226.379 158.716 217.259C151.892 205.582 145.801 193.492 140.476 181.059C133.776 165.249 126.886 148.109 126.886 148.109C135.916 148.864 145.007 147.845 153.646 145.109C167.646 140.549 173.646 131.819 173.646 131.819C173.646 131.819 177.206 140.919 178.116 142.679" fill="#2E353A"/>
<path d="M179.056 193.059C178.987 193.058 178.92 193.037 178.863 192.998C178.806 192.959 178.762 192.903 178.736 192.839L171.736 174.639C171.712 174.572 171.709 174.499 171.726 174.429C171.744 174.36 171.782 174.297 171.836 174.249L179.676 167.529C179.743 167.467 179.83 167.433 179.921 167.433C180.012 167.433 180.099 167.467 180.166 167.529C180.227 167.594 180.261 167.68 180.261 167.769C180.261 167.859 180.227 167.944 180.166 168.009L172.506 174.579L179.416 192.579C179.449 192.664 179.448 192.759 179.412 192.843C179.377 192.927 179.31 192.994 179.226 193.029L179.056 193.059Z" fill="white"/>
<path d="M172.046 174.849C171.961 174.85 171.878 174.818 171.816 174.759C171.781 174.727 171.754 174.689 171.735 174.646C171.716 174.603 171.706 174.556 171.706 174.509C171.706 174.459 171.706 168.969 169.246 165.509C168.636 164.619 168.146 163.919 167.736 163.349C166.456 161.529 166.066 160.979 165.836 160.069C165.677 159.005 165.677 157.923 165.836 156.859C165.853 156.771 165.903 156.692 165.975 156.639C166.047 156.585 166.137 156.56 166.226 156.569C166.271 156.575 166.314 156.59 166.353 156.613C166.392 156.636 166.426 156.667 166.453 156.703C166.48 156.74 166.5 156.781 166.51 156.825C166.521 156.869 166.523 156.915 166.516 156.959C166.375 157.938 166.375 158.931 166.516 159.909C166.716 160.689 167.056 161.169 168.316 162.959C168.716 163.529 169.216 164.229 169.826 165.119C172.046 168.309 172.356 172.889 172.406 174.199L186.616 173.649C186.707 173.649 186.794 173.683 186.861 173.744C186.927 173.805 186.968 173.889 186.976 173.979C186.979 174.024 186.972 174.069 186.957 174.112C186.942 174.154 186.918 174.193 186.887 174.226C186.856 174.258 186.818 174.285 186.777 174.302C186.736 174.32 186.691 174.329 186.646 174.329L172.086 174.889L172.046 174.849Z" fill="white"/>
<path d="M219.666 239.589C213.336 239.589 205.296 235.489 204.936 235.309C204.856 235.267 204.797 235.195 204.771 235.108C204.744 235.022 204.754 234.929 204.796 234.849C204.816 234.809 204.844 234.773 204.878 234.744C204.912 234.714 204.952 234.692 204.995 234.678C205.037 234.664 205.083 234.659 205.127 234.663C205.172 234.666 205.216 234.679 205.256 234.699C205.346 234.749 214.486 239.409 220.746 238.859C220.791 238.855 220.837 238.86 220.881 238.874C220.924 238.888 220.964 238.911 220.999 238.941C221.033 238.971 221.062 239.007 221.082 239.048C221.102 239.089 221.114 239.134 221.116 239.179C221.12 239.224 221.115 239.269 221.102 239.312C221.089 239.355 221.067 239.394 221.038 239.429C221.009 239.463 220.974 239.492 220.934 239.512C220.894 239.533 220.851 239.546 220.806 239.549C220.436 239.579 220.056 239.589 219.666 239.589Z" fill="white"/>
<path d="M218.816 244.869H218.736C213.126 243.459 206.826 238.299 206.556 238.079C206.495 238.014 206.461 237.929 206.461 237.839C206.461 237.75 206.495 237.664 206.556 237.599C206.584 237.564 206.619 237.535 206.658 237.514C206.698 237.492 206.741 237.479 206.786 237.474C206.83 237.47 206.875 237.474 206.918 237.487C206.961 237.5 207.001 237.521 207.036 237.549C207.096 237.599 213.486 242.839 218.946 244.199C218.989 244.211 219.03 244.231 219.066 244.258C219.102 244.286 219.131 244.32 219.154 244.359C219.176 244.398 219.19 244.441 219.196 244.486C219.201 244.531 219.198 244.576 219.186 244.619C219.167 244.7 219.118 244.77 219.05 244.816C218.981 244.863 218.898 244.882 218.816 244.869Z" fill="white"/>
<path d="M171.766 169.529C171.712 169.529 171.658 169.517 171.61 169.492C171.561 169.468 171.519 169.433 171.486 169.389C171.46 169.352 171.441 169.31 171.431 169.265C171.422 169.221 171.421 169.175 171.429 169.13C171.438 169.085 171.455 169.043 171.48 169.005C171.505 168.967 171.538 168.934 171.576 168.909C172.926 167.969 175.066 166.159 175.066 165.269C175.066 164.679 174.336 163.979 173.556 163.269C172.693 162.548 171.979 161.665 171.456 160.669C170.946 159.479 169.116 154.809 169.456 153.669C169.47 153.626 169.492 153.587 169.521 153.553C169.55 153.518 169.585 153.49 169.625 153.47C169.665 153.449 169.709 153.437 169.754 153.433C169.798 153.43 169.843 153.435 169.886 153.449C169.973 153.479 170.045 153.542 170.086 153.624C170.128 153.706 170.135 153.802 170.106 153.889C169.896 154.499 170.986 157.889 172.056 160.369C172.545 161.273 173.204 162.075 173.996 162.729C174.926 163.619 175.726 164.379 175.726 165.259C175.726 166.799 172.326 169.189 171.936 169.459C171.886 169.497 171.828 169.521 171.766 169.529Z" fill="white"/>
<path d="M138.446 171.489C138.374 171.492 138.302 171.472 138.243 171.432C138.183 171.391 138.137 171.333 138.112 171.265C138.088 171.197 138.086 171.123 138.106 171.054C138.127 170.984 138.169 170.923 138.226 170.879L141.026 168.639C143.716 166.499 145.376 161.029 145.396 160.969C145.424 160.883 145.484 160.81 145.564 160.767C145.645 160.724 145.739 160.714 145.826 160.739C145.913 160.767 145.985 160.827 146.028 160.908C146.071 160.988 146.081 161.082 146.056 161.169C145.986 161.399 144.306 166.899 141.456 169.169L138.656 171.409C138.598 171.46 138.523 171.488 138.446 171.489Z" fill="white"/>
<path d="M204.926 297.689C204.876 297.688 204.827 297.675 204.782 297.653C204.737 297.63 204.698 297.598 204.666 297.559C201.086 293.17 197.853 288.51 194.996 283.619C191.126 276.699 179.996 257.769 179.876 257.619C178.845 255.341 178.08 252.952 177.596 250.499C177.526 250.119 177.476 249.769 177.426 249.499C177.056 246.979 176.896 245.939 173.546 243.779C170.196 241.619 169.986 237.859 169.706 233.829C169.646 232.879 169.576 231.899 169.466 230.929C169.016 226.929 158.396 208.929 150.646 195.849C148.886 192.849 147.286 190.169 145.986 187.939C139.046 175.999 134.246 160.299 134.196 160.139C134.171 160.052 134.181 159.958 134.224 159.878C134.267 159.797 134.339 159.737 134.426 159.709C134.469 159.696 134.514 159.691 134.558 159.695C134.603 159.699 134.646 159.713 134.685 159.734C134.725 159.756 134.759 159.785 134.787 159.82C134.814 159.855 134.835 159.896 134.846 159.939C134.896 160.099 139.676 175.729 146.576 187.589C147.876 189.819 149.476 192.529 151.236 195.499C159.026 208.649 169.686 226.669 170.146 230.849C170.256 231.849 170.326 232.849 170.396 233.789C170.666 237.789 170.896 241.269 173.916 243.209C177.526 245.529 177.706 246.739 178.106 249.389C178.106 249.719 178.206 250.059 178.266 250.439C178.741 252.82 179.486 255.138 180.486 257.349C180.576 257.519 191.716 276.449 195.596 283.349C198.435 288.2 201.644 292.824 205.196 297.179C205.224 297.214 205.246 297.254 205.259 297.297C205.271 297.34 205.276 297.385 205.271 297.43C205.266 297.474 205.253 297.518 205.231 297.557C205.21 297.596 205.181 297.631 205.146 297.659C205.078 297.693 205.001 297.703 204.926 297.689Z" fill="white"/>
<path d="M126.886 148.109C126.886 148.109 127.526 155.189 130.326 157.429C133.126 159.669 141.526 161.629 153.006 159.429C164.486 157.229 177.086 147.429 178.206 144.029C179.326 140.629 173.626 131.829 173.626 131.829C173.626 131.829 167.006 141.229 148.526 144.309C130.046 147.389 126.886 148.109 126.886 148.109Z" fill="white"/>
<path d="M143.276 160.879C136.506 160.879 131.866 159.309 130.006 157.819C127.076 155.469 126.416 148.459 126.386 148.159C126.375 148.04 126.408 147.921 126.478 147.824C126.547 147.727 126.65 147.658 126.766 147.629C126.896 147.629 130.156 146.819 148.446 143.769C166.446 140.769 173.146 131.589 173.216 131.499C173.263 131.435 173.325 131.382 173.396 131.345C173.467 131.309 173.546 131.29 173.626 131.289C173.708 131.291 173.788 131.313 173.86 131.353C173.931 131.393 173.992 131.45 174.036 131.519C174.636 132.439 179.836 140.659 178.676 144.149C177.446 147.829 164.556 157.639 153.096 159.879C149.862 160.527 146.574 160.862 143.276 160.879ZM127.436 148.509C127.626 150.049 128.436 155.269 130.636 157.039C133.136 159.039 141.146 161.199 152.906 158.899C164.466 156.639 176.736 146.829 177.736 143.829C178.526 141.449 175.296 135.439 173.576 132.659C171.796 134.789 164.656 142.089 148.576 144.759C133.756 147.239 128.776 148.179 127.436 148.509Z" fill="#2E353A"/>
<path d="M200.696 79.4793C196.126 76.4793 160.546 48.7593 157.196 47.5393C153.846 46.3193 147.196 47.5393 147.196 47.5393C147.196 47.5393 126.576 50.0593 122.256 51.7993C121.846 51.9593 112.556 57.2993 112.256 57.5793C108.906 60.3193 94.256 67.0593 90.316 75.5793C85.846 85.2193 125.126 143.259 126.956 148.119C128.786 152.979 138.376 154.179 147.196 152.959C156.016 151.739 163.756 149.959 170.146 142.649C171.305 141.193 172.275 139.597 173.036 137.899C173.949 136.002 174.182 133.848 173.696 131.799C171.416 122.299 165.596 94.9093 161.756 76.7993C168.156 80.9293 181.466 89.3193 189.206 92.2793C199.546 96.2793 207.456 93.4993 207.456 90.1493C207.456 86.7993 205.256 82.5193 200.696 79.4793Z" fill="white"/>
<path opacity="0.3" d="M188.346 85.3893C182.249 84.7876 176.344 82.9249 171.006 79.9193C171.006 79.9193 178.916 76.2693 179.216 74.4393C179.516 72.6093 168.266 74.1393 169.786 73.5293C171.306 72.9193 173.436 71.3993 169.786 71.3993C166.876 71.2079 164.01 70.5948 161.276 69.5793L161.686 76.7693C165.166 79.0193 170.686 82.5093 176.226 85.7093C181.437 88.4488 186.803 90.8829 192.296 92.9993C192.296 92.9993 198.986 86.6093 188.346 85.3893Z" fill="#475579"/>
<g style="mix-blend-mode:multiply" opacity="0.3">
<path d="M147.126 152.949L148.256 152.789C150.696 151.609 154.826 150.869 158.846 149.869C164.926 148.349 158.236 148.349 148.196 143.179C138.156 138.009 134.196 130.409 125.076 119.459C115.956 108.509 112.306 103.029 114.136 101.819C115.966 100.609 110.486 100.599 108.356 99.3793C106.226 98.1593 111.356 98.1693 115.656 93.9093C119.956 89.6493 107.436 94.8193 106.226 94.5193C105.016 94.2193 107.436 90.2593 107.436 90.2593L98.616 99.3793L119.906 135.879L121.126 136.789L122.526 138.789L126.526 147.389C126.686 147.689 126.796 147.939 126.866 148.109C128.706 152.979 138.306 154.179 147.126 152.949Z" fill="#475579"/>
</g>
<path opacity="0.3" d="M106.806 67.9093C113.536 66.9093 132.296 77.6093 132.296 77.6093C121.986 70.6093 112.966 64.0493 106.796 61.0893L95.426 69.0893L94.646 69.8193C95.966 69.5593 101.026 68.7293 106.806 67.9093Z" fill="#475579"/>
<path d="M140.726 153.899C133.986 153.899 127.916 152.289 126.416 148.289C125.976 147.109 123.016 142.289 119.266 136.229C103.336 110.389 86.606 82.2293 89.796 75.3593C92.796 68.8793 101.666 63.5293 107.536 59.9893C109.032 59.1395 110.477 58.2046 111.866 57.1893C112.226 56.8993 121.536 51.5393 122.036 51.3393C126.376 49.5893 146.256 47.1493 147.106 47.0493C147.356 46.9993 153.936 45.8193 157.366 47.0493C159.586 47.8593 174.796 59.3693 187.016 68.6193C193.636 73.6193 199.346 77.9593 200.966 79.0393C206.066 82.4393 207.886 86.9793 207.886 90.0993C207.849 90.6784 207.669 91.2393 207.362 91.7316C207.055 92.2238 206.63 92.632 206.126 92.9193C203.176 94.9193 196.726 95.6693 188.956 92.6993C183.526 90.6193 174.366 85.4893 162.426 77.8193C166.426 96.8693 171.916 122.529 174.106 131.649C174.621 133.812 174.378 136.085 173.416 138.089C172.635 139.834 171.626 141.469 170.416 142.949C163.736 150.579 155.606 152.259 147.166 153.419C145.033 153.727 142.881 153.887 140.726 153.899ZM153.126 47.4993C151.159 47.529 149.197 47.7061 147.256 48.0293C147.016 48.0293 126.626 50.5593 122.406 52.2593C121.856 52.5093 112.946 57.6393 112.496 57.9693C111.072 59.0156 109.586 59.974 108.046 60.8393C102.286 64.3193 93.586 69.5793 90.706 75.8393C87.466 82.8393 108.706 117.249 120.116 135.759C124.186 142.359 126.876 146.759 127.356 147.989C129.126 152.709 138.806 153.639 147.056 152.499C155.306 151.359 163.246 149.729 169.696 142.359C170.83 140.939 171.777 139.38 172.516 137.719C173.375 135.927 173.594 133.894 173.136 131.959C170.896 122.639 165.256 96.0893 161.196 76.9593C161.176 76.8616 161.186 76.7602 161.223 76.6678C161.26 76.5754 161.324 76.496 161.406 76.4393C161.488 76.3855 161.583 76.3569 161.681 76.3569C161.779 76.3569 161.874 76.3855 161.956 76.4393C174.336 84.4393 183.796 89.7693 189.316 91.8693C196.696 94.6993 202.916 94.0293 205.556 92.2093C205.92 92.0042 206.229 91.7162 206.461 91.3686C206.692 91.0211 206.837 90.6238 206.886 90.2093C206.886 87.3493 205.186 83.1593 200.416 79.9793C198.766 78.8793 193.046 74.5493 186.416 69.5293C174.886 60.8093 159.106 48.8593 157.026 48.0993C155.767 47.6879 154.45 47.4853 153.126 47.4993Z" fill="#2E353A"/>
<path d="M95.136 69.3493C95.136 69.3493 91.486 73.3493 90.066 75.1993C82.446 84.9893 58.196 116.359 57.926 118.889C57.656 121.419 58.806 123.119 64.736 125.399C70.666 127.679 110.336 87.9293 110.336 87.9293" fill="white"/>
<g style="mix-blend-mode:multiply" opacity="0.2">
<path d="M95.196 69.4693L94.686 69.7993C93.946 70.6193 92.346 72.4093 91.106 73.8793L72.686 98.0393C72.686 98.0393 72.116 98.6793 71.216 99.7393C64.306 108.949 58.286 117.259 57.916 118.739C57.916 118.789 57.916 118.839 57.916 118.879C57.676 121.269 58.836 123.089 64.736 125.359C65.786 125.759 67.866 124.859 70.596 123.109C69.209 122.83 67.8841 122.302 66.686 121.549C63.336 119.419 66.076 117.289 66.076 117.289C66.076 117.289 70.426 119.029 74.716 120.199C75.606 119.529 76.536 118.809 77.486 118.049C76.5722 117.451 75.7062 116.782 74.896 116.049C71.246 112.709 68.206 109.359 68.206 109.359L96.086 70.4493L95.196 69.4693Z" fill="#475579"/>
</g>
<path d="M65.196 125.979C64.9713 125.982 64.7478 125.945 64.536 125.869C59.016 123.739 57.076 121.869 57.406 118.869C57.676 116.379 77.726 90.2693 89.646 74.9293C91.066 73.1093 94.596 69.2193 94.746 69.0593C94.7887 69.0062 94.8418 68.9623 94.902 68.9304C94.9623 68.8986 95.0284 68.8793 95.0963 68.8739C95.1643 68.8686 95.2326 68.8771 95.2971 68.8991C95.3616 68.921 95.421 68.956 95.4715 69.0017C95.522 69.0475 95.5626 69.1031 95.5909 69.1651C95.6192 69.2271 95.6344 69.2942 95.6358 69.3624C95.6371 69.4305 95.6246 69.4982 95.5988 69.5613C95.573 69.6244 95.5347 69.6816 95.486 69.7293C95.486 69.7293 91.826 73.7293 90.436 75.5493C71.176 100.329 58.596 117.379 58.436 118.979C58.206 121.109 59.196 122.769 64.936 124.979C69.066 126.569 94.146 103.499 109.996 87.6093C110.09 87.5151 110.218 87.4623 110.351 87.4623C110.484 87.4623 110.612 87.5151 110.706 87.6093C110.8 87.7034 110.853 87.8312 110.853 87.9643C110.853 88.0975 110.8 88.2251 110.706 88.3193C106.736 92.2393 72.856 125.979 65.196 125.979Z" fill="#2E353A"/>
<path d="M175.406 67.5293L161.686 76.7693C163.686 76.4893 173.166 73.1293 173.166 73.1293" fill="white"/>
<path d="M161.686 77.2693C161.585 77.2708 161.487 77.2408 161.404 77.1834C161.322 77.126 161.26 77.0441 161.226 76.9493C161.184 76.8452 161.179 76.7298 161.212 76.6224C161.244 76.515 161.313 76.4221 161.406 76.3593L175.136 67.1193C175.19 67.0817 175.25 67.0551 175.314 67.0413C175.378 67.0275 175.444 67.0266 175.508 67.0387C175.573 67.0508 175.634 67.0757 175.689 67.1118C175.743 67.148 175.79 67.1948 175.826 67.2493C175.899 67.3611 175.925 67.497 175.899 67.6279C175.873 67.7587 175.796 67.8741 175.686 67.9493L164.436 75.5293C167.886 74.4693 172.936 72.6893 173.006 72.6593C173.139 72.6155 173.283 72.6262 173.408 72.6891C173.533 72.7519 173.627 72.8617 173.671 72.9943C173.715 73.1269 173.704 73.2715 173.641 73.3962C173.578 73.5209 173.469 73.6155 173.336 73.6593C172.946 73.7893 163.746 77.0393 161.756 77.3193L161.686 77.2693Z" fill="#2E353A"/>
<path d="M174.846 73.3493C174.73 73.347 174.618 73.3051 174.529 73.2305C174.44 73.156 174.379 73.0532 174.356 72.9393C174.333 72.8094 174.362 72.6755 174.436 72.5669C174.511 72.4582 174.626 72.3836 174.756 72.3593L177.836 71.7993C177.967 71.7757 178.102 71.8044 178.212 71.8791C178.323 71.9539 178.399 72.0688 178.426 72.1993C178.439 72.2651 178.439 72.3327 178.425 72.3983C178.411 72.4639 178.384 72.5261 178.346 72.5812C178.308 72.6362 178.259 72.683 178.202 72.7187C178.145 72.7545 178.082 72.7785 178.016 72.7893L174.936 73.3493H174.846Z" fill="#2E353A"/>
<path d="M73.196 109.179C71.0788 109.116 68.9732 109.515 67.026 110.349L73.196 109.179Z" fill="white"/>
<path d="M67.026 110.879C66.8934 110.904 66.7562 110.876 66.6447 110.8C66.5331 110.724 66.4562 110.607 66.431 110.474C66.4058 110.342 66.4344 110.204 66.5103 110.093C66.5863 109.981 66.7034 109.904 66.836 109.879C68.855 109.012 71.0398 108.599 73.236 108.669C73.3018 108.674 73.3659 108.692 73.4246 108.722C73.4834 108.752 73.5356 108.793 73.5784 108.844C73.6211 108.894 73.6535 108.952 73.6737 109.015C73.6939 109.077 73.7015 109.144 73.696 109.209C73.6833 109.341 73.6199 109.463 73.5191 109.549C73.4183 109.634 73.2881 109.678 73.156 109.669C71.1207 109.61 69.097 109.996 67.226 110.799C67.1663 110.841 67.0979 110.868 67.026 110.879Z" fill="#2E353A"/>
<path d="M103.096 95.4693C103.096 95.4693 110.806 93.1093 112.846 91.5393L103.096 95.4693Z" fill="white"/>
<path d="M103.096 95.9693C102.963 95.9879 102.829 95.953 102.722 95.8724C102.615 95.7917 102.545 95.6719 102.526 95.5393C102.507 95.4067 102.542 95.2721 102.623 95.1652C102.704 95.0584 102.823 94.9879 102.956 94.9693C103.026 94.9693 110.596 92.6293 112.546 91.1293C112.651 91.0487 112.783 91.0129 112.915 91.0297C113.046 91.0466 113.165 91.1147 113.246 91.2193C113.324 91.3251 113.358 91.4569 113.342 91.5874C113.325 91.7178 113.258 91.8367 113.156 91.9193C111.056 93.5293 103.566 95.8293 103.246 95.9193C103.2 95.946 103.149 95.963 103.096 95.9693Z" fill="#2E353A"/>
<path d="M114.736 90.7593C114.736 90.7593 115.996 89.6593 116.466 89.6593L114.736 90.7593Z" fill="white"/>
<path d="M114.736 91.2593C114.664 91.2587 114.594 91.2432 114.528 91.214C114.463 91.1847 114.404 91.1423 114.356 91.0893C114.264 90.9942 114.212 90.8668 114.212 90.7343C114.212 90.6018 114.264 90.4745 114.356 90.3793C114.921 89.796 115.633 89.3748 116.416 89.1593C116.549 89.1593 116.676 89.212 116.77 89.3058C116.863 89.3995 116.916 89.5267 116.916 89.6593C116.913 89.7911 116.86 89.9168 116.767 90.01C116.674 90.1032 116.548 90.1567 116.416 90.1593C115.901 90.4189 115.429 90.7562 115.016 91.1593C114.936 91.2214 114.838 91.2564 114.736 91.2593Z" fill="#2E353A"/>
<path d="M161.686 77.2693C161.562 77.2677 161.443 77.2212 161.351 77.1384C161.259 77.0556 161.201 76.9422 161.186 76.8193L159.936 63.9693C159.929 63.9036 159.936 63.8373 159.955 63.7741C159.974 63.711 160.005 63.6522 160.047 63.6011C160.089 63.55 160.14 63.5077 160.198 63.4765C160.257 63.4453 160.32 63.4259 160.386 63.4193C160.452 63.4127 160.518 63.4192 160.581 63.4382C160.644 63.4573 160.703 63.4886 160.754 63.5304C160.805 63.5722 160.848 63.6236 160.879 63.6818C160.91 63.7399 160.929 63.8036 160.936 63.8693L162.196 76.7293C162.203 76.7945 162.197 76.8604 162.178 76.9231C162.159 76.9858 162.127 77.0441 162.085 77.0944C162.043 77.1448 161.992 77.1862 161.933 77.2162C161.875 77.2463 161.811 77.2643 161.746 77.2693H161.686Z" fill="#2E353A"/>
<path d="M57.896 119.019C57.896 119.019 56.126 125.789 67.476 128.599C72.866 129.929 108.536 138.599 108.536 138.599C108.536 138.599 111.726 131.759 109.906 131.759C108.086 131.759 75.196 109.889 75.196 109.889" fill="white"/>
<path opacity="0.3" d="M63.196 127.109L104.556 137.669L105.656 135.049C105.656 135.049 90.076 131.929 80.346 127.049C70.616 122.169 69.996 123.699 66.656 121.579C63.316 119.459 66.046 117.319 66.046 117.319C66.046 117.319 75.176 120.969 80.046 121.269C84.916 121.569 78.526 119.449 74.876 116.099C73.366 114.719 71.966 113.329 70.876 112.189L57.876 119.009C57.876 119.009 56.616 123.919 63.196 127.109Z" fill="#475579"/>
<path d="M108.536 139.179H108.416C108.416 139.179 72.746 130.469 67.356 129.179C62.856 128.069 59.806 126.179 58.296 123.669C57.4165 122.279 57.1017 120.604 57.416 118.989C57.4513 118.862 57.5346 118.753 57.6483 118.686C57.7621 118.619 57.8975 118.599 58.026 118.629C58.1529 118.664 58.2609 118.748 58.3264 118.862C58.3919 118.977 58.4098 119.112 58.376 119.239C58.1496 120.606 58.4344 122.009 59.176 123.179C60.546 125.479 63.386 127.179 67.596 128.179C72.596 129.429 104.316 137.179 108.256 138.119C109.486 135.399 110.256 132.759 109.906 132.349C108.006 132.349 80.456 114.049 74.956 110.349C74.8457 110.274 74.7693 110.159 74.7431 110.028C74.717 109.897 74.7431 109.761 74.816 109.649C74.8522 109.595 74.899 109.548 74.9535 109.512C75.0081 109.476 75.0693 109.451 75.1336 109.439C75.1979 109.427 75.264 109.427 75.328 109.441C75.3919 109.455 75.4525 109.482 75.506 109.519C88.456 118.149 108.316 131.079 109.926 131.329C110.089 131.332 110.249 131.374 110.392 131.453C110.535 131.531 110.656 131.643 110.746 131.779C111.576 133.089 109.606 137.549 108.976 138.889C108.937 138.974 108.875 139.046 108.797 139.097C108.72 139.148 108.629 139.177 108.536 139.179Z" fill="#2E353A"/>
<path d="M109.906 131.789C109.906 131.789 121.616 137.269 122.526 138.789C123.436 140.309 125.526 148.209 125.526 150.649C125.526 153.089 125.226 153.079 123.706 153.079C122.186 153.079 118.226 147.299 117.316 146.079C116.406 144.859 114.316 144.859 111.536 143.079C110.761 142.588 110.096 141.943 109.58 141.185C109.064 140.426 108.709 139.57 108.536 138.669L109.906 131.789Z" fill="white"/>
<path d="M123.746 153.579C122.436 153.579 120.276 150.969 117.436 147.049C117.236 146.769 117.076 146.539 116.956 146.389C116.385 145.821 115.669 145.42 114.886 145.229C113.625 144.781 112.42 144.187 111.296 143.459C110.455 142.93 109.731 142.234 109.17 141.413C108.609 140.592 108.223 139.665 108.036 138.689C108.031 138.639 108.031 138.589 108.036 138.539L109.406 131.689C109.421 131.616 109.453 131.546 109.498 131.486C109.542 131.425 109.6 131.375 109.666 131.339C109.734 131.305 109.81 131.287 109.886 131.287C109.962 131.287 110.038 131.305 110.106 131.339C112.106 132.259 122.006 136.959 122.946 138.529C123.886 140.099 126.056 148.139 126.056 150.649C126.056 153.159 125.596 153.579 123.746 153.579ZM109.046 138.649C109.224 139.47 109.565 140.246 110.047 140.933C110.53 141.62 111.145 142.203 111.856 142.649C112.918 143.333 114.055 143.89 115.246 144.309C116.209 144.559 117.08 145.08 117.756 145.809C117.876 145.959 118.046 146.189 118.246 146.479C121.906 151.539 123.246 152.599 123.746 152.599C125.066 152.599 125.066 152.599 125.066 150.669C125.066 148.309 122.986 140.539 122.066 139.059C121.486 138.059 114.736 134.659 110.236 132.529L109.046 138.649Z" fill="#2E353A"/>
<path d="M104.906 137.959C104.856 137.969 104.806 137.969 104.756 137.959C104.693 137.94 104.634 137.908 104.584 137.866C104.533 137.823 104.492 137.771 104.462 137.712C104.432 137.654 104.414 137.589 104.41 137.523C104.405 137.458 104.414 137.392 104.436 137.329L106.256 131.679C106.274 131.615 106.306 131.554 106.348 131.502C106.39 131.45 106.443 131.407 106.502 131.375C106.561 131.343 106.627 131.324 106.694 131.318C106.761 131.313 106.828 131.32 106.892 131.341C106.956 131.362 107.015 131.396 107.066 131.44C107.116 131.484 107.157 131.538 107.187 131.598C107.216 131.659 107.233 131.725 107.236 131.792C107.24 131.859 107.229 131.926 107.206 131.989L105.386 137.639C105.348 137.735 105.281 137.817 105.196 137.874C105.11 137.931 105.009 137.961 104.906 137.959Z" fill="#2E353A"/>
<path d="M193.696 89.1793C193.696 89.1793 190.696 99.5193 189.436 105.599C188.176 111.679 179.706 136.019 179.706 136.019L187.006 140.579C187.006 140.579 203.126 107.179 206.196 99.8593C209.266 92.5393 208.326 87.0793 205.286 84.0393" fill="white"/>
<path d="M187.006 141.109C186.914 141.107 186.824 141.079 186.746 141.029L179.446 136.469C179.349 136.41 179.275 136.319 179.237 136.211C179.199 136.104 179.199 135.987 179.236 135.879C179.316 135.639 187.756 111.509 188.946 105.539C190.136 99.5693 193.196 89.1793 193.196 89.0693C193.233 88.9367 193.321 88.8243 193.441 88.7567C193.561 88.6892 193.703 88.6722 193.836 88.7093C193.969 88.7464 194.081 88.8347 194.149 88.9547C194.216 89.0748 194.233 89.2167 194.196 89.3493C194.196 89.4493 191.146 99.7393 189.946 105.729C188.806 111.439 181.456 132.619 180.326 135.839L186.816 139.889C188.816 135.679 202.926 106.379 205.726 99.6593C208.426 93.1693 208.136 87.6593 204.926 84.3893C204.833 84.2965 204.781 84.1706 204.781 84.0393C204.781 83.908 204.833 83.7821 204.926 83.6893C205.019 83.5965 205.145 83.5443 205.276 83.5443C205.407 83.5443 205.533 83.5965 205.626 83.6893C209.146 87.1993 209.516 93.1693 206.626 100.049C203.626 107.279 187.626 140.489 187.456 140.829C187.426 140.893 187.383 140.949 187.33 140.994C187.276 141.038 187.213 141.071 187.146 141.089L187.006 141.109Z" fill="#2E353A"/>
<path d="M181.086 132.539C181.636 132.539 188.566 136.359 188.566 136.359L181.086 132.539Z" fill="#2E353A"/>
<path d="M133.126 77.6093C131.446 77.3293 122.476 71.4493 116.316 66.6893C110.156 61.9293 106.796 61.0893 106.796 61.0893L102.596 63.8893C101.96 61.8427 102.162 59.6277 103.156 57.7293C104.836 54.6493 110.716 51.5693 116.596 49.3293C122.476 47.0893 129.196 45.1793 133.406 45.1793C137.616 45.1793 138.726 46.8593 138.726 49.0993C138.726 51.3393 138.726 58.3393 137.326 63.6593C135.926 68.9793 133.126 77.6093 133.126 77.6093Z" fill="white"/>
<path d="M133.126 78.1093H133.036C131.176 77.7993 121.966 71.6893 116.036 67.1093C110.886 63.1093 107.706 61.9193 106.896 61.6593L102.896 64.3293C102.831 64.3688 102.758 64.3945 102.682 64.4048C102.607 64.4151 102.53 64.4098 102.456 64.3893C102.384 64.3646 102.319 64.3238 102.265 64.2701C102.212 64.2164 102.171 64.1511 102.146 64.0793C101.803 62.9998 101.679 61.863 101.78 60.735C101.882 59.6069 102.206 58.5104 102.736 57.5093C104.736 53.7693 112.196 50.5093 116.446 48.8793C119.786 47.6093 128.126 44.6493 133.446 44.6493C137.356 44.6493 139.266 46.0893 139.266 49.0693C139.266 51.3693 139.266 58.3793 137.846 63.7593C136.426 69.1393 133.666 77.6993 133.636 77.7593C133.604 77.8674 133.536 77.9612 133.443 78.0249C133.35 78.0887 133.238 78.1185 133.126 78.1093ZM106.796 60.5893H106.916C107.056 60.5893 110.456 61.5093 116.626 66.2793C122.416 70.7493 130.486 76.0693 132.796 76.9793C133.396 75.0993 135.646 67.9793 136.796 63.4593C138.186 58.2093 138.186 51.2993 138.186 49.0293C138.186 47.3393 137.616 45.6093 133.366 45.6093C129.746 45.6093 123.686 47.1293 116.736 49.7793C109.786 52.4293 104.936 55.4193 103.556 57.9493C102.729 59.5208 102.481 61.3334 102.856 63.0693L106.476 60.6593C106.571 60.5999 106.684 60.5752 106.796 60.5893Z" fill="#2E353A"/>
<path d="M108.196 42.0693C111.477 45.6872 113.779 50.0826 114.886 54.8393C116.706 62.7493 128.146 72.0493 130.886 72.0493C133.626 72.0493 133.436 58.4893 132.526 54.5393C131.616 50.5893 127.966 39.9393 127.966 39.9393C127.966 39.9393 113.406 32.9393 108.196 42.0693Z" fill="white"/>
<path d="M130.926 72.5493C127.986 72.5493 116.286 62.9893 114.436 54.9493C113.339 50.2869 111.083 45.9769 107.876 42.4193C107.799 42.3418 107.749 42.2411 107.735 42.1328C107.72 42.0244 107.742 41.9143 107.796 41.8193C113.136 32.3993 128.066 39.4093 128.216 39.4893C128.277 39.5178 128.331 39.5581 128.375 39.608C128.42 39.6578 128.454 39.716 128.476 39.7793C128.626 40.2093 132.146 50.4893 133.056 54.4293C133.846 57.8893 134.216 69.2593 132.116 71.9093C131.981 72.1011 131.803 72.2588 131.597 72.3698C131.39 72.4809 131.16 72.5424 130.926 72.5493ZM108.856 41.9993C112.064 45.632 114.315 50.0073 115.406 54.7293C117.226 62.5793 128.596 71.5493 130.926 71.5493C130.926 71.5493 131.116 71.5493 131.326 71.2793C133.026 69.1493 132.916 58.2793 132.076 54.6493C131.236 51.0193 128.076 41.7993 127.596 40.2993C125.926 39.5593 113.576 34.3893 108.856 41.9993Z" fill="#2E353A"/>
<g style="mix-blend-mode:multiply" opacity="0.3">
<path d="M131.9 48C131.9 48 129.31 55.76 126.72 58.09C124.72 59.7671 122.556 61.2379 120.26 62.48C120.26 62.48 118.71 57.05 114.83 57.05C110.95 57.05 105 59.64 105 59.64C105 59.64 105 57.57 109.91 54.98L114.83 52.4L126.21 48H131.9Z" fill="#475579"/>
</g>
<path d="M108.196 42.0693C111.477 45.6872 113.779 50.0826 114.886 54.8393C116.706 62.7493 128.146 72.0493 130.886 72.0493C133.626 72.0493 133.436 58.4893 132.526 54.5393C131.616 50.5893 127.966 39.9393 127.966 39.9393C127.966 39.9393 113.406 32.9393 108.196 42.0693Z" fill="white"/>
<path d="M130.926 72.5493C127.986 72.5493 116.286 62.9893 114.436 54.9493C113.339 50.2869 111.083 45.9769 107.876 42.4193C107.799 42.3418 107.749 42.2411 107.735 42.1328C107.72 42.0244 107.742 41.9143 107.796 41.8193C113.136 32.3993 128.066 39.4093 128.216 39.4893C128.277 39.5178 128.331 39.5581 128.375 39.608C128.42 39.6578 128.454 39.716 128.476 39.7793C128.626 40.2093 132.146 50.4893 133.056 54.4293C133.846 57.8893 134.216 69.2593 132.116 71.9093C131.981 72.1011 131.803 72.2588 131.597 72.3698C131.39 72.4809 131.16 72.5424 130.926 72.5493ZM108.856 41.9993C112.064 45.632 114.315 50.0073 115.406 54.7293C117.226 62.5793 128.596 71.5493 130.926 71.5493C130.926 71.5493 131.116 71.5493 131.326 71.2793C133.026 69.1493 132.916 58.2793 132.076 54.6493C131.236 51.0193 128.076 41.7993 127.596 40.2993C125.926 39.5593 113.576 34.3893 108.856 41.9993Z" fill="#2E353A"/>
<path d="M98.586 27.4093C100.732 33.2438 103.385 38.8788 106.516 44.2493C111.136 51.8393 120.056 56.1393 125.006 54.1593C129.956 52.1793 133.326 45.7893 132.006 35.8893C131.716 33.7093 129.816 32.8193 129.206 30.8893C127.016 23.8893 124.786 17.1393 124.016 14.5693C123.016 11.2593 115.096 7.95928 106.846 10.2693C98.596 12.5793 97.266 19.4793 98.586 27.4093Z" fill="white"/>
<path d="M125.996 21.3493C125.996 21.3493 122.996 23.5793 116.256 22.2893C109.516 20.9993 104.876 21.2893 105.136 23.0693C105.396 24.8493 105.916 27.1993 105.916 27.1993C105.916 27.1993 97.826 20.1993 105.156 18.3393C110.436 16.9693 113.486 19.0493 114.776 19.3393C116.066 19.6293 125.996 21.3493 125.996 21.3493Z" fill="#92E3A9"/>
<path opacity="0.5" d="M125.996 21.3493C125.996 21.3493 122.996 23.5793 116.256 22.2893C109.516 20.9993 104.876 21.2893 105.136 23.0693C105.396 24.8493 105.916 27.1993 105.916 27.1993C105.916 27.1993 97.826 20.1993 105.156 18.3393C110.436 16.9693 113.486 19.0493 114.776 19.3393C116.066 19.6293 125.996 21.3493 125.996 21.3493Z" fill="white"/>
<path d="M122.246 55.1793C116.876 55.1793 109.886 50.7893 106.086 44.5393C102.928 39.1379 100.251 33.4694 98.086 27.5993C98.0803 27.5729 98.0803 27.5457 98.086 27.5193C96.436 17.6693 99.256 11.8593 106.696 9.7793C115.326 7.3593 123.436 10.9193 124.486 14.4093C124.846 15.6193 125.486 17.7393 126.376 20.4093C127.376 23.4093 128.506 27.0393 129.666 30.7593C129.956 31.4994 130.384 32.178 130.926 32.7593C131.735 33.6082 132.277 34.6755 132.486 35.8293C133.966 46.9393 129.686 52.8293 125.186 54.6293C124.25 54.9984 123.252 55.1851 122.246 55.1793ZM99.076 27.2793C101.207 33.0666 103.837 38.6577 106.936 43.9893C111.586 51.6193 120.376 55.4693 124.826 53.6893C128.976 52.0293 132.916 46.4993 131.506 35.9493C131.323 34.9855 130.868 34.094 130.196 33.3793C129.564 32.6865 129.078 31.8737 128.766 30.9893C127.606 27.2793 126.436 23.6393 125.476 20.6493C124.626 18.0093 123.946 15.8793 123.576 14.6493C122.736 11.8693 115.346 8.3593 107.016 10.6493C100.136 12.6293 97.546 18.0493 99.076 27.2793Z" fill="#2E353A"/>
<path d="M104.536 38.2993C104.536 38.2993 99.246 35.9893 98.916 38.2993C98.586 40.6093 100.916 42.2993 103.206 43.2993C103.777 43.6116 104.428 43.747 105.076 43.6883C105.724 43.6295 106.34 43.3792 106.846 42.9693" fill="white"/>
<path d="M104.876 44.1793C104.235 44.1713 103.601 44.0317 103.016 43.7693C99.746 42.3693 98.116 40.4193 98.426 38.2793C98.4524 38.0347 98.5382 37.8002 98.6759 37.5963C98.8136 37.3924 98.999 37.2252 99.216 37.1093C100.806 36.2193 104.336 37.7193 104.736 37.8993C104.849 37.9586 104.934 38.0587 104.976 38.179C105.017 38.2994 105.011 38.431 104.959 38.547C104.907 38.6631 104.812 38.7548 104.694 38.8035C104.577 38.8523 104.445 38.8543 104.326 38.8093C103.006 38.2293 100.576 37.4993 99.696 37.9793C99.616 38.023 99.5483 38.0863 99.4994 38.1633C99.4504 38.2402 99.4217 38.3283 99.416 38.4193C99.096 40.6493 101.776 42.1493 103.416 42.8493C103.897 43.1168 104.446 43.2376 104.995 43.1967C105.545 43.1558 106.07 42.9551 106.506 42.6193C106.602 42.538 106.726 42.496 106.851 42.5018C106.977 42.5075 107.096 42.5605 107.185 42.6502C107.273 42.7399 107.324 42.8597 107.328 42.9856C107.332 43.1115 107.289 43.2342 107.206 43.3293C106.565 43.8968 105.732 44.2004 104.876 44.1793Z" fill="#2E353A"/>
<path d="M126.126 25.2393C126.126 25.2393 120.236 23.8393 122.756 31.6893C123.256 33.2393 126.686 35.0493 126.686 35.0493C126.686 35.0493 126.406 37.5693 125.006 37.8493" fill="white"/>
<path d="M124.996 38.3493C124.881 38.3475 124.77 38.307 124.682 38.2344C124.593 38.1619 124.531 38.0614 124.506 37.9493C124.493 37.8843 124.493 37.8173 124.506 37.7522C124.519 37.6872 124.545 37.6254 124.582 37.5705C124.62 37.5156 124.667 37.4686 124.723 37.4324C124.779 37.3961 124.841 37.3713 124.906 37.3593C125.626 37.2093 125.996 36.0193 126.136 35.3593C125.216 34.8393 122.756 33.3593 122.286 31.8793C121.346 28.9593 121.426 26.8793 122.516 25.6993C123.856 24.2493 126.136 24.7793 126.236 24.7993C126.364 24.8302 126.475 24.9106 126.545 25.023C126.614 25.1354 126.636 25.2707 126.606 25.3993C126.592 25.4636 126.565 25.5243 126.527 25.578C126.489 25.6317 126.441 25.6771 126.385 25.7116C126.329 25.7462 126.266 25.7691 126.201 25.779C126.136 25.7889 126.07 25.7856 126.006 25.7693C126.006 25.7693 124.186 25.3593 123.246 26.3793C122.306 27.3993 122.426 29.0593 123.246 31.5693C123.566 32.5693 125.676 33.9793 126.926 34.6393C127.013 34.6888 127.083 34.7623 127.13 34.851C127.176 34.9397 127.195 35.0398 127.186 35.1393C127.186 35.4393 126.816 38.0393 125.106 38.3793L124.996 38.3493Z" fill="#2E353A"/>
<path d="M121.916 43.4493C121.916 43.4493 117.716 44.2893 116.036 42.3293L121.916 43.4493Z" fill="white"/>
<path d="M119.906 44.1793C119.134 44.2406 118.357 44.1406 117.625 43.8859C116.894 43.6311 116.223 43.227 115.656 42.6993C115.613 42.6494 115.581 42.5916 115.561 42.5291C115.54 42.4667 115.532 42.4009 115.537 42.3354C115.543 42.2699 115.561 42.2061 115.59 42.1476C115.62 42.0891 115.661 42.037 115.711 41.9943C115.761 41.9516 115.819 41.9192 115.881 41.8989C115.944 41.8785 116.009 41.8707 116.075 41.8758C116.14 41.8809 116.204 41.8988 116.263 41.9286C116.321 41.9584 116.373 41.9994 116.416 42.0493C117.886 43.7693 121.786 43.0493 121.826 43.0493C121.89 43.0348 121.956 43.0335 122.02 43.0455C122.085 43.0575 122.146 43.0825 122.2 43.119C122.255 43.1556 122.301 43.2028 122.336 43.2579C122.372 43.313 122.395 43.3747 122.406 43.4393C122.419 43.5036 122.419 43.57 122.407 43.6344C122.395 43.6989 122.369 43.7603 122.333 43.8151C122.297 43.8699 122.25 43.917 122.196 43.9538C122.141 43.9905 122.08 44.0162 122.016 44.0293C121.318 44.1399 120.612 44.1901 119.906 44.1793Z" fill="#2E353A"/>
<path d="M115.756 30.2893C115.756 30.2893 112.676 29.1693 110.996 30.5693C110.097 31.1951 109.401 32.0715 108.996 33.0893" fill="white"/>
<path d="M109.036 33.5793H108.916C108.852 33.563 108.792 33.5342 108.74 33.4947C108.687 33.4552 108.643 33.4057 108.609 33.349C108.576 33.2924 108.554 33.2296 108.545 33.1645C108.536 33.0993 108.539 33.033 108.556 32.9693C108.974 31.8545 109.712 30.8876 110.676 30.1893C112.556 28.6293 115.796 29.7793 115.926 29.8293C115.989 29.8505 116.046 29.8841 116.095 29.9281C116.145 29.9721 116.184 30.0256 116.212 30.0854C116.24 30.1451 116.256 30.21 116.258 30.2759C116.261 30.3419 116.25 30.4077 116.226 30.4693C116.181 30.5939 116.088 30.6955 115.968 30.7518C115.848 30.808 115.711 30.8143 115.586 30.7693C115.586 30.7693 112.756 29.7693 111.316 30.9593C110.523 31.5343 109.904 32.3161 109.526 33.2193C109.494 33.3239 109.429 33.4155 109.341 33.4803C109.252 33.5451 109.146 33.5798 109.036 33.5793Z" fill="#2E353A"/>
<path d="M115.676 35.0793C116.076 36.0093 115.996 36.9293 115.496 37.1393C114.996 37.3493 114.276 36.7793 113.876 35.8493C113.476 34.9193 113.566 34.0093 114.066 33.7893C114.566 33.5693 115.286 34.1793 115.676 35.0793Z" fill="#2E353A"/>
<path d="M125.746 30.1793C126.146 31.0993 126.056 32.0193 125.566 32.2393C125.076 32.4593 124.336 31.8693 123.946 30.9493C123.556 30.0293 123.626 29.0993 124.126 28.8893C124.626 28.6793 125.346 29.2593 125.746 30.1793Z" fill="#2E353A"/>
<path d="M103.066 39.6293C103.066 39.6293 106.406 37.1993 105.796 35.0693C105.186 32.9393 103.976 32.9393 105.196 31.7293C106.416 30.5193 107.316 29.8993 107.016 28.0793C106.716 26.2593 101.846 23.2093 103.366 21.3893C104.886 19.5693 104.276 17.3893 116.746 20.4693C129.216 23.5493 137.126 18.6493 133.476 14.0893C129.826 9.5293 126.786 8.91929 126.786 8.91929C126.786 8.91929 133.786 5.91929 128.006 2.82929C122.226 -0.260705 109.146 -0.170707 101.846 5.56929C94.546 11.3093 96.066 16.1793 96.066 16.1793C96.066 16.1793 92.116 16.7893 91.806 22.8793C91.496 28.9693 103.066 39.6293 103.066 39.6293Z" fill="#2E353A"/>
<path d="M122.966 19.2593C120.308 19.1477 117.691 18.5653 115.236 17.5393C113.312 16.7189 111.263 16.232 109.176 16.0993C104.346 16.0993 103.346 18.8393 103.306 18.9593C103.293 19.002 103.271 19.0415 103.241 19.0754C103.212 19.1093 103.176 19.137 103.136 19.1566C103.096 19.1762 103.052 19.1875 103.007 19.1897C102.963 19.1919 102.918 19.1849 102.876 19.1693C102.833 19.1557 102.794 19.1337 102.759 19.1047C102.725 19.0757 102.697 19.0401 102.676 19.0001C102.656 18.9602 102.644 18.9165 102.64 18.8718C102.637 18.827 102.642 18.782 102.656 18.7393C102.706 18.6093 103.826 15.4093 109.176 15.4093C111.343 15.5375 113.472 16.0417 115.466 16.8993C118.576 18.0093 121.806 19.1593 125.866 18.2593C128.066 17.7693 129.356 16.9793 129.676 15.9293C130.096 14.5793 128.796 13.1693 128.786 13.1493C128.722 13.0856 128.687 12.9993 128.687 12.9093C128.687 12.8193 128.722 12.733 128.786 12.6693C128.853 12.6074 128.94 12.5731 129.031 12.5731C129.122 12.5731 129.209 12.6074 129.276 12.6693C129.336 12.7393 130.856 14.3893 130.326 16.1193C129.916 17.4293 128.466 18.3693 126.006 18.9193C125.008 19.1401 123.989 19.2541 122.966 19.2593Z" fill="white"/>
<path d="M100.656 18.4193C100.565 18.4116 100.48 18.3686 100.421 18.2995C100.361 18.2303 100.33 18.1405 100.336 18.0493C100.336 17.9793 100.926 11.3793 106.776 9.8993C110.226 9.0293 114.216 9.6793 117.426 10.1993C119.426 10.5293 121.216 10.8193 121.966 10.5293C122.048 10.5117 122.134 10.5243 122.208 10.5649C122.282 10.6055 122.339 10.6713 122.368 10.7503C122.397 10.8293 122.397 10.9162 122.367 10.9949C122.337 11.0737 122.28 11.1392 122.206 11.1793C121.286 11.5193 119.536 11.2393 117.316 10.8793C114.166 10.3593 110.246 9.7293 106.946 10.5593C101.566 11.9293 101.026 18.0393 101.016 18.0993C101.013 18.144 101.002 18.1877 100.983 18.228C100.963 18.2683 100.936 18.3043 100.902 18.334C100.869 18.3638 100.83 18.3866 100.788 18.4012C100.745 18.4159 100.701 18.422 100.656 18.4193Z" fill="white"/>
<path d="M96.786 28.7393C96.7182 28.7381 96.6522 28.7173 96.596 28.6793C95.6982 27.9264 95.0021 26.9615 94.5709 25.872C94.1396 24.7825 93.9867 23.6027 94.126 22.4393C94.406 18.0393 97.786 17.9893 97.826 17.9893C97.9074 18.0032 97.9813 18.0455 98.0346 18.1086C98.0878 18.1717 98.1171 18.2517 98.1171 18.3343C98.1171 18.4169 98.0878 18.4968 98.0346 18.56C97.9813 18.6231 97.9074 18.6654 97.826 18.6793C97.706 18.6793 95.046 18.7393 94.826 22.4793C94.6907 23.5257 94.8182 24.5893 95.1971 25.574C95.5759 26.5587 96.1942 27.4335 96.996 28.1193C97.0329 28.1443 97.0643 28.1764 97.0885 28.2139C97.1126 28.2513 97.1289 28.2933 97.1364 28.3372C97.1439 28.3811 97.1424 28.4261 97.132 28.4694C97.1216 28.5127 97.1026 28.5535 97.076 28.5893C97.0456 28.638 97.0026 28.6777 96.9516 28.7041C96.9006 28.7304 96.8434 28.7426 96.786 28.7393Z" fill="white"/>
<path d="M98.856 25.8993C98.7906 25.8993 98.7265 25.8805 98.6715 25.845C98.6166 25.8095 98.573 25.7589 98.546 25.6993C98.2993 25.2431 98.1529 24.7394 98.1167 24.222C98.0805 23.7046 98.1553 23.1854 98.336 22.6993C98.7772 21.7461 99.5634 20.9957 100.536 20.5993C100.577 20.5816 100.622 20.5725 100.666 20.5726C100.711 20.5726 100.756 20.5818 100.797 20.5996C100.838 20.6174 100.875 20.6434 100.906 20.676C100.937 20.7086 100.961 20.7472 100.976 20.7893C101.009 20.8729 101.007 20.966 100.972 21.0485C100.936 21.1309 100.869 21.1959 100.786 21.2293C99.9899 21.5665 99.3432 22.1812 98.966 22.9593C98.8244 23.3586 98.7691 23.7834 98.8036 24.2057C98.838 24.628 98.9616 25.0382 99.166 25.4093C99.2036 25.4929 99.2068 25.588 99.1751 25.674C99.1433 25.7601 99.079 25.8302 98.996 25.8693C98.9519 25.8888 98.9043 25.899 98.856 25.8993Z" fill="white"/>
<path d="M99.626 31.3193C99.5708 31.3181 99.5167 31.3039 99.468 31.2779C99.4193 31.2518 99.3775 31.2146 99.346 31.1693L98.056 29.3693C98.0029 29.295 97.9816 29.2027 97.9966 29.1127C98.0116 29.0227 98.0617 28.9423 98.136 28.8893C98.2103 28.8363 98.3025 28.8149 98.3926 28.8299C98.4826 28.8449 98.563 28.895 98.616 28.9693L99.906 30.7793C99.957 30.8525 99.9771 30.9427 99.9622 31.0307C99.9472 31.1186 99.8983 31.1971 99.826 31.2493C99.7696 31.2954 99.6988 31.3202 99.626 31.3193Z" fill="white"/>
</svg>
