<svg width="500" height="421" viewBox="0 0 500 421" fill="none" xmlns="http://www.w3.org/2000/svg">
<path opacity="0.1" d="M377.85 155.097C364.071 149.427 349.47 146.837 335.85 140.607C321.77 134.187 316.34 124.547 305.611 113.157C286.201 92.548 253.171 96.508 229.381 108.537C225.551 110.477 221.961 112.617 218.711 114.907C207.331 122.897 198.181 134.527 187.001 142.537C176.441 150.107 163.551 151.947 151.471 153.218C130.421 155.417 86.501 176.568 94.431 215.758C97.311 230.018 107.492 239.707 112.692 252.617C118.242 266.357 117.652 283.497 126.482 295.407C130.362 300.637 135.711 304.097 141.211 306.718C177.821 324.148 218.921 323.338 257.741 321.417C288.371 319.907 337.571 327.917 364.481 308.348C377.84 298.628 370.89 272.068 380.14 257.798C387.911 245.808 398.481 237.938 403.67 222.928C412.51 197.387 399.91 164.156 377.85 155.097ZM341.24 237.797V267.406L314.74 283.276L289.19 267.976L288.759 268.266L279.739 273.766V300.656L253.239 316.526L226.739 300.656V272.186L219.909 268.366L218.899 268.206L193.739 283.276L167.239 267.406V237.797L193.739 221.526L216.729 235.636L226.739 230.126V201.546L253.239 185.275L279.218 201.225L287.638 196.595L288.239 196.015V168.265L277.949 162.454L253.239 177.244L227.808 162.024L227.189 162.284L219.018 167.045L220.239 167.795V197.404L193.739 213.274L167.239 197.404V197.204L138 214.137L137 212.416L167.24 194.906V167.797L193.74 151.526L217.08 165.856H217.09L226.361 160.456L226.741 160.297V131.767L253.241 115.496L279.741 131.767V161.177L289.831 166.817L314.741 151.527L341.241 167.798V197.407L314.741 213.277L289.1 197.927L288.72 198.286L279.741 203.226V231.156L253.241 247.026L227.841 231.816L218.692 236.846L220.242 237.796V266.396L220.572 266.446L227.721 270.446L253.242 254.776L279.742 271.047V271.427L287.721 266.557L288.242 266.206V237.797L314.742 221.526L335.762 234.436L352.222 225.426L354.262 226.136L337.642 235.586L341.24 237.797Z" fill="#7EA3CD"/>
<path d="M167.24 194.906V197.206L138 214.137L137 212.416L167.24 194.906Z" fill="#2A94F4"/>
<path d="M227.81 162.026L227.19 162.286L219.02 167.047L217.09 165.856L226.36 160.456L226.74 160.297V161.387L227.81 162.026Z" fill="#2A94F4"/>
<path d="M227.84 231.816L218.69 236.847L216.73 235.637L226.74 230.127V231.156L227.84 231.816Z" fill="#2A94F4"/>
<path d="M355.26 225.137L337.64 235.587L335.76 234.437L353.22 224.427L355.26 225.137Z" fill="#2A94F4"/>
<path opacity="0.8" d="M193.74 182.576V213.276L167.24 197.406V167.797L191.01 181.057L193.03 182.187H193.04L193.74 182.576Z" fill="#405DA7"/>
<path d="M220.24 167.797V197.406L193.74 213.276V182.576L220.24 167.797Z" fill="#405DA7"/>
<path opacity="0.6" d="M220.24 167.797L193.74 182.576L193.04 182.187H193.03L191.01 181.057L167.24 167.797L193.74 151.526L217.08 165.856H217.09L219.02 167.047L220.24 167.797Z" fill="#405DA7"/>
<path opacity="0.8" d="M314.74 182.576V213.276L289.1 197.927L288.24 197.406V167.797L295.09 171.616L295.1 171.627L314.74 182.576Z" fill="#405DA7"/>
<path d="M341.24 167.797V197.406L314.74 213.276V182.576L341.24 167.797Z" fill="#405DA7"/>
<path opacity="0.6" d="M341.24 167.797L314.74 182.576L295.1 171.627L295.09 171.616L288.24 167.797L289.83 166.816L314.74 151.526L341.24 167.797Z" fill="#405DA7"/>
<path opacity="0.8" d="M193.74 252.576V283.276L167.24 267.406V237.797L193.74 252.576Z" fill="#405DA7"/>
<path d="M220.24 237.797V267.406L218.9 268.206L193.74 283.276V252.576L215.24 240.587L217.24 239.467L220.24 237.797Z" fill="#405DA7"/>
<path opacity="0.6" d="M220.24 237.797L217.24 239.467L215.24 240.587L193.74 252.576L167.24 237.797L193.74 221.526L216.73 235.637L218.69 236.847L220.24 237.797Z" fill="#405DA7"/>
<path opacity="0.8" d="M314.74 252.576V283.276L289.19 267.977L288.24 267.406V237.797L311.41 250.717L313.37 251.807L314.74 252.576Z" fill="#405DA7"/>
<path d="M341.24 237.797V267.406L314.74 283.276V252.576L341.24 237.797Z" fill="#405DA7"/>
<path opacity="0.6" d="M341.24 237.797L314.74 252.576L313.37 251.807L311.41 250.717L288.24 237.797L314.74 221.526L335.76 234.437L337.64 235.587L341.24 237.797Z" fill="#405DA7"/>
<path opacity="0.8" d="M253.24 146.547V177.246L227.81 162.026L226.74 161.387V131.767L253.24 146.547Z" fill="#405DA7"/>
<path d="M289.83 166.816L288.24 167.797V168.267L277.95 162.456L279.74 161.387V161.177L289.83 166.816Z" fill="#2A94F4"/>
<path d="M279.74 131.767V161.387L277.95 162.456L253.24 177.246V146.547L279.74 131.767Z" fill="#405DA7"/>
<path opacity="0.6" d="M279.74 131.767L253.24 146.547L226.74 131.767L253.24 115.496L279.74 131.767Z" fill="#405DA7"/>
<path opacity="0.8" d="M253.24 216.326V247.026L227.84 231.816L226.74 231.156V201.547L252.53 215.927L253.24 216.326Z" fill="#405DA7"/>
<path d="M279.74 201.547V231.156L253.24 247.026V216.326L279.74 201.547Z" fill="#405DA7"/>
<path d="M289.1 197.927L288.72 198.286L279.74 203.227V201.547L279.22 201.227L287.64 196.597L288.24 196.017V197.406L289.1 197.927Z" fill="#2A94F4"/>
<path opacity="0.6" d="M279.74 201.547L253.24 216.326L252.53 215.927L226.74 201.547L253.24 185.276L279.22 201.227L279.74 201.547Z" fill="#405DA7"/>
<path opacity="0.8" d="M253.24 285.826V316.526L226.74 300.656V271.047L234.95 275.627L234.98 275.637L253.24 285.826Z" fill="#405DA7"/>
<path d="M289.19 267.977L288.76 268.267L279.74 273.767V271.427L287.72 266.557L288.24 266.206V267.406L289.19 267.977Z" fill="#2A94F4"/>
<path d="M279.74 271.047V300.656L253.24 316.526V285.826L257.25 283.587L259.57 282.297L279.74 271.047Z" fill="#405DA7"/>
<path d="M227.72 270.446L226.74 271.047V272.187L219.91 268.366L218.9 268.206L220.24 267.406V266.396L220.57 266.446L227.72 270.446Z" fill="#2A94F4"/>
<path opacity="0.6" d="M279.74 271.047L259.57 282.297L257.25 283.587L253.24 285.826L234.98 275.637L234.95 275.627L226.74 271.047L227.72 270.446L253.24 254.776L279.74 271.047Z" fill="#405DA7"/>
<path d="M140.25 218.526C144.254 218.526 147.5 215.28 147.5 211.276C147.5 207.272 144.254 204.026 140.25 204.026C136.246 204.026 133 207.272 133 211.276C133 215.28 136.246 218.526 140.25 218.526Z" fill="#2A94F4"/>
<path d="M351.934 232.791C355.938 232.791 359.184 229.545 359.184 225.541C359.184 221.537 355.938 218.291 351.934 218.291C347.93 218.291 344.684 221.537 344.684 225.541C344.684 229.545 347.93 232.791 351.934 232.791Z" fill="#2A94F4"/>
<line x1="388.158" y1="222.526" x2="391.158" y2="223.526" stroke="black"/>
</svg>
