<svg width="201" height="51" viewBox="0 0 201 51" fill="none" xmlns="http://www.w3.org/2000/svg">
<path d="M48.9062 45C54.0312 45 58.3854 44.0729 61.9688 42.2188C65.5521 40.3438 68.2396 37.8646 70.0312 34.7812C71.8438 31.6771 72.75 28.2812 72.75 24.5938C72.75 21.0938 72.0521 17.9375 70.6562 15.125C69.2604 12.3125 66.8854 10.0417 63.5312 8.3125C60.1979 6.5625 55.7604 5.6875 50.2188 5.6875C46.0104 5.6875 40.6667 6.19792 34.1875 7.21875L33.9062 9.59375L39.2812 10.5312V40.9688L33.9062 42.6875L33.4688 45H48.9062ZM45.25 9.03125C46.0833 8.94792 47.3542 8.90625 49.0625 8.90625C52.7708 8.90625 55.9062 9.67708 58.4688 11.2188C61.0312 12.7396 62.9479 14.8229 64.2188 17.4688C65.5104 20.0938 66.1562 23.0417 66.1562 26.3125C66.1562 29.1875 65.5417 31.7917 64.3125 34.125C63.1042 36.4583 61.2708 38.3125 58.8125 39.6875C56.3542 41.0625 53.3438 41.75 49.7812 41.75H45.25V9.03125ZM82.03 9.8125V41.2188L76.8112 42.6875L76.5612 45H95.03L95.4362 42.4062L88.0925 41.1875V26.9375H96.655L97.5925 32.5625L100.342 32.125L101.186 19.875L98.3737 20.3125L97.0612 24.0625H88.0925V9H102.624L103.686 15.75L106.436 16.1875L107.717 6.125H76.6862L76.3425 8.5L82.03 9.8125ZM126.371 45C131.496 45 135.85 44.0729 139.434 42.2188C143.017 40.3438 145.705 37.8646 147.496 34.7812C149.309 31.6771 150.215 28.2812 150.215 24.5938C150.215 21.0938 149.517 17.9375 148.121 15.125C146.725 12.3125 144.35 10.0417 140.996 8.3125C137.663 6.5625 133.225 5.6875 127.684 5.6875C123.475 5.6875 118.132 6.19792 111.652 7.21875L111.371 9.59375L116.746 10.5312V40.9688L111.371 42.6875L110.934 45H126.371ZM122.715 9.03125C123.548 8.94792 124.819 8.90625 126.527 8.90625C130.236 8.90625 133.371 9.67708 135.934 11.2188C138.496 12.7396 140.413 14.8229 141.684 17.4688C142.975 20.0938 143.621 23.0417 143.621 26.3125C143.621 29.1875 143.007 31.7917 141.777 34.125C140.569 36.4583 138.736 38.3125 136.277 39.6875C133.819 41.0625 130.809 41.75 127.246 41.75H122.715V9.03125Z" fill="black"/>
<path d="M61.9688 42.2188L62.4283 43.1069L62.4324 43.1048L61.9688 42.2188ZM70.0312 34.7812L69.1677 34.277L69.1666 34.2788L70.0312 34.7812ZM63.5312 8.3125L63.0664 9.19792L63.073 9.20134L63.5312 8.3125ZM34.1875 7.21875L34.0319 6.23094L33.2835 6.34884L33.1944 7.10115L34.1875 7.21875ZM33.9062 9.59375L32.9132 9.47615L32.8019 10.4162L33.7344 10.5789L33.9062 9.59375ZM39.2812 10.5312H40.2812V9.69057L39.4531 9.54612L39.2812 10.5312ZM39.2812 40.9688L39.5858 41.9212L40.2812 41.6989V40.9688H39.2812ZM33.9062 42.6875L33.6017 41.735L33.0344 41.9164L32.9237 42.5016L33.9062 42.6875ZM33.4688 45L32.4862 44.8141L32.2618 46H33.4688V45ZM45.25 9.03125L45.1505 8.03621L44.25 8.12626V9.03125H45.25ZM58.4688 11.2188L57.9532 12.0756L57.9584 12.0787L58.4688 11.2188ZM64.2188 17.4688L63.3173 17.9017L63.3215 17.9103L64.2188 17.4688ZM64.3125 34.125L63.4277 33.6589L63.4245 33.6651L64.3125 34.125ZM45.25 41.75H44.25V42.75H45.25V41.75ZM48.9062 46C54.1491 46 58.6697 45.0517 62.4283 43.1069L61.5092 41.3306C58.1011 43.0941 53.9134 44 48.9062 44V46ZM62.4324 43.1048C66.1599 41.1543 68.9972 38.5512 70.8959 35.2837L69.1666 34.2788C67.482 37.1779 64.9443 39.5332 61.5051 41.3327L62.4324 43.1048ZM70.8948 35.2855C72.7991 32.0242 73.75 28.4536 73.75 24.5938H71.75C71.75 28.1089 70.8884 31.33 69.1677 34.277L70.8948 35.2855ZM73.75 24.5938C73.75 20.9574 73.0239 17.6463 71.552 14.6804L69.7605 15.5696C71.0802 18.2287 71.75 21.2301 71.75 24.5938H73.75ZM71.552 14.6804C70.0435 11.6409 67.4939 9.23028 63.9895 7.42366L63.073 9.20134C66.277 10.8531 68.4773 12.9841 69.7605 15.5696L71.552 14.6804ZM63.9961 7.4271C60.4677 5.57468 55.8516 4.6875 50.2188 4.6875V6.6875C55.6692 6.6875 59.9282 7.55032 63.0664 9.1979L63.9961 7.4271ZM50.2188 4.6875C45.9379 4.6875 40.5375 5.20594 34.0319 6.23094L34.3431 8.20656C40.7959 7.1899 46.0829 6.6875 50.2188 6.6875V4.6875ZM33.1944 7.10115L32.9132 9.47615L34.8993 9.71135L35.1806 7.33635L33.1944 7.10115ZM33.7344 10.5789L39.1094 11.5164L39.4531 9.54612L34.0781 8.60862L33.7344 10.5789ZM38.2812 10.5312V40.9688H40.2812V10.5312H38.2812ZM38.9767 40.0163L33.6017 41.735L34.2108 43.64L39.5858 41.9212L38.9767 40.0163ZM32.9237 42.5016L32.4862 44.8141L34.4513 45.1859L34.8888 42.8734L32.9237 42.5016ZM33.4688 46H48.9062V44H33.4688V46ZM45.3495 10.0263C46.131 9.94814 47.3607 9.90625 49.0625 9.90625V7.90625C47.3476 7.90625 46.0357 7.94769 45.1505 8.03621L45.3495 10.0263ZM49.0625 9.90625C52.6325 9.90625 55.5798 10.6477 57.9532 12.0756L58.9843 10.3619C56.2327 8.70649 52.9091 7.90625 49.0625 7.90625V9.90625ZM57.9584 12.0787C60.354 13.5005 62.1333 15.4365 63.3173 17.9017L65.1202 17.0358C63.7626 14.2093 61.7085 11.9787 58.9791 10.3588L57.9584 12.0787ZM63.3215 17.9103C64.5379 20.3824 65.1562 23.1765 65.1562 26.3125H67.1562C67.1562 22.9068 66.4829 19.8051 65.116 17.0272L63.3215 17.9103ZM65.1562 26.3125C65.1562 29.0401 64.5745 31.482 63.4278 33.6589L65.1972 34.5911C66.5088 32.1014 67.1562 29.3349 67.1562 26.3125H65.1562ZM63.4245 33.6651C62.3127 35.812 60.6247 37.5281 58.3243 38.8147L59.3007 40.5603C61.9169 39.0969 63.8956 37.1046 65.2005 34.5849L63.4245 33.6651ZM58.3243 38.8147C56.0497 40.087 53.2173 40.75 49.7812 40.75V42.75C53.4702 42.75 56.6587 42.038 59.3007 40.5603L58.3243 38.8147ZM49.7812 40.75H45.25V42.75H49.7812V40.75ZM46.25 41.75V9.03125H44.25V41.75H46.25ZM82.03 9.8125H83.03V9.01699L82.2549 8.83811L82.03 9.8125ZM82.03 41.2188L82.3009 42.1814L83.03 41.9762V41.2188H82.03ZM76.8112 42.6875L76.5403 41.7249L75.8897 41.908L75.817 42.58L76.8112 42.6875ZM76.5612 45L75.567 44.8925L75.4473 46H76.5612V45ZM95.03 45V46H95.8856L96.018 45.1547L95.03 45ZM95.4362 42.4062L96.4242 42.561L96.5775 41.582L95.6 41.4197L95.4362 42.4062ZM88.0925 41.1875H87.0925V42.0352L87.9288 42.174L88.0925 41.1875ZM88.0925 26.9375V25.9375H87.0925V26.9375H88.0925ZM96.655 26.9375L97.6414 26.7731L97.5021 25.9375H96.655V26.9375ZM97.5925 32.5625L96.6061 32.7269L96.7693 33.706L97.7496 33.5501L97.5925 32.5625ZM100.342 32.125L100.5 33.1126L101.285 32.9876L101.34 32.1937L100.342 32.125ZM101.186 19.875L102.184 19.9437L102.27 18.6944L101.033 18.8869L101.186 19.875ZM98.3737 20.3125L98.22 19.3244L97.6279 19.4165L97.4299 19.9821L98.3737 20.3125ZM97.0612 24.0625V25.0625H97.7707L98.0051 24.3929L97.0612 24.0625ZM88.0925 24.0625H87.0925V25.0625H88.0925V24.0625ZM88.0925 9V8H87.0925V9H88.0925ZM102.624 9L103.612 8.84451L103.479 8H102.624V9ZM103.686 15.75L102.698 15.9055L102.811 16.6234L103.529 16.7376L103.686 15.75ZM106.436 16.1875L106.279 17.1751L107.298 17.3372L107.428 16.3138L106.436 16.1875ZM107.717 6.125L108.709 6.25131L108.853 5.125H107.717V6.125ZM76.6862 6.125V5.125H75.8206L75.6966 5.98176L76.6862 6.125ZM76.3425 8.5L75.3528 8.35676L75.221 9.26747L76.1176 9.47439L76.3425 8.5ZM81.03 9.8125V41.2188H83.03V9.8125H81.03ZM81.7591 40.2561L76.5403 41.7249L77.0822 43.6501L82.3009 42.1814L81.7591 40.2561ZM75.817 42.58L75.567 44.8925L77.5555 45.1075L77.8055 42.795L75.817 42.58ZM76.5612 46H95.03V44H76.5612V46ZM96.018 45.1547L96.4242 42.561L94.4483 42.2515L94.042 44.8453L96.018 45.1547ZM95.6 41.4197L88.2562 40.201L87.9288 42.174L95.2725 43.3928L95.6 41.4197ZM89.0925 41.1875V26.9375H87.0925V41.1875H89.0925ZM88.0925 27.9375H96.655V25.9375H88.0925V27.9375ZM95.6686 27.1019L96.6061 32.7269L98.5789 32.3981L97.6414 26.7731L95.6686 27.1019ZM97.7496 33.5501L100.5 33.1126L100.185 31.1374L97.4354 31.5749L97.7496 33.5501ZM101.34 32.1937L102.184 19.9437L100.189 19.8063L99.3449 32.0563L101.34 32.1937ZM101.033 18.8869L98.22 19.3244L98.5275 21.3006L101.34 20.8631L101.033 18.8869ZM97.4299 19.9821L96.1174 23.7321L98.0051 24.3929L99.3176 20.6429L97.4299 19.9821ZM97.0612 23.0625H88.0925V25.0625H97.0612V23.0625ZM89.0925 24.0625V9H87.0925V24.0625H89.0925ZM88.0925 10H102.624V8H88.0925V10ZM101.636 9.15549L102.698 15.9055L104.674 15.5945L103.612 8.84451L101.636 9.15549ZM103.529 16.7376L106.279 17.1751L106.593 15.1999L103.843 14.7624L103.529 16.7376ZM107.428 16.3138L108.709 6.25131L106.726 5.99869L105.444 16.0612L107.428 16.3138ZM107.717 5.125H76.6862V7.125H107.717V5.125ZM75.6966 5.98176L75.3528 8.35676L77.3322 8.64324L77.6759 6.26824L75.6966 5.98176ZM76.1176 9.47439L81.8051 10.7869L82.2549 8.83811L76.5674 7.52561L76.1176 9.47439ZM139.434 42.2188L139.893 43.1069L139.897 43.1048L139.434 42.2188ZM147.496 34.7812L146.633 34.277L146.632 34.2788L147.496 34.7812ZM140.996 8.3125L140.531 9.19792L140.538 9.20134L140.996 8.3125ZM111.652 7.21875L111.497 6.23094L110.749 6.34884L110.659 7.10115L111.652 7.21875ZM111.371 9.59375L110.378 9.47615L110.267 10.4162L111.199 10.5789L111.371 9.59375ZM116.746 10.5312H117.746V9.69057L116.918 9.54612L116.746 10.5312ZM116.746 40.9688L117.051 41.9212L117.746 41.6989V40.9688H116.746ZM111.371 42.6875L111.067 41.735L110.499 41.9164L110.389 42.5016L111.371 42.6875ZM110.934 45L109.951 44.8141L109.727 46H110.934V45ZM122.715 9.03125L122.615 8.03621L121.715 8.12626V9.03125H122.715ZM135.934 11.2188L135.418 12.0756L135.423 12.0787L135.934 11.2188ZM141.684 17.4688L140.782 17.9017L140.786 17.9103L141.684 17.4688ZM141.777 34.125L140.893 33.6589L140.89 33.6651L141.777 34.125ZM122.715 41.75H121.715V42.75H122.715V41.75ZM126.371 46C131.614 46 136.135 45.0517 139.893 43.1069L138.974 41.3306C135.566 43.0941 131.378 44 126.371 44V46ZM139.897 43.1048C143.625 41.1543 146.462 38.5512 148.361 35.2837L146.632 34.2788C144.947 37.1779 142.409 39.5332 138.97 41.3327L139.897 43.1048ZM148.36 35.2855C150.264 32.0242 151.215 28.4536 151.215 24.5938H149.215C149.215 28.1089 148.353 31.33 146.633 34.277L148.36 35.2855ZM151.215 24.5938C151.215 20.9574 150.489 17.6463 149.017 14.6804L147.225 15.5696C148.545 18.2287 149.215 21.2301 149.215 24.5938H151.215ZM149.017 14.6804C147.509 11.6409 144.959 9.23028 141.454 7.42366L140.538 9.20134C143.742 10.8531 145.942 12.9841 147.225 15.5696L149.017 14.6804ZM141.461 7.4271C137.933 5.57468 133.317 4.6875 127.684 4.6875V6.6875C133.134 6.6875 137.393 7.55032 140.531 9.1979L141.461 7.4271ZM127.684 4.6875C123.403 4.6875 118.002 5.20594 111.497 6.23094L111.808 8.20656C118.261 7.1899 123.548 6.6875 127.684 6.6875V4.6875ZM110.659 7.10115L110.378 9.47615L112.364 9.71135L112.646 7.33635L110.659 7.10115ZM111.199 10.5789L116.574 11.5164L116.918 9.54612L111.543 8.60862L111.199 10.5789ZM115.746 10.5312V40.9688H117.746V10.5312H115.746ZM116.442 40.0163L111.067 41.735L111.676 43.64L117.051 41.9212L116.442 40.0163ZM110.389 42.5016L109.951 44.8141L111.916 45.1859L112.354 42.8734L110.389 42.5016ZM110.934 46H126.371V44H110.934V46ZM122.815 10.0263C123.596 9.94814 124.826 9.90625 126.527 9.90625V7.90625C124.813 7.90625 123.501 7.94769 122.615 8.03621L122.815 10.0263ZM126.527 9.90625C130.098 9.90625 133.045 10.6477 135.418 12.0756L136.449 10.3619C133.698 8.70649 130.374 7.90625 126.527 7.90625V9.90625ZM135.423 12.0787C137.819 13.5005 139.598 15.4365 140.782 17.9017L142.585 17.0358C141.228 14.2093 139.173 11.9787 136.444 10.3588L135.423 12.0787ZM140.786 17.9103C142.003 20.3824 142.621 23.1765 142.621 26.3125H144.621C144.621 22.9068 143.948 19.8051 142.581 17.0272L140.786 17.9103ZM142.621 26.3125C142.621 29.0401 142.04 31.482 140.893 33.6589L142.662 34.5911C143.974 32.1014 144.621 29.3349 144.621 26.3125H142.621ZM140.89 33.6651C139.778 35.812 138.09 37.5281 135.789 38.8147L136.766 40.5603C139.382 39.0969 141.361 37.1046 142.665 34.5849L140.89 33.6651ZM135.789 38.8147C133.515 40.087 130.682 40.75 127.246 40.75V42.75C130.935 42.75 134.124 42.038 136.766 40.5603L135.789 38.8147ZM127.246 40.75H122.715V42.75H127.246V40.75ZM123.715 41.75V9.03125H121.715V41.75H123.715Z" fill="black"/>
<path d="M22.3633 44.918L24.5781 42.457L8.40625 26.7422L23.875 10.3594L21.9062 7.79297L0.109375 25.4062L0.0742188 27.4102L22.3633 44.918Z" fill="black"/>
<path d="M22.3633 44.918L21.7456 45.7044L22.481 46.282L23.1066 45.5869L22.3633 44.918ZM24.5781 42.457L25.3214 43.126L25.9653 42.4106L25.275 41.7399L24.5781 42.457ZM8.40625 26.7422L7.67915 26.0557L7.00241 26.7724L7.70935 27.4594L8.40625 26.7422ZM23.875 10.3594L24.6021 11.0459L25.1869 10.4266L24.6684 9.75072L23.875 10.3594ZM21.9062 7.79297L22.6997 7.18431L22.0754 6.37057L21.2777 7.01517L21.9062 7.79297ZM0.109375 25.4062L-0.519137 24.6285L-0.882281 24.9219L-0.890471 25.3887L0.109375 25.4062ZM0.0742188 27.4102L-0.925627 27.3926L-0.934346 27.8896L-0.543493 28.1966L0.0742188 27.4102ZM23.1066 45.5869L25.3214 43.126L23.8348 41.7881L21.62 44.249L23.1066 45.5869ZM25.275 41.7399L9.10315 26.025L7.70935 27.4594L23.8812 43.1742L25.275 41.7399ZM9.13335 27.4287L24.6021 11.0459L23.1479 9.67284L7.67915 26.0557L9.13335 27.4287ZM24.6684 9.75072L22.6997 7.18431L21.1128 8.40163L23.0816 10.968L24.6684 9.75072ZM21.2777 7.01517L-0.519137 24.6285L0.737887 26.184L22.5348 8.57077L21.2777 7.01517ZM-0.890471 25.3887L-0.925627 27.3926L1.07406 27.4277L1.10922 25.4238L-0.890471 25.3887ZM-0.543493 28.1966L21.7456 45.7044L22.981 44.1316L0.691931 26.6238L-0.543493 28.1966Z" fill="black"/>
<path d="M178.289 44.918L200.578 27.4102L200.543 25.4062L178.746 7.79297L176.777 10.3594L192.246 26.7422L176.074 42.457L178.289 44.918Z" fill="black"/>
<path d="M178.289 44.918L177.546 45.5869L178.171 46.282L178.907 45.7044L178.289 44.918ZM200.578 27.4102L201.196 28.1966L201.587 27.8896L201.578 27.3926L200.578 27.4102ZM200.543 25.4062L201.543 25.3887L201.535 24.9219L201.171 24.6285L200.543 25.4062ZM178.746 7.79297L179.375 7.01517L178.577 6.37057L177.953 7.18431L178.746 7.79297ZM176.777 10.3594L175.984 9.75072L175.465 10.4266L176.05 11.0459L176.777 10.3594ZM192.246 26.7422L192.943 27.4594L193.65 26.7724L192.973 26.0557L192.246 26.7422ZM176.074 42.457L175.377 41.7399L174.687 42.4106L175.331 43.126L176.074 42.457ZM178.907 45.7044L201.196 28.1966L199.96 26.6238L177.671 44.1316L178.907 45.7044ZM201.578 27.3926L201.543 25.3887L199.543 25.4238L199.578 27.4277L201.578 27.3926ZM201.171 24.6285L179.375 7.01517L178.118 8.57077L199.914 26.184L201.171 24.6285ZM177.953 7.18431L175.984 9.75072L177.571 10.968L179.54 8.40163L177.953 7.18431ZM176.05 11.0459L191.519 27.4287L192.973 26.0557L177.504 9.67284L176.05 11.0459ZM191.549 26.025L175.377 41.7399L176.771 43.1742L192.943 27.4594L191.549 26.025ZM175.331 43.126L177.546 45.5869L179.032 44.249L176.818 41.7881L175.331 43.126Z" fill="black"/>
<path d="M158.375 50.0938L172.938 0.125L168.812 0.40625L154.375 50.3438L158.375 50.0938Z" fill="black"/>
<path d="M158.375 50.0938L158.437 51.0918L159.139 51.048L159.335 50.3735L158.375 50.0938ZM172.938 0.125L173.898 0.404792L174.298 -0.9701L172.869 -0.872684L172.938 0.125ZM168.812 0.40625L168.744 -0.591434L168.046 -0.543826L167.852 0.128513L168.812 0.40625ZM154.375 50.3438L153.414 50.066L153.02 51.4304L154.437 51.3418L154.375 50.3438ZM159.335 50.3735L173.898 0.404792L171.977 -0.154792L157.415 49.814L159.335 50.3735ZM172.869 -0.872684L168.744 -0.591434L168.881 1.40393L173.006 1.12268L172.869 -0.872684ZM167.852 0.128513L153.414 50.066L155.336 50.6215L169.773 0.683987L167.852 0.128513ZM154.437 51.3418L158.437 51.0918L158.313 49.0957L154.313 49.3457L154.437 51.3418Z" fill="black"/>
</svg>
