<svg width="900" height="900" viewBox="0 0 900 900" fill="none" xmlns="http://www.w3.org/2000/svg">
<path d="M176.426 364.998V372.933L83.3688 431.352L80.1863 425.414L176.426 364.998Z" fill="#303F60"/>
<path d="M369.192 251.548L367.219 252.445L341.217 268.872L335.075 264.763L364.577 246.131L365.787 245.582V249.343L369.192 251.548Z" fill="#303F60"/>
<path d="M369.287 492.352L340.167 509.711L333.929 505.536L365.787 486.524V490.075L369.287 492.352Z" fill="#303F60"/>
<path d="M774.805 469.307L718.729 505.364L712.746 501.396L768.313 466.857L774.805 469.307Z" fill="#303F60"/>
<path opacity="0.8" d="M260.763 322.454V428.381L176.426 373.623V271.46L252.075 317.213L258.503 321.111H258.535L260.763 322.454Z" fill="#475579"/>
<path d="M345.1 271.46V373.623L260.763 428.381V322.454L345.1 271.46Z" fill="#475579"/>
<path opacity="0.6" d="M345.1 271.46L260.763 322.454L258.535 321.112H258.503L252.075 317.213L176.426 271.46L260.763 215.318L335.043 264.763H335.075L341.217 268.872L345.1 271.46Z" fill="#475579"/>
<path opacity="0.8" d="M645.849 322.454V428.381L564.249 375.421L561.512 373.623V271.46L583.313 284.637L583.345 284.675L645.849 322.454Z" fill="#475579"/>
<path d="M730.186 271.46V373.623L645.849 428.381V322.454L730.186 271.46Z" fill="#475579"/>
<path opacity="0.6" d="M730.186 271.46L645.849 322.454L583.344 284.675L583.313 284.637L561.512 271.46L566.572 268.075L645.849 215.318L730.186 271.46Z" fill="#475579"/>
<path opacity="0.8" d="M260.763 563.983V669.91L176.426 615.152V512.989L260.763 563.983Z" fill="#475579"/>
<path d="M345.1 512.989V615.152L340.835 617.913L260.763 669.91V563.983L329.187 522.616L335.553 518.751L345.1 512.989Z" fill="#475579"/>
<path opacity="0.6" d="M345.1 512.989L335.553 518.751L329.187 522.616L260.763 563.983L176.426 512.989L260.763 456.847L333.929 505.536L340.167 509.711L345.1 512.989Z" fill="#475579"/>
<path opacity="0.8" d="M645.849 563.983V669.91L564.536 617.122L561.512 615.152V512.989L635.252 557.568L641.489 561.329L645.849 563.983Z" fill="#475579"/>
<path d="M730.186 512.989V615.152L645.849 669.91V563.983L730.186 512.989Z" fill="#475579"/>
<path opacity="0.6" d="M730.186 512.989L645.849 563.983L641.489 561.329L635.251 557.568L561.512 512.989L645.849 456.847L712.746 501.396L718.729 505.364L730.186 512.989Z" fill="#475579"/>
<path opacity="0.8" d="M450.123 198.139V304.063L369.192 251.548L365.786 249.343V147.142L450.123 198.139Z" fill="#475579"/>
<path d="M566.572 268.075L561.512 271.46V273.082L528.764 253.031L534.461 249.343V248.618L566.572 268.075Z" fill="#303F60"/>
<path d="M534.46 147.142V249.343L528.764 253.032L450.123 304.063V198.139L534.46 147.142Z" fill="#475579"/>
<path opacity="0.6" d="M534.46 147.142L450.123 198.139L365.786 147.142L450.123 91L534.46 147.142Z" fill="#475579"/>
<path opacity="0.8" d="M450.123 438.905V544.833L369.287 492.352L365.786 490.075V387.911L447.864 437.528L450.123 438.905Z" fill="#475579"/>
<path d="M534.46 387.911V490.075L450.123 544.833V438.905L534.46 387.911Z" fill="#475579"/>
<path d="M564.249 375.421L563.039 376.66L534.46 393.708V387.911L532.806 386.807L559.602 370.832L561.512 368.831V373.623L564.249 375.421Z" fill="#303F60"/>
<path opacity="0.6" d="M534.46 387.912L450.123 438.905L447.864 437.529L365.786 387.912L450.123 331.77L532.805 386.807L534.46 387.912Z" fill="#475579"/>
<path opacity="0.8" d="M450.124 678.709V784.637L365.786 729.879V627.715L391.915 643.518L392.011 643.553L450.124 678.709Z" fill="#475579"/>
<path d="M564.535 617.123L563.167 618.123L534.46 637.101V629.027L559.857 612.223L561.512 611.012V615.153L564.535 617.123Z" fill="#303F60"/>
<path d="M534.46 627.715V729.879L450.124 784.637V678.709L462.885 670.984L470.269 666.532L534.46 627.715Z" fill="#475579"/>
<path d="M368.905 625.642L365.787 627.716V631.649L344.05 618.465L340.835 617.913L345.1 615.153V611.668L346.15 611.84L368.905 625.642Z" fill="#303F60"/>
<path opacity="0.6" d="M534.46 627.715L470.269 666.533L462.885 670.984L450.124 678.709L392.011 643.553L391.915 643.518L365.786 627.715L368.905 625.642L450.124 571.574L534.46 627.715Z" fill="#475579"/>
<path d="M91.5 445.637C105.031 445.637 116 434.668 116 421.137C116 407.606 105.031 396.637 91.5 396.637C77.969 396.637 67 407.606 67 421.137C67 434.668 77.969 445.637 91.5 445.637Z" fill="#3B4660"/>
<path d="M784.5 480.637C798.031 480.637 809 469.668 809 456.137C809 442.606 798.031 431.637 784.5 431.637C770.969 431.637 760 442.606 760 456.137C760 469.668 770.969 480.637 784.5 480.637Z" fill="#3B4660"/>
</svg>
