<svg width="1282" height="350" viewBox="0 0 1282 350" fill="none" xmlns="http://www.w3.org/2000/svg">
<g opacity="0.4" filter="url(#filter0_f_132_66)">
<circle cx="175" cy="175" r="75" fill="#309D9D"/>
</g>
<g opacity="0.4" filter="url(#filter1_f_132_66)">
<circle cx="485" cy="175" r="75" fill="#9B9D30"/>
</g>
<g opacity="0.4" filter="url(#filter2_f_132_66)">
<circle cx="796" cy="175" r="75" fill="#8E309D"/>
</g>
<g opacity="0.4" filter="url(#filter3_f_132_66)">
<circle cx="1107" cy="175" r="75" fill="#9D7230"/>
</g>
<path opacity="0.4" d="M258 171C266.93 -25.5805 438.841 -47.5662 488 100" stroke="url(#paint0_linear_132_66)"/>
<path opacity="0.4" d="M879 170.912C887.93 -25.6686 1059.84 -47.6543 1109 99.912" stroke="url(#paint1_linear_132_66)"/>
<path opacity="0.4" d="M563 171C567.338 344.649 732.85 399.785 783 249" stroke="url(#paint2_linear_132_66)"/>
<path d="M128.119 200.264C126.295 200.264 124.735 199.904 123.439 199.184C122.143 198.464 121.143 197.456 120.439 196.16C119.751 194.848 119.407 193.304 119.407 191.528C119.407 189.768 119.751 188.24 120.439 186.944C121.143 185.632 122.143 184.616 123.439 183.896C124.735 183.176 126.295 182.816 128.119 182.816C129.239 182.816 130.311 182.992 131.335 183.344C132.359 183.696 133.199 184.176 133.855 184.784L132.703 187.736C131.983 187.176 131.255 186.768 130.519 186.512C129.799 186.24 129.039 186.104 128.239 186.104C126.623 186.104 125.399 186.576 124.567 187.52C123.751 188.448 123.343 189.784 123.343 191.528C123.343 193.272 123.751 194.616 124.567 195.56C125.399 196.504 126.623 196.976 128.239 196.976C129.039 196.976 129.799 196.848 130.519 196.592C131.255 196.32 131.983 195.904 132.703 195.344L133.855 198.296C133.199 198.888 132.359 199.368 131.335 199.736C130.311 200.088 129.239 200.264 128.119 200.264ZM143.556 200.264C141.892 200.264 140.428 199.904 139.164 199.184C137.916 198.448 136.94 197.432 136.236 196.136C135.548 194.824 135.204 193.288 135.204 191.528C135.204 189.768 135.548 188.24 136.236 186.944C136.94 185.632 137.916 184.616 139.164 183.896C140.412 183.176 141.876 182.816 143.556 182.816C145.236 182.816 146.7 183.176 147.948 183.896C149.212 184.616 150.188 185.632 150.876 186.944C151.58 188.24 151.932 189.76 151.932 191.504C151.932 193.264 151.58 194.8 150.876 196.112C150.188 197.424 149.212 198.448 147.948 199.184C146.7 199.904 145.236 200.264 143.556 200.264ZM143.556 197.096C144.964 197.096 146.06 196.608 146.844 195.632C147.644 194.64 148.044 193.272 148.044 191.528C148.044 189.768 147.652 188.408 146.868 187.448C146.084 186.472 144.98 185.984 143.556 185.984C142.164 185.984 141.068 186.472 140.268 187.448C139.484 188.408 139.092 189.768 139.092 191.528C139.092 193.272 139.484 194.64 140.268 195.632C141.068 196.608 142.164 197.096 143.556 197.096ZM154.809 200V183.08H157.569L166.017 193.856V183.08H169.473V200H166.737L158.265 189.2V200H154.809ZM181.088 200.264C179.264 200.264 177.704 199.904 176.408 199.184C175.112 198.464 174.112 197.456 173.408 196.16C172.72 194.848 172.376 193.304 172.376 191.528C172.376 189.768 172.72 188.24 173.408 186.944C174.112 185.632 175.112 184.616 176.408 183.896C177.704 183.176 179.264 182.816 181.088 182.816C182.208 182.816 183.28 182.992 184.304 183.344C185.328 183.696 186.168 184.176 186.824 184.784L185.672 187.736C184.952 187.176 184.224 186.768 183.488 186.512C182.768 186.24 182.008 186.104 181.208 186.104C179.592 186.104 178.368 186.576 177.536 187.52C176.72 188.448 176.312 189.784 176.312 191.528C176.312 193.272 176.72 194.616 177.536 195.56C178.368 196.504 179.592 196.976 181.208 196.976C182.008 196.976 182.768 196.848 183.488 196.592C184.224 196.32 184.952 195.904 185.672 195.344L186.824 198.296C186.168 198.888 185.328 199.368 184.304 199.736C183.28 200.088 182.208 200.264 181.088 200.264ZM189.263 200V183.08H200.855V185.984H192.815V189.944H200.327V192.872H192.815V197.096H200.855V200H189.263ZM203.794 200V183.08H211.522C213.41 183.08 214.866 183.56 215.89 184.52C216.914 185.464 217.426 186.784 217.426 188.48C217.426 190.176 216.914 191.504 215.89 192.464C214.866 193.424 213.41 193.904 211.522 193.904H207.514V200H203.794ZM207.514 191.024H210.898C212.866 191.024 213.85 190.176 213.85 188.48C213.85 186.816 212.866 185.984 210.898 185.984H207.514V191.024ZM223.365 200V186.152H217.773V183.08H232.677V186.152H227.085V200H223.365Z" fill="black" fill-opacity="0.6"/>
<path d="M441.083 199V182.08H447.707C450.587 182.08 452.819 182.816 454.403 184.288C455.987 185.744 456.779 187.824 456.779 190.528C456.779 193.232 455.987 195.32 454.403 196.792C452.819 198.264 450.587 199 447.707 199H441.083ZM444.803 195.952H447.491C451.091 195.952 452.891 194.144 452.891 190.528C452.891 186.928 451.091 185.128 447.491 185.128H444.803V195.952ZM459.669 199V182.08H471.261V184.984H463.221V188.944H470.733V191.872H463.221V196.096H471.261V199H459.669ZM480.014 199.264C478.686 199.264 477.43 199.096 476.246 198.76C475.078 198.424 474.102 197.968 473.318 197.392L474.398 194.464C475.15 194.992 476.006 195.408 476.966 195.712C477.942 196.016 478.958 196.168 480.014 196.168C481.166 196.168 481.99 195.992 482.486 195.64C482.998 195.272 483.254 194.816 483.254 194.272C483.254 193.808 483.078 193.44 482.726 193.168C482.374 192.896 481.758 192.664 480.878 192.472L478.166 191.896C475.142 191.256 473.63 189.688 473.63 187.192C473.63 186.12 473.918 185.184 474.494 184.384C475.07 183.568 475.87 182.936 476.894 182.488C477.934 182.04 479.134 181.816 480.494 181.816C481.662 181.816 482.758 181.984 483.782 182.32C484.806 182.656 485.654 183.128 486.326 183.736L485.246 186.472C483.934 185.432 482.342 184.912 480.47 184.912C479.462 184.912 478.678 185.112 478.118 185.512C477.574 185.896 477.302 186.4 477.302 187.024C477.302 187.488 477.47 187.864 477.806 188.152C478.142 188.44 478.726 188.672 479.558 188.848L482.27 189.424C485.374 190.096 486.926 191.616 486.926 193.984C486.926 195.04 486.638 195.968 486.062 196.768C485.502 197.552 484.702 198.168 483.662 198.616C482.638 199.048 481.422 199.264 480.014 199.264ZM489.341 199V182.08H493.061V199H489.341ZM504.818 199.264C502.914 199.264 501.298 198.904 499.97 198.184C498.658 197.464 497.658 196.456 496.97 195.16C496.282 193.864 495.938 192.344 495.938 190.6C495.938 188.808 496.29 187.256 496.994 185.944C497.714 184.632 498.746 183.616 500.09 182.896C501.434 182.176 503.05 181.816 504.938 181.816C506.122 181.816 507.242 181.984 508.298 182.32C509.37 182.656 510.242 183.104 510.914 183.664L509.714 186.568C508.978 186.024 508.226 185.64 507.458 185.416C506.69 185.176 505.858 185.056 504.962 185.056C503.25 185.056 501.962 185.536 501.098 186.496C500.25 187.44 499.826 188.808 499.826 190.6C499.826 192.408 500.258 193.776 501.122 194.704C502.002 195.632 503.298 196.096 505.01 196.096C505.922 196.096 506.882 195.952 507.89 195.664V192.352H504.242V189.664H510.962V197.968C510.13 198.384 509.17 198.704 508.082 198.928C506.994 199.152 505.906 199.264 504.818 199.264ZM514.255 199V182.08H517.015L525.463 192.856V182.08H528.919V199H526.183L517.711 188.2V199H514.255Z" fill="black" fill-opacity="0.6"/>
<path d="M758.178 199.264C756.354 199.264 754.794 198.904 753.498 198.184C752.202 197.464 751.202 196.456 750.498 195.16C749.81 193.848 749.466 192.304 749.466 190.528C749.466 188.768 749.81 187.24 750.498 185.944C751.202 184.632 752.202 183.616 753.498 182.896C754.794 182.176 756.354 181.816 758.178 181.816C759.298 181.816 760.37 181.992 761.394 182.344C762.418 182.696 763.258 183.176 763.914 183.784L762.762 186.736C762.042 186.176 761.314 185.768 760.578 185.512C759.858 185.24 759.098 185.104 758.298 185.104C756.682 185.104 755.458 185.576 754.626 186.52C753.81 187.448 753.402 188.784 753.402 190.528C753.402 192.272 753.81 193.616 754.626 194.56C755.458 195.504 756.682 195.976 758.298 195.976C759.098 195.976 759.858 195.848 760.578 195.592C761.314 195.32 762.042 194.904 762.762 194.344L763.914 197.296C763.258 197.888 762.418 198.368 761.394 198.736C760.37 199.088 759.298 199.264 758.178 199.264ZM773.615 199.264C771.951 199.264 770.487 198.904 769.223 198.184C767.975 197.448 766.999 196.432 766.295 195.136C765.607 193.824 765.263 192.288 765.263 190.528C765.263 188.768 765.607 187.24 766.295 185.944C766.999 184.632 767.975 183.616 769.223 182.896C770.471 182.176 771.935 181.816 773.615 181.816C775.295 181.816 776.759 182.176 778.007 182.896C779.271 183.616 780.247 184.632 780.935 185.944C781.639 187.24 781.991 188.76 781.991 190.504C781.991 192.264 781.639 193.8 780.935 195.112C780.247 196.424 779.271 197.448 778.007 198.184C776.759 198.904 775.295 199.264 773.615 199.264ZM773.615 196.096C775.023 196.096 776.119 195.608 776.903 194.632C777.703 193.64 778.103 192.272 778.103 190.528C778.103 188.768 777.711 187.408 776.927 186.448C776.143 185.472 775.039 184.984 773.615 184.984C772.223 184.984 771.127 185.472 770.327 186.448C769.543 187.408 769.151 188.768 769.151 190.528C769.151 192.272 769.543 193.64 770.327 194.632C771.127 195.608 772.223 196.096 773.615 196.096ZM784.868 199V182.08H791.492C794.372 182.08 796.604 182.816 798.188 184.288C799.772 185.744 800.564 187.824 800.564 190.528C800.564 193.232 799.772 195.32 798.188 196.792C796.604 198.264 794.372 199 791.492 199H784.868ZM788.588 195.952H791.276C794.876 195.952 796.676 194.144 796.676 190.528C796.676 186.928 794.876 185.128 791.276 185.128H788.588V195.952ZM803.454 199V182.08H807.174V199H803.454ZM810.556 199V182.08H813.316L821.764 192.856V182.08H825.22V199H822.484L814.012 188.2V199H810.556ZM837.002 199.264C835.098 199.264 833.482 198.904 832.154 198.184C830.842 197.464 829.842 196.456 829.154 195.16C828.466 193.864 828.122 192.344 828.122 190.6C828.122 188.808 828.474 187.256 829.178 185.944C829.898 184.632 830.93 183.616 832.274 182.896C833.618 182.176 835.234 181.816 837.122 181.816C838.306 181.816 839.426 181.984 840.482 182.32C841.554 182.656 842.426 183.104 843.098 183.664L841.898 186.568C841.162 186.024 840.41 185.64 839.642 185.416C838.874 185.176 838.042 185.056 837.146 185.056C835.434 185.056 834.146 185.536 833.282 186.496C832.434 187.44 832.01 188.808 832.01 190.6C832.01 192.408 832.442 193.776 833.306 194.704C834.186 195.632 835.482 196.096 837.194 196.096C838.106 196.096 839.066 195.952 840.074 195.664V192.352H836.426V189.664H843.146V197.968C842.314 198.384 841.354 198.704 840.266 198.928C839.178 199.152 838.09 199.264 837.002 199.264Z" fill="black" fill-opacity="0.6"/>
<path d="M1056.98 198V181.08H1060.7V194.856H1068.53V198H1056.98ZM1068.51 198L1076.29 181.08H1079.29L1087.07 198H1083.32L1081.74 194.328H1073.84L1072.28 198H1068.51ZM1077.75 185.04L1075.09 191.424H1080.51L1077.8 185.04H1077.75ZM1095.66 198.264C1093.26 198.264 1091.43 197.648 1090.16 196.416C1088.92 195.184 1088.29 193.352 1088.29 190.92V181.08H1092.01V190.944C1092.01 192.32 1092.32 193.36 1092.95 194.064C1093.57 194.752 1094.48 195.096 1095.66 195.096C1098.08 195.096 1099.28 193.712 1099.28 190.944V181.08H1102.96V190.92C1102.96 193.352 1102.34 195.184 1101.11 196.416C1099.88 197.648 1098.06 198.264 1095.66 198.264ZM1106.25 198V181.08H1109.01L1117.45 191.856V181.08H1120.91V198H1118.17L1109.7 187.2V198H1106.25ZM1132.53 198.264C1130.7 198.264 1129.14 197.904 1127.85 197.184C1126.55 196.464 1125.55 195.456 1124.85 194.16C1124.16 192.848 1123.81 191.304 1123.81 189.528C1123.81 187.768 1124.16 186.24 1124.85 184.944C1125.55 183.632 1126.55 182.616 1127.85 181.896C1129.14 181.176 1130.7 180.816 1132.53 180.816C1133.65 180.816 1134.72 180.992 1135.74 181.344C1136.77 181.696 1137.61 182.176 1138.26 182.784L1137.11 185.736C1136.39 185.176 1135.66 184.768 1134.93 184.512C1134.21 184.24 1133.45 184.104 1132.65 184.104C1131.03 184.104 1129.81 184.576 1128.97 185.52C1128.16 186.448 1127.75 187.784 1127.75 189.528C1127.75 191.272 1128.16 192.616 1128.97 193.56C1129.81 194.504 1131.03 194.976 1132.65 194.976C1133.45 194.976 1134.21 194.848 1134.93 194.592C1135.66 194.32 1136.39 193.904 1137.11 193.344L1138.26 196.296C1137.61 196.888 1136.77 197.368 1135.74 197.736C1134.72 198.088 1133.65 198.264 1132.53 198.264ZM1140.7 198V181.08H1144.42V187.872H1152.29V181.08H1156.01V198H1152.29V190.968H1144.42V198H1140.7Z" fill="black" fill-opacity="0.6"/>
<path d="M167.807 171V166.428H173.495V151.848L169.139 154.404L167.015 150.336L175.115 145.62H179.075V166.428H184.403V171H167.807Z" fill="black" fill-opacity="0.6"/>
<path d="M476.871 171V166.86L484.827 158.508C485.835 157.404 486.555 156.444 486.987 155.628C487.443 154.788 487.671 153.948 487.671 153.108C487.671 150.948 486.339 149.868 483.675 149.868C482.643 149.868 481.611 150.072 480.579 150.48C479.547 150.864 478.539 151.464 477.555 152.28L475.755 148.176C476.811 147.264 478.107 146.544 479.643 146.016C481.203 145.488 482.799 145.224 484.431 145.224C487.263 145.224 489.423 145.86 490.911 147.132C492.423 148.38 493.179 150.168 493.179 152.496C493.179 154.032 492.819 155.508 492.099 156.924C491.403 158.316 490.251 159.828 488.643 161.46L483.747 166.428H494.115V171H476.871Z" fill="black" fill-opacity="0.6"/>
<path d="M795.395 171.396C793.619 171.396 791.927 171.144 790.319 170.64C788.711 170.136 787.391 169.452 786.359 168.588L788.123 164.376C790.259 165.96 792.611 166.752 795.179 166.752C798.107 166.752 799.571 165.66 799.571 163.476C799.571 161.46 798.203 160.452 795.467 160.452H791.219V155.952H794.927C796.127 155.952 797.075 155.676 797.771 155.124C798.467 154.572 798.815 153.804 798.815 152.82C798.815 150.852 797.531 149.868 794.963 149.868C792.563 149.868 790.427 150.672 788.555 152.28L786.791 148.176C787.847 147.24 789.143 146.52 790.679 146.016C792.215 145.488 793.811 145.224 795.467 145.224C798.203 145.224 800.339 145.836 801.875 147.06C803.411 148.284 804.179 149.964 804.179 152.1C804.179 153.42 803.843 154.584 803.171 155.592C802.499 156.6 801.563 157.332 800.363 157.788C801.803 158.196 802.919 158.952 803.711 160.056C804.527 161.136 804.935 162.444 804.935 163.98C804.935 166.284 804.083 168.096 802.379 169.416C800.675 170.736 798.347 171.396 795.395 171.396Z" fill="black" fill-opacity="0.6"/>
<path d="M1108.2 171V166.464H1097.5V162.468L1109.13 145.62H1113.67V162.072H1117.12V166.464H1113.67V171H1108.2ZM1108.2 162.072V153.792L1102.58 162.072H1108.2Z" fill="black" fill-opacity="0.6"/>
<defs>
<filter id="filter0_f_132_66" x="0" y="0" width="350" height="350" filterUnits="userSpaceOnUse" color-interpolation-filters="sRGB">
<feFlood flood-opacity="0" result="BackgroundImageFix"/>
<feBlend mode="normal" in="SourceGraphic" in2="BackgroundImageFix" result="shape"/>
<feGaussianBlur stdDeviation="50" result="effect1_foregroundBlur_132_66"/>
</filter>
<filter id="filter1_f_132_66" x="310" y="0" width="350" height="350" filterUnits="userSpaceOnUse" color-interpolation-filters="sRGB">
<feFlood flood-opacity="0" result="BackgroundImageFix"/>
<feBlend mode="normal" in="SourceGraphic" in2="BackgroundImageFix" result="shape"/>
<feGaussianBlur stdDeviation="50" result="effect1_foregroundBlur_132_66"/>
</filter>
<filter id="filter2_f_132_66" x="621" y="0" width="350" height="350" filterUnits="userSpaceOnUse" color-interpolation-filters="sRGB">
<feFlood flood-opacity="0" result="BackgroundImageFix"/>
<feBlend mode="normal" in="SourceGraphic" in2="BackgroundImageFix" result="shape"/>
<feGaussianBlur stdDeviation="50" result="effect1_foregroundBlur_132_66"/>
</filter>
<filter id="filter3_f_132_66" x="932" y="0" width="350" height="350" filterUnits="userSpaceOnUse" color-interpolation-filters="sRGB">
<feFlood flood-opacity="0" result="BackgroundImageFix"/>
<feBlend mode="normal" in="SourceGraphic" in2="BackgroundImageFix" result="shape"/>
<feGaussianBlur stdDeviation="50" result="effect1_foregroundBlur_132_66"/>
</filter>
<linearGradient id="paint0_linear_132_66" x1="268" y1="177" x2="488" y2="106" gradientUnits="userSpaceOnUse">
<stop stop-color="#309D9D" stop-opacity="0"/>
<stop offset="0.114583" stop-color="#309D9D"/>
<stop offset="0.9999" stop-color="#9B9D30"/>
<stop offset="1" stop-color="#9B9D30" stop-opacity="0"/>
</linearGradient>
<linearGradient id="paint1_linear_132_66" x1="889" y1="176.912" x2="1109" y2="122" gradientUnits="userSpaceOnUse">
<stop stop-color="#8E309D" stop-opacity="0"/>
<stop offset="0.114583" stop-color="#8E309D"/>
<stop offset="0.880208" stop-color="#9D7230"/>
<stop offset="1" stop-color="#9D7230" stop-opacity="0"/>
</linearGradient>
<linearGradient id="paint2_linear_132_66" x1="563" y1="171" x2="775.756" y2="155.096" gradientUnits="userSpaceOnUse">
<stop stop-color="#9B9D30" stop-opacity="0"/>
<stop offset="0.130208" stop-color="#9B9D30"/>
<stop offset="0.859375" stop-color="#8E309D"/>
<stop offset="1" stop-color="#8E309D" stop-opacity="0"/>
</linearGradient>
</defs>
</svg>
