<svg width="92" height="117" viewBox="0 0 92 117" fill="none" xmlns="http://www.w3.org/2000/svg">
<path d="M42.0658 39.0214L14.2413 23.7964" stroke="#424242" stroke-width="1.5"/>
<path d="M53.8227 63.1876L13 48.5" stroke="#424242" stroke-width="1.5"/>
<path d="M55.8243 63.9834L26 65.2034" stroke="#424242" stroke-width="1.5"/>
<path d="M55.8243 63.9834L26 65.2034" stroke="#424242" stroke-width="1.5"/>
<path d="M35.8243 85.9834L6 87.2034" stroke="#424242" stroke-width="1.5"/>
<path d="M35.8243 85.9834L6 87.2034" stroke="#424242" stroke-width="1.5"/>
<path d="M36.0002 87.5001L21.5 102" stroke="#424242" stroke-width="1.5"/>
<path d="M37 88L37 112.5" stroke="#424242" stroke-width="1.5"/>
<path d="M66.8633 79L66.8633 103.5" stroke="#424242" stroke-width="1.5"/>
<path d="M66.0001 78.9438L85.5 82.9436" stroke="#424242" stroke-width="1.5"/>
<path d="M45.1169 37.2351L50.3519 3.77104" stroke="#424242" stroke-width="1.5"/>
<path d="M88 107.5L67.2511 78.9997L53.5012 62.4997L43.1859 39.1047" stroke="#424242" stroke-width="1.5"/>
<path d="M44.1064 38.728L73.7827 8.24339" stroke="#424242" stroke-width="1.5"/>
<path d="M55 64.0994L84.6762 33.6147" stroke="#424242" stroke-width="1.5"/>
<path d="M36.5 86.5L53.6762 64.6147" stroke="#424242" stroke-width="1.5"/>
<path d="M42.4246 37.2546L27.4941 11.2785" stroke="#424242" stroke-width="1.5"/>
<circle cx="43.1806" cy="39.1062" r="4" transform="rotate(-22.2176 43.1806 39.1062)" fill="#424242"/>
<circle cx="54.2155" cy="63.2155" r="4" transform="rotate(-22.2176 54.2155 63.2155)" fill="#424242"/>
<circle cx="14.2155" cy="47.2155" r="4" transform="rotate(-22.2176 14.2155 47.2155)" fill="#424242"/>
<circle cx="25.2155" cy="65.2155" r="4" transform="rotate(-22.2176 25.2155 65.2155)" fill="#424242"/>
<circle cx="4.21552" cy="87.2155" r="4" transform="rotate(-22.2176 4.21552 87.2155)" fill="#424242"/>
<circle cx="20.2155" cy="102.216" r="4" transform="rotate(-22.2176 20.2155 102.216)" fill="#424242"/>
<circle cx="36.2155" cy="112.216" r="4" transform="rotate(-22.2176 36.2155 112.216)" fill="#424242"/>
<circle cx="67.2155" cy="103.216" r="4" transform="rotate(-22.2176 67.2155 103.216)" fill="#424242"/>
<circle cx="87.2155" cy="83.2155" r="4" transform="rotate(-22.2176 87.2155 83.2155)" fill="#424242"/>
<circle cx="68.2155" cy="79.2155" r="4" transform="rotate(-22.2176 68.2155 79.2155)" fill="#424242"/>
<circle cx="87.2155" cy="107.216" r="4" transform="rotate(-22.2176 87.2155 107.216)" fill="#424242"/>
<circle cx="36.2155" cy="87.2155" r="4" transform="rotate(-22.2176 36.2155 87.2155)" fill="#424242"/>
<circle cx="13.9086" cy="22.9771" r="4" transform="rotate(-22.2176 13.9086 22.9771)" fill="#424242"/>
<circle cx="27.3776" cy="10.9945" r="4" transform="rotate(-22.2176 27.3776 10.9945)" fill="#424242"/>
<circle cx="49.4262" cy="4.14914" r="4" transform="rotate(-22.2176 49.4262 4.14914)" fill="#424242"/>
<circle cx="72.4789" cy="7.69564" r="4" transform="rotate(-22.2176 72.4789 7.69564)" fill="#424242"/>
<circle cx="83.2155" cy="33.2155" r="4" transform="rotate(-22.2176 83.2155 33.2155)" fill="#424242"/>
</svg>
