<svg width="99" height="111" viewBox="0 0 99 111" fill="none" xmlns="http://www.w3.org/2000/svg">
<circle cx="53" cy="107" r="4" fill="#424242"/>
<circle cx="61" cy="85" r="4" fill="#424242"/>
<circle cx="39" cy="82" r="4" fill="#424242"/>
<circle cx="35" cy="51" r="4" fill="#424242"/>
<circle cx="43" cy="30" r="4" fill="#424242"/>
<circle cx="61" cy="43" r="4" fill="#424242"/>
<circle cx="57" cy="61" r="4" fill="#424242"/>
<circle cx="27" cy="104" r="4" fill="#424242"/>
<circle cx="79" cy="98" r="4" fill="#424242"/>
<circle cx="87" cy="74" r="4" fill="#424242"/>
<circle cx="95" cy="52" r="4" fill="#424242"/>
<circle cx="79" cy="30" r="4" fill="#424242"/>
<circle cx="31" cy="4" r="4" fill="#424242"/>
<circle cx="19" cy="26" r="4" fill="#424242"/>
<circle cx="4" cy="55" r="4" fill="#424242"/>
<circle cx="4" cy="82" r="4" fill="#424242"/>
<circle cx="58" cy="12" r="4" fill="#424242"/>
<path d="M79.5003 97.5004L54.0006 107L27.5 104L4.5 84L4.5 55L19.5 25.5L32 3.49997L59.0009 11.9999L79.5 29.9999L95.5003 51.5003L87.0003 73.5004L79.5003 97.5004Z" stroke="#424242" stroke-width="1.5"/>
<path d="M4.61046 54.5599L35.0036 50.0006L20.503 26.5004L43.0008 29.5001M39.0036 81.501L57.0034 60.5005L60.5008 42.5001M58.5008 12.0001L43.0008 29.5001M58.5008 12.0001L60.5008 42.5001M58.5008 12.0001L79.5 29.4999L95 51.5L60.5008 42.5001M43.0008 29.5001L32.0027 5.50014M60.5008 42.5001L86.9998 74.0002" stroke="#424242" stroke-width="1.5"/>
<path d="M79.4998 97.0005L60.9999 85.0007L40.4995 82.5003L53.5009 104.501" stroke="#424242" stroke-width="1.5"/>
<path d="M60.5001 42.5L43.5001 29.9999L35.5 50.5L4.5 83L39 81.5" stroke="#424242" stroke-width="1.5"/>
<path d="M57.1885 62L60.5 82.5" stroke="#424242" stroke-width="1.5"/>
<path d="M58.0005 59.9994L86.5001 73.9999L61.0005 84.9994L52.5005 106.999" stroke="#424242" stroke-width="1.5"/>
<path d="M38 80.5L35.0001 51.0001L57.4997 60.4998" stroke="#424242" stroke-width="1.5"/>
<path d="M5 83L53.4997 106" stroke="#424242" stroke-width="1.5"/>
</svg>
