<svg width="270" height="179" viewBox="0 0 270 179" fill="none" xmlns="http://www.w3.org/2000/svg">
<g clip-path="url(#clip0_116_8)">
<path opacity="0.7" d="M211.586 73.9922C213.883 74.3203 216.297 74.7891 218.828 75.3984C221.359 76.0078 223.844 76.8047 226.281 77.7891C228.766 78.7266 231.109 79.8984 233.312 81.3047C235.562 82.6641 237.531 84.2578 239.219 86.0859C240.906 87.9141 242.242 89.9766 243.227 92.2734C244.211 94.5703 244.703 97.1484 244.703 100.008C244.703 105.023 243.18 109.898 240.133 114.633C237.086 119.367 232.516 123.609 226.422 127.359C224.359 128.578 222.18 129.656 219.883 130.594C217.586 131.531 215.219 132.305 212.781 132.914C210.391 133.523 207.977 133.969 205.539 134.25C203.102 134.578 200.711 134.742 198.367 134.742C196.023 134.742 193.75 134.578 191.547 134.25C189.391 133.969 187.375 133.523 185.5 132.914C183.672 132.305 182.031 131.555 180.578 130.664C179.125 129.773 177.953 128.742 177.062 127.57C175.844 125.883 174.953 124.289 174.391 122.789C173.875 121.242 173.617 119.742 173.617 118.289C173.617 116.461 173.992 114.727 174.742 113.086C175.492 111.445 176.477 109.922 177.695 108.516C178.914 107.062 180.297 105.75 181.844 104.578C183.438 103.406 185.055 102.375 186.695 101.484C188.383 100.547 190.023 99.7969 191.617 99.2344C193.258 98.625 194.734 98.1797 196.047 97.8984C197.031 97.6641 197.711 97.5938 198.086 97.6875C198.461 97.7344 198.625 97.8516 198.578 98.0391C198.531 98.2266 198.367 98.4609 198.086 98.7422C197.852 98.9766 197.594 99.1641 197.312 99.3047L191.406 102.469C187.797 104.438 185.172 106.594 183.531 108.938C181.891 111.234 181.07 113.391 181.07 115.406C181.07 117.047 181.492 118.406 182.336 119.484C183.227 120.516 184.328 121.336 185.641 121.945C187 122.508 188.453 122.906 190 123.141C191.547 123.375 193.023 123.492 194.43 123.492C197.383 123.492 200.477 123.094 203.711 122.297C206.992 121.5 210.156 120.422 213.203 119.062C216.297 117.703 219.18 116.133 221.852 114.352C224.57 112.523 226.891 110.602 228.812 108.586C230.781 106.523 232.211 104.438 233.102 102.328C234.039 100.172 234.273 98.0625 233.805 96C233.008 92.6719 231.625 89.9531 229.656 87.8438C227.688 85.7344 225.414 84.0938 222.836 82.9219C220.305 81.75 217.586 80.9531 214.68 80.5312C211.773 80.1094 209.008 79.8984 206.383 79.8984C203.336 79.8984 200.664 80.0625 198.367 80.3906C196.117 80.6719 194.617 80.8828 193.867 81.0234C192.883 81.2109 192.18 81.1641 191.758 80.8828C191.336 80.5547 191.031 80.1328 190.844 79.6172C190.703 79.1016 190.609 78.5156 190.562 77.8594C190.562 77.1562 190.516 76.5234 190.422 75.9609C190.328 75.3984 190.164 75.0234 189.93 74.8359C189.742 74.6484 189.625 74.5078 189.578 74.4141C189.531 74.3203 189.602 74.2031 189.789 74.0625C189.977 73.875 190.422 73.5 191.125 72.9375C191.828 72.4688 193.164 71.9531 195.133 71.3906C197.148 70.7812 199.445 70.0547 202.023 69.2109C204.602 68.3672 207.297 67.3594 210.109 66.1875C212.922 64.9688 215.477 63.4922 217.773 61.7578C219.695 60.3516 221.289 59.0156 222.555 57.75C223.82 56.4844 224.828 55.3125 225.578 54.2344C226.328 53.1094 226.844 52.0781 227.125 51.1406C227.453 50.2031 227.617 49.3594 227.617 48.6094C227.617 47.7656 227.477 47.0391 227.195 46.4297C226.914 45.8203 226.586 45.3047 226.211 44.8828C225.836 44.4141 225.438 44.0625 225.016 43.8281C224.641 43.5469 224.336 43.3594 224.102 43.2656C222.695 42.9844 221.125 42.8438 219.391 42.8438C216.625 42.8438 213.719 43.2187 210.672 43.9688C207.672 44.6719 204.789 45.6094 202.023 46.7812C199.258 47.9531 196.773 49.2891 194.57 50.7891C192.367 52.2422 190.75 53.7188 189.719 55.2188C189.438 55.6406 189.508 55.8984 189.93 55.9922C190.352 56.0391 190.984 56.0156 191.828 55.9219C192.672 55.7812 193.633 55.5703 194.711 55.2891C195.789 55.0078 196.867 54.7031 197.945 54.375C199.023 54.0469 200.031 53.7422 200.969 53.4609C201.906 53.1797 202.609 52.9688 203.078 52.8281C203.453 52.6875 203.664 52.6641 203.711 52.7578C203.805 52.8516 203.781 53.0156 203.641 53.25C203.547 53.4844 203.359 53.7891 203.078 54.1641C202.844 54.5391 202.609 54.8906 202.375 55.2188C202.141 55.6875 202 56.0859 201.953 56.4141C201.906 56.6953 201.672 57.0234 201.25 57.3984C200.641 57.9141 200.148 58.4297 199.773 58.9453C199.445 59.4609 199.164 59.9297 198.93 60.3516C198.695 60.7734 198.484 61.1484 198.297 61.4766C198.109 61.7578 197.898 61.9453 197.664 62.0391C197.055 62.2734 196.352 62.5312 195.555 62.8125C194.805 63.0938 193.984 63.375 193.094 63.6562C192.25 63.9375 191.359 64.1719 190.422 64.3594C189.531 64.5469 188.664 64.6406 187.82 64.6406C186.461 64.6406 185.195 64.3359 184.023 63.7266C182.898 63.0703 181.961 61.9219 181.211 60.2812C180.414 58.4531 180.297 56.5078 180.859 54.4453C181.469 52.3359 182.688 50.25 184.516 48.1875C186.344 46.0781 188.711 44.0625 191.617 42.1406C194.57 40.1719 198.016 38.3906 201.953 36.7969C204.719 35.7188 207.32 34.9453 209.758 34.4766C212.242 34.0078 214.539 33.7734 216.648 33.7734C218.477 33.7734 220.164 33.9141 221.711 34.1953C223.258 34.4766 224.617 34.8281 225.789 35.25C227.008 35.625 228.039 36.0469 228.883 36.5156C229.727 36.9844 230.359 37.4297 230.781 37.8516C231.766 38.6953 232.562 39.5859 233.172 40.5234C233.781 41.4141 234.297 42.3281 234.719 43.2656C235.188 44.1563 235.609 45.0469 235.984 45.9375C236.359 46.7812 236.781 47.5781 237.25 48.3281C238.188 49.875 238.469 51.4453 238.094 53.0391C237.719 54.6328 236.875 56.2266 235.562 57.8203C234.297 59.4141 232.68 60.9844 230.711 62.5312C228.789 64.0312 226.703 65.4844 224.453 66.8906C222.25 68.2969 220.023 69.6094 217.773 70.8281C215.523 72 213.461 73.0547 211.586 73.9922Z" fill="black"/>
<path opacity="0.7" d="M110.566 93.9805C110.111 97.1706 109.46 100.523 108.613 104.039C107.767 107.555 106.66 111.005 105.293 114.391C103.991 117.841 102.363 121.096 100.41 124.156C98.5221 127.281 96.3086 130.016 93.7695 132.359C91.2305 134.703 88.3659 136.559 85.1758 137.926C81.9857 139.293 78.4049 139.977 74.4336 139.977C67.4674 139.977 60.6966 137.861 54.1211 133.629C47.5456 129.397 41.6536 123.049 36.4453 114.586C34.7526 111.721 33.2552 108.694 31.9531 105.504C30.651 102.314 29.5768 99.026 28.7305 95.6406C27.8841 92.3203 27.2656 88.9674 26.875 85.582C26.4193 82.1966 26.1914 78.8763 26.1914 75.6211C26.1914 72.3659 26.4193 69.2083 26.875 66.1484C27.2656 63.1536 27.8841 60.3542 28.7305 57.75C29.5768 55.2109 30.6185 52.9323 31.8555 50.9141C33.0924 48.8958 34.5247 47.2682 36.1523 46.0312C38.4961 44.3385 40.7096 43.1016 42.793 42.3203C44.9414 41.6042 47.0247 41.2461 49.043 41.2461C51.582 41.2461 53.9909 41.7669 56.2695 42.8086C58.5482 43.8503 60.6641 45.2174 62.6172 46.9102C64.6354 48.6029 66.4583 50.5234 68.0859 52.6719C69.7135 54.8854 71.1458 57.1315 72.3828 59.4102C73.6849 61.7539 74.7266 64.0326 75.5078 66.2461C76.3542 68.5247 76.9727 70.5755 77.3633 72.3984C77.6888 73.7656 77.7865 74.7096 77.6562 75.2305C77.5911 75.7513 77.4284 75.9792 77.168 75.9141C76.9076 75.849 76.582 75.6211 76.1914 75.2305C75.8659 74.9049 75.6055 74.5469 75.4102 74.1562L71.0156 65.9531C68.2812 60.9401 65.2865 57.2943 62.0312 55.0156C58.8411 52.737 55.8464 51.5977 53.0469 51.5977C50.7682 51.5977 48.8802 52.1836 47.3828 53.3555C45.9505 54.5924 44.8112 56.1224 43.9648 57.9453C43.1836 59.8333 42.6302 61.8516 42.3047 64C41.9792 66.1484 41.8164 68.1992 41.8164 70.1523C41.8164 74.2539 42.3698 78.5508 43.4766 83.043C44.5833 87.6003 46.0807 91.9948 47.9688 96.2266C49.8568 100.523 52.0378 104.527 54.5117 108.238C57.0508 112.014 59.7201 115.237 62.5195 117.906C65.3841 120.641 68.2812 122.626 71.2109 123.863C74.2057 125.165 77.1354 125.491 80 124.84C84.6224 123.733 88.3984 121.812 91.3281 119.078C94.2578 116.344 96.5365 113.186 98.1641 109.605C99.7917 106.09 100.898 102.314 101.484 98.2773C102.07 94.2409 102.363 90.3997 102.363 86.7539C102.363 82.5221 102.135 78.8112 101.68 75.6211C101.289 72.4961 100.996 70.4128 100.801 69.3711C100.54 68.0039 100.605 67.0273 100.996 66.4414C101.452 65.8555 102.038 65.4323 102.754 65.1719C103.47 64.9766 104.284 64.8464 105.195 64.7812C106.172 64.7812 107.051 64.7161 107.832 64.5859C108.613 64.4557 109.134 64.2279 109.395 63.9023C109.655 63.6419 109.85 63.4792 109.98 63.4141C110.111 63.349 110.273 63.4466 110.469 63.707C110.729 63.9674 111.25 64.5859 112.031 65.5625C112.682 66.5391 113.398 68.3945 114.18 71.1289C115.026 73.9284 116.035 77.1185 117.207 80.6992C118.379 84.2799 119.779 88.0234 121.406 91.9297C123.099 95.8359 125.15 99.3841 127.559 102.574C129.512 105.243 131.367 107.457 133.125 109.215C134.883 110.973 136.51 112.372 138.008 113.414C139.57 114.456 141.003 115.172 142.305 115.562C143.607 116.018 144.779 116.246 145.82 116.246C146.992 116.246 148.001 116.051 148.848 115.66C149.694 115.27 150.41 114.814 150.996 114.293C151.647 113.772 152.135 113.219 152.461 112.633C152.852 112.112 153.112 111.689 153.242 111.363C153.633 109.41 153.828 107.229 153.828 104.82C153.828 100.979 153.307 96.9427 152.266 92.7109C151.289 88.5443 149.987 84.5404 148.359 80.6992C146.732 76.8581 144.876 73.4076 142.793 70.3477C140.775 67.2878 138.724 65.0417 136.641 63.6094C136.055 63.2187 135.697 63.3164 135.566 63.9023C135.501 64.4883 135.534 65.3672 135.664 66.5391C135.859 67.7109 136.152 69.0456 136.543 70.543C136.934 72.0404 137.357 73.5378 137.812 75.0352C138.268 76.5326 138.691 77.9323 139.082 79.2344C139.473 80.5365 139.766 81.513 139.961 82.1641C140.156 82.6849 140.189 82.9779 140.059 83.043C139.928 83.1732 139.701 83.1406 139.375 82.9453C139.049 82.8151 138.626 82.5547 138.105 82.1641C137.585 81.8385 137.096 81.513 136.641 81.1875C135.99 80.862 135.436 80.6667 134.98 80.6016C134.59 80.5365 134.134 80.2109 133.613 79.625C132.897 78.7786 132.181 78.0951 131.465 77.5742C130.749 77.1185 130.098 76.7279 129.512 76.4023C128.926 76.0768 128.405 75.7839 127.949 75.5234C127.559 75.263 127.298 74.9701 127.168 74.6445C126.842 73.7982 126.484 72.8216 126.094 71.7148C125.703 70.6732 125.312 69.5339 124.922 68.2969C124.531 67.125 124.206 65.888 123.945 64.5859C123.685 63.349 123.555 62.1445 123.555 60.9727C123.555 59.0846 123.978 57.3268 124.824 55.6992C125.736 54.1367 127.331 52.8346 129.609 51.793C132.148 50.6862 134.85 50.5234 137.715 51.3047C140.645 52.151 143.542 53.8437 146.406 56.3828C149.336 58.9219 152.135 62.2096 154.805 66.2461C157.539 70.3477 160.013 75.1328 162.227 80.6016C163.724 84.4427 164.798 88.056 165.449 91.4414C166.1 94.8919 166.426 98.082 166.426 101.012C166.426 103.551 166.23 105.895 165.84 108.043C165.449 110.191 164.961 112.079 164.375 113.707C163.854 115.4 163.268 116.832 162.617 118.004C161.966 119.176 161.348 120.055 160.762 120.641C159.59 122.008 158.353 123.115 157.051 123.961C155.814 124.807 154.544 125.523 153.242 126.109C152.005 126.76 150.768 127.346 149.531 127.867C148.359 128.388 147.253 128.974 146.211 129.625C144.062 130.927 141.882 131.318 139.668 130.797C137.454 130.276 135.241 129.104 133.027 127.281C130.814 125.523 128.633 123.277 126.484 120.543C124.401 117.874 122.383 114.977 120.43 111.852C118.477 108.792 116.654 105.699 114.961 102.574C113.333 99.4492 111.868 96.5846 110.566 93.9805Z" fill="black"/>
</g>
<defs>
<clipPath id="clip0_116_8">
<rect width="270" height="179" fill="white"/>
</clipPath>
</defs>
</svg>
